<svg width="50" height="50" viewBox="0 0 50 50" fill="none" xmlns="http://www.w3.org/2000/svg">
<circle cx="25" cy="25" r="25" fill="#0078D4"/>
<path d="M13 32.756V21.936C13 21.3226 13.2058 20.8102 13.6173 20.3986C14.0289 19.9871 14.5409 19.7817 15.1533 19.7826H19V17.32C19 16.7066 19.2058 16.1946 19.6173 15.784C20.028 15.3724 20.54 15.1666 21.1533 15.1666H28.8467C29.46 15.1666 29.9724 15.3724 30.384 15.784C30.7947 16.1946 31 16.7066 31 17.32V19.7826H34.8467C35.46 19.7826 35.972 19.988 36.3827 20.3986C36.7942 20.8102 37 21.3226 37 21.936V32.756C37 33.0617 36.8969 33.3177 36.6907 33.524C36.4844 33.7302 36.2284 33.8333 35.9227 33.8333H14.0773C13.7716 33.8333 13.5156 33.7302 13.3093 33.524C13.1031 33.3177 13 33.0617 13 32.756ZM18.8467 27.4746V28.1413C18.8467 28.3297 18.7827 28.488 18.6547 28.616C18.5267 28.744 18.368 28.808 18.1787 28.808C17.9893 28.808 17.8311 28.744 17.704 28.616C17.5769 28.488 17.5133 28.3297 17.5133 28.1413V27.4746H14.3333V32.5H35.6667V27.4733H32.4867V28.14C32.4867 28.3293 32.4227 28.488 32.2947 28.616C32.1676 28.744 32.0093 28.808 31.82 28.808C31.6307 28.808 31.4724 28.744 31.3453 28.616C31.2173 28.488 31.1533 28.3297 31.1533 28.1413V27.4746H18.8467ZM14.3333 21.936V26.1413H17.5133V25.4746C17.5133 25.2853 17.5773 25.1271 17.7053 25C17.8333 24.872 17.9916 24.808 18.18 24.808C18.3693 24.808 18.5276 24.872 18.6547 25C18.7827 25.1271 18.8467 25.2853 18.8467 25.4746V26.1413H31.1533V25.4746C31.1533 25.2853 31.2173 25.1271 31.3453 25C31.4733 24.8728 31.632 24.8088 31.8213 24.808C32.0107 24.808 32.1689 24.872 32.296 25C32.4231 25.1271 32.4867 25.2853 32.4867 25.4746V26.1413H35.6667V21.936C35.6667 21.7315 35.5813 21.5435 35.4107 21.372C35.2391 21.2013 35.0511 21.116 34.8467 21.116H15.1533C14.9489 21.116 14.7609 21.2013 14.5893 21.372C14.4187 21.5426 14.3333 21.7306 14.3333 21.936ZM20.3333 19.7826H29.6667V17.32C29.6667 17.1155 29.5813 16.9275 29.4107 16.756C29.2391 16.5853 29.0511 16.5 28.8467 16.5H21.1533C20.9489 16.5 20.7609 16.5853 20.5893 16.756C20.4187 16.9275 20.3333 17.1155 20.3333 17.32V19.7826Z" fill="white"/>
</svg>
