<svg width="50" height="50" viewBox="0 0 50 50" fill="none" xmlns="http://www.w3.org/2000/svg">
<circle cx="25" cy="25" r="25" fill="#0078D4"/>
<g clip-path="url(#clip0_2141_151765)">
<path d="M25 20.4578C22.5147 20.4578 20.5422 22.4725 20.5422 24.9156C20.5422 27.3588 22.4734 29.4578 25 29.4578C27.5266 29.4578 29.4578 27.4431 29.4578 25C29.4578 22.5569 27.4844 20.4578 25 20.4578ZM36.8734 29.2656L33.9109 24.9578L36.8711 20.6917C37.1679 20.264 36.9228 19.6727 36.4105 19.5799L31.3011 18.6564L30.3777 13.5471C30.2851 13.0347 29.6938 12.7896 29.2658 13.0866L25 16.0886L20.6922 13.1283C20.2645 12.8315 19.6731 13.0764 19.5803 13.5888L18.7 18.7L13.5888 19.6235C13.0766 19.7125 12.8314 20.3078 13.1283 20.6922L16.0886 25L13.1284 29.2661C12.8316 29.6938 13.0766 30.2852 13.5889 30.378L18.6983 31.3014L19.6217 36.4108C19.7143 36.9231 20.3057 37.1683 20.7336 36.8713L25 33.911L29.2661 36.8711C29.6939 37.168 30.2856 36.923 30.378 36.4107L31.3014 31.3013L36.4108 30.3779C36.925 30.2875 37.1687 29.6922 36.8734 29.2656ZM25 30.9578C21.6864 30.9578 19.0422 28.2714 19.0422 25C19.0422 21.6864 21.7286 19.0422 25 19.0422C28.2714 19.0422 30.9578 21.7281 30.9578 25C30.9578 28.3141 28.3141 30.9578 25 30.9578Z" fill="white"/>
</g>
<defs>
<clipPath id="clip0_2141_151765">
<rect width="24" height="24" fill="white" transform="translate(13 13)"/>
</clipPath>
</defs>
</svg>
