<?xml version="1.0" encoding="iso-8859-1"?>
<!-- Uploaded to: SVG Repo, www.svgrepo.com, Generator: SVG Repo Mixer Tools -->
<!DOCTYPE svg PUBLIC "-//W3C//DTD SVG 1.1//EN" "http://www.w3.org/Graphics/SVG/1.1/DTD/svg11.dtd">
<svg fill="#000000" version="1.1" id="Capa_1" xmlns="http://www.w3.org/2000/svg" xmlns:xlink="http://www.w3.org/1999/xlink" 
	 width="800px" height="800px" viewBox="0 0 87.109 87.109"
	 xml:space="preserve">
<g>
	<g>
		<g>
			<path d="M50.05,87.109c-0.203,0-0.403-0.029-0.598-0.088c-0.114-0.033-0.247-0.086-0.373-0.152
				c-0.83-0.442-1.257-1.388-1.045-2.299c1.208-5.135,1.396-8.427,1.417-11.221c0.021-1.513-0.264-3.172-0.563-4.93
				c-0.286-1.68-0.579-3.396-0.687-5.266c-0.091-1.55,0.956-2.902,1.279-3.281c0.399-0.461,0.97-0.723,1.571-0.723
				c0.062,0,0.192,0.008,0.254,0.016c0.693,0.089,1.29,0.513,1.599,1.137c5.441,11.009,5.016,19.316-1.342,26.148
				C51.172,86.869,50.619,87.109,50.05,87.109z M51.265,63.888c0.128,1.379,0.354,2.711,0.576,4.007
				c0.326,1.917,0.633,3.708,0.609,5.486c-0.017,2.15-0.125,4.583-0.672,7.829C54.554,76.473,54.37,71.027,51.265,63.888z
				 M44.076,57.843c-5.63,0-11.223-1.228-16.176-3.55c-11.451-5.369-17.233-16.271-15.469-29.159
				c0.458-3.34,4.645-5.042,7.428-4.274c3.716,1.022,4.618,4.467,4.223,7.35c-0.568,4.149,0.488,7.897,3.054,10.84
				c3.608,4.135,10.258,6.705,17.354,6.705c2.618,0,5.173-0.363,7.391-1.05c3.615-1.122,10.387-4.498,11.127-9.479
				c-2.27,0.378-4.595,0.79-6.816,1.464c-2.062,0.62-4.874-0.299-6.404-2.048c-0.977-1.116-1.415-2.476-1.232-3.828
				c1.057-7.88,4.222-12.513,9.15-13.398c0.79-0.143,1.594-0.215,2.386-0.215c4.1,0,7.893,1.875,10.682,5.279
				c3.578,4.368,4.917,9.527,3.875,14.92c-1.239,6.406-5.736,12.292-12.028,15.75C57.029,56.22,50.617,57.843,44.076,57.843z
				 M18.396,23.67c-1.292,0-2.846,0.8-2.992,1.871c-1.578,11.52,3.57,21.253,13.77,26.036c4.557,2.138,9.71,3.267,14.902,3.267
				c6.038,0,11.951-1.495,17.098-4.322c5.52-3.03,9.455-8.149,10.526-13.689c0.868-4.489-0.255-8.793-3.25-12.449
				c-2.634-3.216-6.402-4.702-10.214-4.013c-4.45,0.799-6.104,6.338-6.709,10.844c-0.066,0.496,0.107,0.984,0.519,1.453
				c0.632,0.723,1.744,1.228,2.707,1.228c0.212,0,0.403-0.025,0.568-0.076c2.615-0.793,5.265-1.232,7.826-1.657l1.218-0.202
				c0.443-0.072,0.897,0.056,1.236,0.354c0.338,0.297,0.523,0.731,0.508,1.181l-0.044,1.231C65.681,43.326,54.09,47.16,52.77,47.57
				c-2.5,0.774-5.362,1.185-8.275,1.185c-7.938,0-15.456-2.964-19.618-7.732c-3.153-3.615-4.456-8.186-3.766-13.22
				c0.172-1.255,0.135-3.45-2.046-4.05C18.867,23.698,18.643,23.67,18.396,23.67z M58.454,14.002c-0.29,0-0.571-0.054-0.841-0.16
				l-7.644-2.995c-0.678-0.263-1.194-0.844-1.379-1.552c-0.187-0.707-0.02-1.467,0.445-2.032l5.274-6.431
				c0.649-0.791,1.8-1.056,2.728-0.629l7.79,3.571c0.667,0.308,1.149,0.918,1.292,1.635c0.144,0.719-0.068,1.469-0.566,2.005
				l-5.417,5.854C59.701,13.735,59.091,14.002,58.454,14.002z M51.976,8.41l6.288,2.464l4.424-4.781l-6.404-2.936L51.976,8.41z"/>
		</g>
	</g>
</g>
</svg>