<?xml version="1.0" encoding="iso-8859-1"?>
<!-- Uploaded to: SVG Repo, www.svgrepo.com, Generator: SVG Repo Mixer Tools -->
<!DOCTYPE svg PUBLIC "-//W3C//DTD SVG 1.1//EN" "http://www.w3.org/Graphics/SVG/1.1/DTD/svg11.dtd">
<svg fill="#000000" version="1.1" id="Capa_1" xmlns="http://www.w3.org/2000/svg" xmlns:xlink="http://www.w3.org/1999/xlink" 
	 width="800px" height="800px" viewBox="0 0 90.307 90.307"
	 xml:space="preserve">
<g>
	<g>
		<g>
			<g>
				<path d="M5.754,63.562L5.754,63.562l-3.247-0.001c-0.675,0-1.307-0.263-1.779-0.741C0.264,62.363,0,61.731,0,61.055
					l0.073-31.811c0.005-1.379,1.13-2.5,2.507-2.5h5.238c1.063,0,2.014,0.674,2.364,1.677L15.608,43.8
					c0.348,1.03,0.668,2,0.964,2.917c0.311-0.92,0.646-1.891,1.009-2.917l5.676-15.416c0.359-0.98,1.305-1.64,2.352-1.64h5.237
					c1.382,0,2.507,1.124,2.507,2.506l0.02,31.802c0,0.673-0.262,1.304-0.738,1.776c-0.467,0.47-1.098,0.731-1.769,0.731h-3.333
					c-0.671,0-1.302-0.262-1.774-0.737c-0.47-0.467-0.731-1.098-0.731-1.769l0.004-12.791l-4.875,13.455
					c-0.352,0.986-1.3,1.653-2.355,1.653h-3.114c-1.07,0-2.022-0.68-2.371-1.692L8.251,49.767L8.253,60.73
					c0.014,0.105,0.021,0.214,0.021,0.322c0,1.363-1.093,2.475-2.447,2.506C5.8,63.562,5.777,63.562,5.754,63.562z M3.001,60.562
					h1.651c0.163-0.177,0.367-0.313,0.599-0.396L5.248,40.438c0-0.742,0.543-1.373,1.276-1.483c0.732-0.109,1.438,0.333,1.657,1.042
					c0.523,1.699,1.113,3.521,1.804,5.57l5.055,14.809h2.413l5.473-15.104c0.811-2.217,1.525-4.258,2.185-6.244
					c0.233-0.698,0.94-1.125,1.664-1.007c0.727,0.118,1.26,0.745,1.26,1.481l-0.007,21.061h2.346l-0.021-30.817h-4.4l-5.55,15.073
					c-1.005,2.851-1.801,5.263-2.424,7.356c-0.189,0.637-0.774,1.072-1.438,1.072c-0.003,0-0.006,0-0.009,0
					c-0.667-0.004-1.252-0.447-1.434-1.09c-0.593-2.083-1.354-4.497-2.326-7.377L7.467,29.744H3.072L3.001,60.562z"/>
			</g>
		</g>
		<g>
			<g>
				<path d="M87.799,63.557h-4.102c-1.381,0-2.506-1.123-2.506-2.506V48.818H70.999v12.232c0,1.383-1.125,2.506-2.507,2.506h-4.062
					c-1.382,0-2.507-1.123-2.507-2.506V29.614c0-1.382,1.125-2.507,2.507-2.507h4.062c1.382,0,2.507,1.125,2.507,2.507v10.647
					h10.192V29.614c0-1.382,1.125-2.507,2.508-2.507H87.8c1.382,0,2.507,1.125,2.507,2.507v31.438
					C90.306,62.434,89.181,63.557,87.799,63.557z M84.191,60.557h3.114V30.107h-3.114v11.654c0,0.829-0.672,1.5-1.5,1.5H69.499
					c-0.828,0-1.5-0.671-1.5-1.5V30.107h-3.074v30.449h3.074V47.318c0-0.829,0.672-1.5,1.5-1.5h13.192c0.828,0,1.5,0.671,1.5,1.5
					V60.557z"/>
			</g>
		</g>
		<g>
			<g>
				<path d="M44.141,63.557c-7.552,0-10.932-5.463-10.932-10.879c0-5.92,3.093-12.949,17.541-13.476
					c-0.35-3.183-2.061-3.881-4.495-3.881c-2.26,0-4.642,0.623-6.534,1.71c-0.643,0.367-1.442,0.429-2.128,0.173
					c-0.699-0.26-1.243-0.817-1.489-1.528l-0.932-2.704c-0.385-1.107,0.066-2.354,1.073-2.962c3.089-1.866,6.56-2.813,10.317-2.813
					c6.159,0,13.502,2.543,13.502,14.657l-0.012,18.323c0.059,0.627-0.168,1.308-0.609,1.813c-0.463,0.543-1.156,0.861-1.891,0.861
					h-3.242c-1.055,0-1.971-0.654-2.337-1.597C49.74,62.74,47.015,63.557,44.141,63.557z M46.256,32.322
					c3.449,0,7.562,1.421,7.562,8.19v0.159c0,0.826-0.668,1.497-1.494,1.5c-16.113,0.064-16.113,7.922-16.113,10.506
					c0,1.315,0.383,7.879,7.932,7.879c3.183,0,6.114-1.246,8.041-3.42c0.414-0.465,1.072-0.629,1.653-0.408
					c0.583,0.22,0.969,0.777,0.97,1.4l0.004,1.726h2.242l0.012-17.998c0-7.952-3.336-11.656-10.501-11.656
					c-3.063,0-5.895,0.733-8.423,2.179l0.609,1.768C40.987,32.982,43.689,32.322,46.256,32.322z M44.83,58.435
					c-3.847,0-6.333-2.511-6.333-6.397c0-3.652,2.296-8.008,13.233-8.008l0.435,0.002c0.823,0.005,1.493,0.675,1.493,1.5
					l0.002,4.905c0,0.643-0.131,1.39-0.366,2.104C52.359,55.268,49.588,58.435,44.83,58.435z M50.658,47.045
					c-6.081,0.172-9.161,1.85-9.161,4.992c0,2.254,1.121,3.397,3.333,3.397c3.176,0,5.013-2.075,5.622-3.851
					c0.131-0.397,0.209-0.82,0.209-1.147L50.658,47.045z"/>
			</g>
		</g>
	</g>
</g>
</svg>