<?xml version="1.0" encoding="iso-8859-1"?>
<!-- Uploaded to: SVG Repo, www.svgrepo.com, Generator: SVG Repo Mixer Tools -->
<!DOCTYPE svg PUBLIC "-//W3C//DTD SVG 1.1//EN" "http://www.w3.org/Graphics/SVG/1.1/DTD/svg11.dtd">
<svg fill="#000000" version="1.1" id="Capa_1" xmlns="http://www.w3.org/2000/svg" xmlns:xlink="http://www.w3.org/1999/xlink" 
	 width="800px" height="800px" viewBox="0 0 95.332 95.332"
	 xml:space="preserve">
<g>
	<g>
		<g>
			<path d="M43.244,95.332c-2.548,0-4.621-2.073-4.621-4.621V79.469h-9.317c-2.96,0-5.11-0.681-6.39-2.023
				c-1.277-1.338-1.926-3.485-1.926-6.383V21.408c0-2.957,0.665-5.12,1.975-6.432c1.31-1.311,3.443-1.975,6.341-1.975h9.317v-8.38
				C38.623,2.073,40.696,0,43.244,0c2.548,0,4.621,2.073,4.621,4.621v8.381h0.902c3.14,0,5.911,0.197,8.233,0.587
				c2.33,0.396,4.449,1.165,6.3,2.286c1.562,0.931,2.974,2.135,4.188,3.574c1.212,1.441,2.148,3.054,2.785,4.794
				c0.636,1.742,0.959,3.607,0.959,5.546c0,6.507-3.219,11.374-9.566,14.474c8.417,2.836,12.676,8.271,12.676,16.165
				c0,3.719-0.966,7.114-2.871,10.094c-1.904,2.978-4.505,5.205-7.728,6.623c-2.054,0.858-4.406,1.461-7.019,1.805
				c-2.522,0.335-5.502,0.51-8.857,0.521v11.241C47.865,93.259,45.791,95.332,43.244,95.332z M29.306,16.002
				c-2.043,0-3.502,0.379-4.219,1.096c-0.5,0.5-1.097,1.654-1.097,4.311v49.653c0,2.069,0.379,3.562,1.097,4.312
				c0.672,0.706,2.17,1.096,4.218,1.096h10.817c0.829,0,1.5,0.672,1.5,1.5v12.741c0,0.894,0.727,1.621,1.621,1.621
				s1.621-0.728,1.621-1.621V77.969c0-0.828,0.671-1.5,1.5-1.5h1.185c3.354,0,6.307-0.166,8.78-0.494
				c2.353-0.309,4.446-0.843,6.229-1.586c2.646-1.166,4.803-3.014,6.383-5.483c1.591-2.488,2.397-5.341,2.397-8.478
				c0-6.781-3.519-11.061-11.075-13.467l-3.156-0.971c-0.59-0.182-1.01-0.708-1.055-1.325c-0.045-0.616,0.295-1.198,0.854-1.463
				l3.019-1.434c5.671-2.631,8.306-6.435,8.306-11.979c0-1.586-0.26-3.105-0.776-4.517c-0.515-1.41-1.276-2.719-2.263-3.891
				c-0.996-1.183-2.152-2.17-3.438-2.935c-1.537-0.932-3.301-1.568-5.254-1.9c-2.156-0.361-4.76-0.545-7.734-0.545h-2.401
				c-0.829,0-1.5-0.672-1.5-1.5v-9.88C44.865,3.727,44.138,3,43.244,3s-1.621,0.728-1.621,1.621v9.881c0,0.828-0.671,1.5-1.5,1.5
				H29.306z M47.009,72.012h-0.644c-0.829,0-1.5-0.672-1.5-1.5V48.635c0-0.828,0.671-1.5,1.5-1.5h0.193
				c5.25,0,9.178,0.883,12.006,2.696c3.142,2.013,4.803,5.335,4.803,9.606C63.367,64.134,61.242,72.012,47.009,72.012z
				 M47.865,50.155v18.846c8.297-0.203,12.502-3.418,12.502-9.563c0-3.289-1.119-5.604-3.42-7.08
				C54.838,51.005,51.859,50.281,47.865,50.155z M40.123,72.012H31.34c-0.829,0-1.5-0.672-1.5-1.5V48.635c0-0.828,0.671-1.5,1.5-1.5
				h8.783c0.829,0,1.5,0.672,1.5,1.5v21.877C41.623,71.34,40.951,72.012,40.123,72.012z M32.84,69.012h5.783V50.135H32.84V69.012z
				 M40.123,43.129H31.34c-0.829,0-1.5-0.672-1.5-1.5v-19.67c0-0.828,0.671-1.5,1.5-1.5h8.783c0.829,0,1.5,0.672,1.5,1.5v19.67
				C41.623,42.457,40.951,43.129,40.123,43.129z M32.84,40.129h5.783v-16.67H32.84V40.129z M46.365,43.105
				c-0.39,0-0.764-0.151-1.044-0.424c-0.292-0.282-0.456-0.671-0.456-1.076v-19.57c0-0.411,0.168-0.804,0.467-1.087
				c0.297-0.284,0.694-0.434,1.109-0.411c3.881,0.197,6.853,0.794,9.084,1.826c2.365,1.091,5.184,3.569,5.184,9.182
				c0,2.064-0.511,3.971-1.52,5.665c-1.236,2.282-3.203,3.966-5.654,4.816c-1.833,0.637-4.164,0.989-7.126,1.078
				C46.395,43.105,46.38,43.105,46.365,43.105z M47.865,23.641v16.39c1.917-0.136,3.46-0.412,4.688-0.838
				c1.758-0.61,3.113-1.775,4.029-3.464c0.758-1.276,1.127-2.666,1.127-4.184c0-3.277-1.125-5.39-3.439-6.458
				C52.684,24.354,50.58,23.878,47.865,23.641z"/>
		</g>
	</g>
</g>
</svg>