<?xml version="1.0" encoding="iso-8859-1"?>
<!-- Uploaded to: SVG Repo, www.svgrepo.com, Generator: SVG Repo Mixer Tools -->
<!DOCTYPE svg PUBLIC "-//W3C//DTD SVG 1.1//EN" "http://www.w3.org/Graphics/SVG/1.1/DTD/svg11.dtd">
<svg fill="#000000" version="1.1" id="Capa_1" xmlns="http://www.w3.org/2000/svg" xmlns:xlink="http://www.w3.org/1999/xlink" 
	 width="800px" height="800px" viewBox="0 0 81.964 81.964"
	 xml:space="preserve">
<g>
	<g>
		<g>
			<path d="M61.921,76.01c-4.532,0-8.317-1.263-11.299-3.763l-0.029,0.581c-0.065,1.283-1.123,2.287-2.405,2.287h-6.176
				c-0.66,0-1.297-0.274-1.751-0.754c-0.458-0.489-0.693-1.144-0.653-1.799c0.155-2.558,0.32-6.531,0.32-10.013V15.011
				c0-1.328,1.08-2.408,2.408-2.408h7.07c1.328,0,2.408,1.08,2.408,2.408v18.564c3.025-2.277,6.877-3.5,11.162-3.5
				c4.938,0,9.34,1.803,12.729,5.215c4.083,4.112,6.306,10.249,6.257,17.282C81.964,68.672,71.574,76.01,61.921,76.01z
				 M48.005,64.516l2.485,3.262c2.647,3.472,6.494,5.232,11.431,5.232c8.208,0,17.042-6.398,17.042-20.449
				c0.042-6.238-1.87-11.617-5.386-15.157c-2.813-2.832-6.478-4.329-10.601-4.329c-4.828,0-8.809,1.709-11.512,4.943l-2.65,3.171
				V15.603h-5.888V62.55c0,3.274-0.144,6.972-0.29,9.565h4.986L48.005,64.516z"/>
		</g>
		<g>
			<path d="M61.609,68.842c-7.569,0-13.728-7.152-13.728-15.943s6.158-15.942,13.728-15.942s13.729,7.151,13.729,15.942
				S69.179,68.842,61.609,68.842z M61.609,39.956c-5.916,0-10.728,5.806-10.728,12.942c0,7.138,4.812,12.943,10.728,12.943
				s10.729-5.806,10.729-12.943C72.338,45.762,67.525,39.956,61.609,39.956z"/>
		</g>
		<g>
			<path d="M20.25,62.768V43.023l2.952,1.041c1.75,0.631,3.153,1.301,4.167,1.985c1.203,0.815,2.042,1.792,2.494,2.905
				c0.4,0.984,0.603,2.167,0.603,3.515c0,3.118-0.982,5.638-2.92,7.491c-1.361,1.3-3.231,2.15-5.557,2.525L20.25,62.768z
				 M23.25,47.295v11.8c0.902-0.315,1.646-0.752,2.223-1.303c1.322-1.265,1.993-3.056,1.993-5.322c0-0.959-0.128-1.761-0.382-2.385
				c-0.225-0.554-0.695-1.075-1.397-1.55C25.08,48.125,24.263,47.709,23.25,47.295z"/>
		</g>
		<g>
			<path d="M16.85,36.702l-2.94-0.986c-1.754-0.606-3.049-1.229-3.958-1.905c-1.102-0.816-1.803-1.78-2.084-2.864
				c-0.206-0.803-0.311-1.815-0.311-3.011c0-1.473,0.307-2.807,0.911-3.965c0.605-1.156,1.447-2.118,2.504-2.86
				c0.986-0.694,2.136-1.22,3.416-1.561c0.174-0.047,0.357-0.088,0.54-0.127L16.851,19L16.85,36.702L16.85,36.702z M13.85,22.911
				c-0.416,0.188-0.801,0.406-1.152,0.653c-0.664,0.466-1.191,1.069-1.571,1.795c-0.378,0.724-0.57,1.591-0.57,2.576
				c0,1.176,0.117,1.879,0.215,2.261c0.104,0.399,0.43,0.806,0.967,1.205c0.483,0.359,1.191,0.725,2.111,1.093V22.911z"/>
		</g>
		<g>
			<path d="M18.55,80.55c-2.592,0-4.7-2.108-4.7-4.7v-7.141C5.143,67.152,0.486,61.343,0,51.419
				c0.027-2.804,2.117-4.853,4.859-4.853c2.645,0,4.796,2.143,4.796,4.774l0.001,0.427c0.136,3.6,1.48,5.891,4.193,7.051v-14.67
				c-1.678-0.539-3.163-1.084-4.425-1.629c-1.895-0.813-3.495-1.826-4.755-3.006c-1.296-1.211-2.261-2.712-2.866-4.459
				c-0.586-1.692-0.883-3.817-0.883-6.315c0-2.297,0.395-4.432,1.172-6.344c0.783-1.926,1.932-3.621,3.414-5.038
				c1.475-1.412,3.277-2.534,5.357-3.336c0.915-0.353,1.916-0.631,2.987-0.831V6.114c0-2.591,2.108-4.7,4.7-4.7
				c2.592,0,4.7,2.108,4.7,4.7v7.168c7.749,1.432,11.925,6.237,12.42,14.303l0.071,0.608l-0.001,0.092
				c-0.028,2.671-2.164,4.764-4.862,4.764c-2.233,0-4.105-1.508-4.635-3.583h-0.066l-0.052-0.639
				c-0.012-0.108-0.021-0.218-0.026-0.329l-0.034-0.42c-0.18-2.404-1.085-4.023-2.814-4.975v12.415
				c1.784,0.581,3.378,1.169,4.75,1.754c1.981,0.846,3.664,1.895,4.999,3.119c1.371,1.255,2.414,2.832,3.098,4.681
				c0.667,1.812,1.005,4.029,1.005,6.596c0,2.42-0.418,4.709-1.244,6.805c-0.829,2.108-2.044,3.975-3.61,5.551
				c-1.562,1.569-3.472,2.83-5.677,3.744c-1.006,0.418-2.119,0.744-3.321,0.975v7.107C23.25,78.441,21.142,80.55,18.55,80.55z
				 M4.859,49.566c-1.102,0-1.85,0.722-1.861,1.795c0.438,8.897,4.423,13.556,12.538,14.57l1.314,0.163v9.755
				c0,0.937,0.763,1.699,1.7,1.699s1.7-0.763,1.7-1.699v-9.707l1.31-0.168c1.447-0.185,2.746-0.514,3.861-0.977
				c1.837-0.764,3.419-1.803,4.701-3.09c1.275-1.283,2.267-2.809,2.945-4.533c0.687-1.744,1.035-3.664,1.035-5.706
				c0-2.211-0.276-4.081-0.82-5.558c-0.516-1.396-1.293-2.578-2.31-3.508c-1.084-0.994-2.48-1.859-4.149-2.572
				c-1.544-0.659-3.4-1.326-5.519-1.984l-1.055-0.328V19.039l1.855,0.452c3.759,0.916,6.078,3.315,6.771,6.976h0.096l0.121,1.835
				c0.038,0.995,0.821,1.748,1.786,1.748c1.041,0,1.811-0.717,1.859-1.715l-0.055-0.491c-0.44-7.137-3.973-10.86-11.126-11.793
				l-1.306-0.17V6.114c0-0.937-0.763-1.7-1.7-1.7s-1.7,0.763-1.7,1.7v9.693l-1.32,0.159c-1.33,0.16-2.536,0.447-3.586,0.853
				c-1.708,0.659-3.176,1.569-4.363,2.706c-1.175,1.123-2.086,2.469-2.708,4c-0.631,1.552-0.951,3.306-0.951,5.214
				c0,2.163,0.242,3.957,0.718,5.333c0.443,1.281,1.144,2.375,2.081,3.25c1.007,0.943,2.315,1.764,3.891,2.442
				c1.422,0.612,3.164,1.233,5.177,1.847l1.063,0.324v20.776l-1.818-0.394c-5.264-1.142-8.16-4.769-8.375-10.49l-0.002-0.482
				C6.655,50.363,5.85,49.566,4.859,49.566z"/>
		</g>
	</g>
</g>
</svg>