<?xml version="1.0" encoding="iso-8859-1"?>
<!-- Uploaded to: SVG Repo, www.svgrepo.com, Generator: SVG Repo Mixer Tools -->
<!DOCTYPE svg PUBLIC "-//W3C//DTD SVG 1.1//EN" "http://www.w3.org/Graphics/SVG/1.1/DTD/svg11.dtd">
<svg fill="#000000" version="1.1" id="Capa_1" xmlns="http://www.w3.org/2000/svg" xmlns:xlink="http://www.w3.org/1999/xlink" 
	 width="800px" height="800px" viewBox="0 0 87.874 87.874"
	 xml:space="preserve">
<g>
	<g>
		<g>
			<path d="M34.575,87.874c-0.354,0-0.708-0.046-1.053-0.138c-1.063-0.278-1.956-0.957-2.511-1.909
				c-0.555-0.951-0.705-2.062-0.425-3.126l1.425-5.406c-0.726-0.38-1.413-0.785-2.051-1.215c-2.183-1.461-4.212-3.404-6.03-5.779
				c-1.613-2.142-3-4.558-4.13-7.189c-1.126-2.62-1.982-5.455-2.544-8.426c-0.559-2.953-0.843-6.129-0.843-9.438
				c0-5.383,0.715-10.283,2.127-14.563c1.422-4.318,3.496-8.072,6.163-11.159c2.681-3.102,5.87-5.498,9.479-7.123
				c3.605-1.622,7.497-2.444,11.567-2.444c1.342,0,2.662,0.083,3.939,0.248l1.879-7.134C52.045,1.263,53.685,0,55.556,0
				c0.353,0,0.705,0.046,1.049,0.136c1.064,0.28,1.957,0.959,2.512,1.911c0.554,0.951,0.705,2.062,0.425,3.126l-1.938,7.352
				c0.527,0.251,1.027,0.512,1.512,0.787c3.889,2.219,6.919,5.012,9.006,8.303c2.109,3.327,3.182,6.552,3.182,9.584
				c0,1.862-0.599,3.53-1.777,4.957c-1.232,1.49-2.83,2.278-4.621,2.278c-1.936,0-3.447-0.562-4.495-1.669
				c-0.874-0.926-1.788-2.405-2.793-4.522c-1.103-2.313-2.354-4.184-3.735-5.582L43.326,66.712c0.685,0.103,1.389,0.153,2.104,0.153
				c3.074,0,5.588-0.816,7.684-2.494c2.105-1.688,3.73-4.241,4.828-7.589c0.529-1.812,1.228-3.369,2.06-4.582
				c0.713-1.038,2.128-2.274,4.822-2.274c1.835,0,3.426,0.717,4.728,2.129c1.268,1.379,1.909,3.096,1.909,5.105
				c0,2.248-0.495,4.693-1.472,7.27c-0.971,2.562-2.512,5.102-4.578,7.549c-2.094,2.479-4.794,4.519-8.027,6.056
				c-3.242,1.542-7.05,2.323-11.316,2.323c-2.157,0-4.238-0.168-6.206-0.498l-1.302,4.941
				C38.083,86.609,36.445,87.874,34.575,87.874z M45.749,12.957c-3.643,0-7.121,0.733-10.336,2.18
				c-3.208,1.444-6.048,3.58-8.441,6.35c-2.407,2.785-4.286,6.195-5.583,10.136c-1.312,3.977-1.976,8.561-1.976,13.624
				c0,3.124,0.266,6.11,0.79,8.88c0.521,2.756,1.313,5.381,2.354,7.801c1.036,2.412,2.302,4.619,3.763,6.561
				c1.611,2.104,3.401,3.822,5.312,5.102c0.844,0.566,1.75,1.069,2.772,1.54c0.662,0.306,1.009,1.041,0.823,1.745l-1.737,6.594
				c-0.077,0.289-0.036,0.592,0.115,0.85c0.151,0.26,0.394,0.443,0.684,0.521c0.605,0.16,1.218-0.213,1.372-0.799l1.659-6.297
				c0.205-0.774,0.982-1.251,1.766-1.084c2.166,0.466,4.515,0.702,6.983,0.702c3.816,0,7.191-0.686,10.029-2.033
				c2.844-1.354,5.207-3.13,7.022-5.282c1.847-2.187,3.214-4.435,4.063-6.677c0.848-2.234,1.277-4.321,1.277-6.205
				c0-1.251-0.365-2.257-1.117-3.074c-0.729-0.791-1.529-1.16-2.52-1.16c-1.506,0-2.062,0.555-2.348,0.973
				c-0.652,0.951-1.213,2.221-1.668,3.773c-1.297,3.955-3.25,6.981-5.818,9.041c-2.612,2.092-5.828,3.152-9.561,3.152
				c-1.498,0-2.959-0.188-4.345-0.559c-0.798-0.213-1.274-1.031-1.063-1.832l11.558-43.859c0.124-0.471,0.469-0.852,0.925-1.022
				c0.456-0.171,0.966-0.109,1.369,0.164l0.093,0.063c0.163,0.109,0.325,0.22,0.482,0.341c2.263,1.738,4.24,4.359,5.876,7.791
				c1.067,2.249,1.821,3.281,2.265,3.751c0.458,0.483,1.237,0.729,2.314,0.729c0.904,0,1.638-0.378,2.309-1.189
				c0.733-0.888,1.09-1.884,1.09-3.046c0-2.454-0.912-5.138-2.714-7.978c-1.821-2.873-4.5-5.33-7.958-7.304
				c-0.729-0.414-1.506-0.793-2.378-1.157c-0.69-0.289-1.063-1.043-0.873-1.767l2.263-8.585c0.076-0.29,0.035-0.592-0.117-0.851
				c-0.15-0.26-0.394-0.444-0.682-0.521c-0.593-0.157-1.218,0.215-1.373,0.8l-2.224,8.439c-0.199,0.757-0.951,1.234-1.716,1.094
				C49.007,13.095,47.399,12.957,45.749,12.957z M36.682,66.954c-0.334,0-0.665-0.112-0.934-0.326
				c-2.213-1.76-3.84-4.155-5.123-7.539c-1.333-3.517-2.009-7.95-2.009-13.179c0-7.867,1.545-14.064,4.591-18.422
				c3.313-4.736,7.44-7.038,12.62-7.038c0.85,0,1.688,0.061,2.494,0.18c0.422,0.063,0.797,0.303,1.031,0.658
				c0.235,0.356,0.308,0.796,0.199,1.208l-11.421,43.34c-0.129,0.49-0.497,0.883-0.978,1.041C37,66.928,36.841,66.954,36.682,66.954
				z M45.828,23.45c-4.185,0-7.414,1.829-10.161,5.758c-2.687,3.843-4.05,9.462-4.05,16.702c0,4.863,0.61,8.939,1.814,12.115
				c0.711,1.877,1.503,3.348,2.461,4.539l10.305-39.11C46.075,23.451,45.952,23.45,45.828,23.45z"/>
		</g>
	</g>
</g>
</svg>