<?xml version="1.0" encoding="iso-8859-1"?>
<!-- Uploaded to: SVG Repo, www.svgrepo.com, Generator: SVG Repo Mixer Tools -->
<!DOCTYPE svg PUBLIC "-//W3C//DTD SVG 1.1//EN" "http://www.w3.org/Graphics/SVG/1.1/DTD/svg11.dtd">
<svg fill="#000000" version="1.1" id="Capa_1" xmlns="http://www.w3.org/2000/svg" xmlns:xlink="http://www.w3.org/1999/xlink" 
	 width="800px" height="800px" viewBox="0 0 74.5 74.5" xml:space="preserve">
<g>
	<g>
		<path d="M48.126,74.5c-13.445,0-25.54-9.498-30.404-23.75H8.251c-3.032,0-5.5-2.467-5.5-5.5s2.468-5.5,5.5-5.5h7.327
			c-0.052-0.845-0.077-1.682-0.077-2.5c0-0.975,0.037-1.979,0.111-3H8.251c-3.032,0-5.5-2.467-5.5-5.5s2.468-5.5,5.5-5.5h9.645
			C22.869,9.297,34.895,0,48.126,0c8.225,0,16.077,3.496,22.111,9.844c2.09,2.199,2,5.688-0.197,7.776
			c-1.027,0.976-2.373,1.513-3.789,1.513c-1.5,0-2.953-0.624-3.986-1.71c-3.938-4.142-8.957-6.422-14.139-6.422
			c-7.48,0-14.317,4.638-18.275,12.25h22.9c3.032,0,5.5,2.467,5.5,5.5s-2.468,5.5-5.5,5.5H26.646c-0.096,1.004-0.145,2.008-0.145,3
			c0,0.823,0.034,1.66,0.101,2.5h26.149c3.032,0,5.5,2.467,5.5,5.5s-2.468,5.5-5.5,5.5H29.593c3.89,7.813,10.969,12.75,18.533,12.75
			c5.182,0,10.201-2.281,14.139-6.422c1.033-1.087,2.486-1.711,3.986-1.711c1.416,0,2.762,0.538,3.789,1.513
			c2.197,2.089,2.287,5.577,0.197,7.776C64.204,71.004,56.351,74.5,48.126,74.5z M8.251,42.75c-1.379,0-2.5,1.122-2.5,2.5
			s1.121,2.5,2.5,2.5h10.56c0.657,0,1.237,0.427,1.433,1.055C24.468,62.379,35.674,71.5,48.127,71.5
			c7.396,0,14.476-3.165,19.938-8.911c0.949-0.999,0.908-2.585-0.09-3.534c-0.97-0.92-2.615-0.877-3.535,0.09
			c-4.51,4.744-10.303,7.355-16.313,7.355c-9.44,0-18.171-6.552-22.24-16.691c-0.186-0.461-0.13-0.985,0.149-1.398
			c0.278-0.413,0.744-0.66,1.242-0.66h25.474c1.379,0,2.5-1.122,2.5-2.5s-1.121-2.5-2.5-2.5H25.245c-0.759,0-1.398-0.566-1.489-1.32
			c-0.169-1.4-0.254-2.807-0.254-4.18c0-1.554,0.108-3.137,0.322-4.703c0.102-0.743,0.737-1.297,1.487-1.297h27.441
			c1.379,0,2.5-1.122,2.5-2.5s-1.121-2.5-2.5-2.5H27.491c-0.503,0-0.973-0.252-1.25-0.671c-0.278-0.419-0.327-0.95-0.132-1.413
			C30.32,14.194,38.757,8,48.126,8c6.012,0,11.805,2.612,16.312,7.356c0.92,0.967,2.565,1.011,3.537,0.089
			c0.998-0.949,1.037-2.535,0.088-3.534C62.601,6.165,55.521,3,48.126,3c-12.255,0-23.398,8.928-27.731,22.215
			c-0.202,0.617-0.777,1.035-1.426,1.035H8.251c-1.379,0-2.5,1.122-2.5,2.5s1.121,2.5,2.5,2.5h9.005
			c0.427,0,0.833,0.182,1.117,0.499s0.42,0.741,0.374,1.165c-0.163,1.485-0.246,2.944-0.246,4.336c0,1.251,0.065,2.548,0.193,3.854
			c0.041,0.422-0.098,0.84-0.382,1.154s-0.688,0.493-1.111,0.493L8.251,42.75L8.251,42.75z"/>
	</g>
</g>
</svg>