<?xml version="1.0" encoding="iso-8859-1"?>
<!-- Uploaded to: SVG Repo, www.svgrepo.com, Generator: SVG Repo Mixer Tools -->
<!DOCTYPE svg PUBLIC "-//W3C//DTD SVG 1.1//EN" "http://www.w3.org/Graphics/SVG/1.1/DTD/svg11.dtd">
<svg fill="#000000" version="1.1" id="Capa_1" xmlns="http://www.w3.org/2000/svg" xmlns:xlink="http://www.w3.org/1999/xlink" 
	 width="800px" height="800px" viewBox="0 0 86.921 86.921"
	 xml:space="preserve">
<g>
	<g>
		<g>
			<path d="M69.824,76.578c-4.504,0-8.941-1.092-12.178-2.996l-0.578-0.342c-0.77-0.446-1.127-1.396-0.842-2.25l2.286-6.963
				c0.188-0.562,0.61-0.996,1.16-1.199c0.667-0.229,1.235-0.12,1.726,0.212l0.879,0.571c1.717,1.125,4.857,2.332,7.705,2.332
				c1.763,0,4.72-0.387,4.72-2.974c0-1.425-0.396-2.659-5.353-4.491c-9.869-3.521-11.943-9.252-11.943-13.438
				c0-8.245,6.574-14.004,15.986-14.004c3.865,0,7.918,1.032,10.838,2.762l0.578,0.342c0.777,0.469,1.125,1.421,0.834,2.271
				l-2.304,6.701c-0.19,0.556-0.636,0.999-1.188,1.188c-0.528,0.182-1.146,0.114-1.631-0.186l-0.895-0.563
				c-0.854-0.543-3.178-1.8-6.391-1.8c-1.701,0-3.688,0.653-3.688,2.494c0,1.111,0.386,1.986,5.536,3.947
				c8.077,3.076,11.839,7.568,11.839,14.143C86.922,70.986,80.211,76.578,69.824,76.578z M59.35,71.101
				c2.771,1.575,6.575,2.478,10.475,2.478c8.695,0,14.099-4.308,14.099-11.242c0-5.304-2.963-8.694-9.907-11.339
				c-5.06-1.926-7.468-3.428-7.468-6.751c0-3.235,2.75-5.494,6.688-5.494c3.688,0,6.461,1.347,7.711,2.091l1.57-4.569
				c-2.464-1.403-5.854-2.236-9.123-2.236c-7.646,0-12.986,4.525-12.986,11.004c0,4.62,3.445,8.292,9.966,10.618
				c4.53,1.673,7.329,3.477,7.329,7.312c0,2.889-2.028,5.973-7.721,5.973c-3.545,0-7.021-1.381-9.06-2.637L59.35,71.101z
				 M33.296,76.578c-10.182,0-18.083-2.817-24.154-8.612C3.329,62.357,0,53.555,0,43.816c0-20.021,14.06-33.473,34.986-33.473
				c7.311,0,13.258,1.621,16.129,3.009c1.121,0.54,1.67,1.798,1.301,2.99l-1.958,6.32c-0.216,0.692-0.72,1.256-1.38,1.547
				c-0.649,0.288-1.436,0.28-2.083-0.031c-3.377-1.595-7.252-2.339-12.187-2.339c-13.336,0-21.62,8.285-21.62,21.621
				c0,13.391,7.909,21.709,20.642,21.709c3.969,0,6.42-0.438,7.824-0.833V50.677H37.55c-1.379,0-2.5-1.121-2.5-2.5v-6.23
				c0-1.379,1.121-2.5,2.5-2.5h14.259c1.379,0,2.5,1.121,2.5,2.5v28.838c0,1.026-0.644,1.965-1.602,2.334
				C50.6,73.93,42.968,76.578,33.296,76.578z M34.986,13.343C15.854,13.343,3,25.589,3,43.816c0,8.931,2.995,16.943,8.219,21.985
				c5.48,5.229,12.704,7.776,22.077,7.776c8.717,0,15.653-2.262,18.013-3.139V42.446H38.05v5.23h5.104c0.828,0,1.5,0.673,1.5,1.5
				v16.24c0,0.617-0.379,1.171-0.952,1.396c-1.574,0.618-4.566,1.355-9.872,1.355c-14.583,0-23.642-9.468-23.642-24.709
				c0-15.187,9.434-24.621,24.62-24.621c5.147,0,9.282,0.762,12.953,2.391l1.659-5.356C46.699,14.667,41.464,13.343,34.986,13.343z"
				/>
		</g>
	</g>
</g>
</svg>