<?xml version="1.0" encoding="iso-8859-1"?>
<!-- Uploaded to: SVG Repo, www.svgrepo.com, Generator: SVG Repo Mixer Tools -->
<!DOCTYPE svg PUBLIC "-//W3C//DTD SVG 1.1//EN" "http://www.w3.org/Graphics/SVG/1.1/DTD/svg11.dtd">
<svg fill="#000000" version="1.1" id="Capa_1" xmlns="http://www.w3.org/2000/svg" xmlns:xlink="http://www.w3.org/1999/xlink" 
	 width="800px" height="800px" viewBox="0 0 73.011 73.011"
	 xml:space="preserve">
<g>
	<g>
		<g>
			<path d="M38.855,73.011c-5.825,0-10.73-1.886-14.188-5.452c-4.659-4.806-6.283-11.531-4.518-18.312h-5.143c-2.757,0-5-2.243-5-5
				c0-2.758,2.243-5,5-5H25.59c0.493-0.544,1-1.057,1.512-1.525c0.458-0.421,0.921-0.825,1.382-1.213H15.005c-2.757,0-5-2.243-5-5
				s2.243-5,5-5H41.23c3.154-3.125,4.572-6.091,4.334-9.054c-0.242-2.986-2.603-5.791-5.736-6.822
				c-4.268-1.404-9.021-0.78-13.94,1.804c-0.768,0.403-1.566,0.607-2.375,0.607c-2.297,0-4.385-1.709-4.965-4.063
				c-0.536-2.173,0.388-4.183,2.412-5.246C25.544,1.326,30.75,0,35.619,0c7.363,0,13.425,3.036,17.068,8.549
				c2.93,4.431,3.698,10.214,2.01,15.093c-0.336,0.974-0.742,1.923-1.226,2.866h4.534c2.757,0,5,2.243,5,5s-2.243,5-5,5H44.926
				c-0.333,0.27-0.67,0.537-1.013,0.8c-0.827,0.634-1.713,1.278-2.623,1.938h16.715c2.757,0,5,2.242,5,5c0,2.757-2.243,5-5,5H30.65
				c-1.508,2.728-1.705,5.441-0.628,8.479c1.545,4.356,5.752,5.271,9.01,5.271c3.201,0,6.928-0.885,9.967-2.364
				c0.736-0.358,1.502-0.54,2.273-0.54c2.349,0,4.533,1.796,5.084,4.178c0.496,2.151-0.465,4.107-2.511,5.104
				C49.029,71.719,43.705,73.011,38.855,73.011z M15.005,42.245c-1.103,0-2,0.897-2,2s0.897,2,2,2h7.178
				c0.488,0,0.946,0.237,1.228,0.638c0.28,0.398,0.35,0.911,0.184,1.37c-2.283,6.343-1.077,12.778,3.227,17.218
				c2.92,3.014,6.969,4.54,12.033,4.54c4.342,0,9.326-1.216,13.678-3.336c0.777-0.378,1.08-0.961,0.902-1.733
				c-0.212-0.91-1.076-1.852-2.162-1.852c-0.312,0-0.636,0.079-0.959,0.237c-3.429,1.67-7.646,2.667-11.281,2.667
				c-5.971,0-10.175-2.581-11.837-7.27c-1.46-4.117-1.011-8.082,1.336-11.783c0.274-0.435,0.753-0.696,1.267-0.696h28.207
				c1.104,0,2-0.897,2-2s-0.896-2-2-2H36.733c-0.643,0-1.213-0.409-1.42-1.017c-0.207-0.608-0.004-1.281,0.505-1.673
				c1.136-0.875,2.292-1.713,3.416-2.526c0.994-0.718,1.959-1.417,2.855-2.104c0.459-0.352,0.906-0.713,1.35-1.077
				c0.269-0.221,0.604-0.342,0.953-0.342h13.613c1.104,0,2-0.897,2-2s-0.896-2-2-2h-7.143c-0.551,0-1.057-0.302-1.318-0.785
				c-0.262-0.484-0.237-1.073,0.062-1.534c0.984-1.509,1.723-2.99,2.256-4.528c1.39-4.016,0.746-8.789-1.678-12.457
				C46.25,4.25,40.092,3,35.619,3c-4.392,0-9.103,1.204-13.266,3.391c-0.797,0.418-1.098,1.048-0.895,1.871
				c0.216,0.876,1.043,1.781,2.053,1.781c0.317,0,0.647-0.089,0.98-0.264c5.645-2.966,11.23-3.653,16.272-1.997
				c4.316,1.419,7.446,5.208,7.789,9.43c0.328,4.056-1.531,7.942-5.684,11.884c-0.278,0.265-0.647,0.412-1.032,0.412H15.005
				c-1.103,0-2,0.897-2,2s0.897,2,2,2h17.838c0.647,0,1.223,0.416,1.425,1.031c0.202,0.615-0.013,1.29-0.533,1.676
				c-1.406,1.037-3.052,2.291-4.604,3.716c-0.587,0.538-1.167,1.142-1.726,1.792c-0.285,0.332-0.701,0.523-1.139,0.523
				L15.005,42.245L15.005,42.245z"/>
		</g>
	</g>
</g>
</svg>