<?xml version="1.0" encoding="iso-8859-1"?>
<!-- Uploaded to: SVG Repo, www.svgrepo.com, Generator: SVG Repo Mixer Tools -->
<!DOCTYPE svg PUBLIC "-//W3C//DTD SVG 1.1//EN" "http://www.w3.org/Graphics/SVG/1.1/DTD/svg11.dtd">
<svg fill="#000000" version="1.1" id="Capa_1" xmlns="http://www.w3.org/2000/svg" xmlns:xlink="http://www.w3.org/1999/xlink" 
	 width="800px" height="800px" viewBox="0 0 91.823 91.823"
	 xml:space="preserve">
<g>
	<g>
		<g>
			<g>
				<path d="M56.472,61.173h-0.003c-3.075,0-5.602-0.021-7.95-0.068c-3.928-0.08-6.6-2.68-7.332-7.136
					c-0.408-2.477-0.661-4.95-0.905-7.342c-0.192-1.878-0.408-3.981-0.699-5.982c-0.287-1.965-0.651-3.977-1.002-5.923l-0.026-0.145
					c-0.572-3.162-1.163-6.426-1.481-9.692c-0.183-1.886,0.588-3.599,1.267-5.11c0.25-0.557,0.502-1.117,0.669-1.608
					c0.323-0.961,1.227-1.609,2.246-1.609c1.004,0,1.904,0.636,2.241,1.582c0.411,1.192,2.458,7.275,2.811,11.22
					c0.198,2.231,0.512,6.145,0.845,10.312c0.255,3.189,0.523,6.528,0.759,9.372c0.098,1.176,0.321,1.655,2.171,1.655l0.266-0.004
					c1.857-0.062,3.887-0.091,6.358-0.091c1.34,0,2.708,0.009,4.116,0.018l0.493,0.003c0.763,0.005,1.521,0.01,2.287,0.014
					c-0.006-0.027-0.013-0.056-0.018-0.084c-0.363-1.772-0.677-3.299-1.346-4.17c-2.826-3.672-2.899-7.208-0.227-10.811
					c0.388-0.527,0.987-0.873,1.644-0.945l0.177-0.012c0.004,0,0.009,0,0.014,0c0.632,0,1.165,0.193,1.587,0.543
					c4.499,3.755,5.687,9.753,4.713,23.773c-0.088,1.24-1.128,2.21-2.37,2.21c-1.924,0-3.829,0.008-5.722,0.017l-0.662,0.002
					C59.743,61.167,58.104,61.173,56.472,61.173z M41.194,20.74c-0.038,0.083-0.075,0.167-0.112,0.25
					c-0.585,1.301-1.13,2.514-1.025,3.606c0.307,3.142,0.886,6.345,1.447,9.443l0.019,0.101c0.365,2.019,0.733,4.057,1.028,6.073
					c0.3,2.064,0.519,4.201,0.712,6.086c0.243,2.37,0.491,4.797,0.883,7.184c0.496,3.02,1.987,4.574,4.432,4.624
					c2.328,0.047,4.835,0.067,7.891,0.067h0.003c1.63,0,3.265-0.006,4.908-0.012l0.661-0.002c1.704-0.008,3.419-0.015,5.15-0.017
					c0.785-11.838-0.028-17.166-3.164-20.214c-1.474,2.286-1.285,4.193,0.588,6.628c1.091,1.418,1.469,3.258,1.905,5.388
					c0.125,0.611,0.251,1.226,0.399,1.854c0.106,0.447,0.002,0.918-0.282,1.278c-0.285,0.358-0.719,0.568-1.177,0.568
					c-0.001,0-0.002,0-0.003,0c-1.413-0.003-2.781-0.012-4.166-0.021l-0.49-0.003c-1.402-0.008-2.764-0.018-4.099-0.018
					c-2.438,0-4.436,0.028-6.287,0.09l-0.313,0.005c-3.205,0-4.941-1.483-5.184-4.407c-0.236-2.846-0.504-6.188-0.759-9.38
					c-0.332-4.156-0.644-8.059-0.843-10.284C43.08,26.952,41.907,22.972,41.194,20.74z"/>
			</g>
		</g>
		<g>
			<g>
				<path d="M59.602,72.649c-0.039,0-0.078-0.001-0.116-0.004l-0.101-0.008c-0.526-0.009-1.146-0.312-1.574-0.804l-2.358-2.69
					l-2.957,2.688c-0.45,0.414-1.089,0.646-1.702,0.615c-0.667-0.037-1.268-0.329-1.692-0.821l-3.766-4.375
					c-0.845-0.984-0.755-2.438,0.203-3.307l3.779-3.438c0.435-0.397,1.003-0.618,1.599-0.618c0.776,0.041,1.392,0.341,1.815,0.848
					l2.337,2.769l2.988-2.755c0.426-0.398,1.014-0.63,1.606-0.63c0.771,0.042,1.359,0.32,1.789,0.812l3.711,4.269
					c0.843,0.966,0.77,2.413-0.169,3.291l-3.771,3.522C60.78,72.423,60.204,72.649,59.602,72.649z M56.729,66.051l2.917,3.327
					l2.855-2.668l-2.887-3.32L56.729,66.051z M48.004,65.753l2.948,3.425l2.818-2.562l-2.917-3.454L48.004,65.753z"/>
			</g>
		</g>
		<g>
			<g>
				<path d="M16.779,69.716c-2.035,0-3.887-0.104-5.663-0.319c-3.815-0.462-7.021-2.305-9.026-5.188
					c-1.967-2.832-2.571-6.384-1.702-10.004c0.247-1.108,1.658-6.961,4.632-11.156c0.598-0.91,1.725-1.501,2.914-1.501
					c0.686,0,1.341,0.193,1.897,0.56c0.778,0.512,1.313,1.299,1.501,2.216c0.189,0.914,0.01,1.849-0.504,2.63
					c-1.873,2.847-3.083,6.793-3.166,7.778c-0.05,0.606,0.052,1.195,0.713,2.097c1.338,1.823,4.084,2.791,7.939,2.798l1.711,0.009
					c0.645,0,1.414-0.009,2.175-0.08c4.328-0.399,6.86-1.305,8.21-2.934c1.288-1.557,1.709-4.132,1.326-8.107l-0.247-2.62
					c-0.657-6.99-1.336-14.218-2.951-21.01l-0.204-0.846c-0.924-3.81-1.798-7.41,0.617-11.554c0.353-0.612,0.963-1.034,1.67-1.149
					c0.043-0.007,0.086-0.012,0.13-0.016l0.138-0.01c0.624-0.038,1.23,0.185,1.692,0.597c0.412,0.364,0.801,0.74,1.177,1.105
					c0.625,0.607,1.218,1.183,1.789,1.524c2.313,1.377,3.556,2.949,3.798,4.804c0.256,1.939-0.6,3.861-2.694,6.038
					c-0.066,0.193-0.14,0.665-0.09,1.143c0.337,3.22,0.719,6.489,1.09,9.663l0.067,0.572c0.527,4.497,1.073,9.146,1.515,13.816
					c0.557,5.868-0.553,10.493-3.3,13.748c-2.575,3.052-6.499,4.793-11.66,5.175C20.262,69.643,18.463,69.716,16.779,69.716z
					 M7.935,44.547c-0.18,0-0.364,0.081-0.438,0.193c-2.671,3.77-3.956,9.107-4.187,10.141c-0.672,2.8-0.229,5.496,1.243,7.615
					c1.51,2.171,3.969,3.563,6.923,3.922c3.047,0.37,6.337,0.399,10.575,0.084c4.327-0.32,7.554-1.706,9.589-4.118
					c2.208-2.614,3.084-6.493,2.606-11.529c-0.439-4.636-0.983-9.269-1.508-13.749l-0.067-0.574c-0.372-3.186-0.755-6.467-1.094-9.7
					c-0.113-1.084,0.038-2.639,0.835-3.456c1.446-1.482,2.086-2.675,1.958-3.646c-0.114-0.874-0.908-1.754-2.361-2.619
					c-0.874-0.522-1.621-1.249-2.344-1.95c-0.16-0.156-0.323-0.314-0.49-0.473c-1.337,2.827-0.707,5.422,0.074,8.643l0.206,0.853
					c1.664,7,2.353,14.334,3.02,21.428l0.247,2.615c0.464,4.818-0.171,8.095-2.001,10.306c-1.899,2.293-5.059,3.528-10.245,4.008
					c-0.883,0.082-1.738,0.092-2.458,0.092l-1.714-0.009c-4.842-0.009-8.421-1.4-10.347-4.022c-1.01-1.376-1.406-2.646-1.285-4.119
					c0.141-1.695,1.632-6.114,3.649-9.18c0.076-0.115,0.101-0.241,0.073-0.375c-0.028-0.134-0.101-0.243-0.213-0.316
					C8.099,44.558,8.001,44.547,7.935,44.547z"/>
			</g>
		</g>
		<g>
			<g>
				<path d="M70.437,80.519L70.437,80.519c-3.458-0.001-6.812-1.22-10.054-2.398c-1.365-0.496-2.889-1.05-4.303-1.447
					c-1.199-0.337-1.938-1.556-1.683-2.773c0.017-0.081,0.041-0.161,0.071-0.239c0.338-0.865,1.234-1.738,2.476-1.738
					c0.198,0,0.399,0.023,0.597,0.069c0.284,0.065,0.637,0.138,0.999,0.211c0.307,0.062,0.62,0.126,0.911,0.188
					c1.307,0.287,2.646,0.581,3.909,0.695c0.509,0.046,1.017,0.069,1.51,0.069c6.341,0,12.13-3.868,17.208-11.496
					c2.251-3.385,0.653-6.498-1.084-8.514c-0.216-0.251-0.396-0.49-0.579-0.732c-0.176-0.237-0.328-0.443-0.527-0.663
					c-0.024-0.027-0.048-0.054-0.07-0.083c-1.92-2.438-3.575-4.452-4.92-5.987c-1.727-1.97-1.527-4.978,0.442-6.703
					c0.841-0.735,1.945-1.14,3.111-1.14c1.4,0,2.71,0.577,3.592,1.583c2.354,2.688,4.975,6.025,5.99,7.335l0.483,0.577
					c0.123,0.142,3.403,4.01,3.305,10.522c-0.092,6.034-2.687,9.277-3.276,9.938c-5.099,7.309-9.992,12.261-17.259,12.699
					C70.996,80.51,70.718,80.519,70.437,80.519z M63.714,76.121c2.5,0.852,4.974,1.517,7.399,1.377
					c6.082-0.367,10.407-4.863,15.028-11.501c0.043-0.063,0.092-0.122,0.145-0.178c0.1-0.105,2.456-2.681,2.537-8.01
					c0.082-5.359-2.563-8.504-2.591-8.535l-0.533-0.638c-1.034-1.331-3.609-4.612-5.91-7.239c-0.562-0.643-1.826-0.728-2.471-0.163
					c-0.725,0.635-0.798,1.743-0.162,2.469c1.371,1.566,3.049,3.606,4.988,6.066c0.255,0.284,0.456,0.551,0.652,0.814
					c0.164,0.218,0.305,0.407,0.474,0.604c3.363,3.902,3.84,8.325,1.308,12.133c-5.669,8.516-12.298,12.834-19.704,12.834
					C64.492,76.156,64.104,76.144,63.714,76.121z"/>
			</g>
		</g>
	</g>
</g>
</svg>