<?xml version="1.0" encoding="iso-8859-1"?>
<!-- Uploaded to: SVG Repo, www.svgrepo.com, Generator: SVG Repo Mixer Tools -->
<!DOCTYPE svg PUBLIC "-//W3C//DTD SVG 1.1//EN" "http://www.w3.org/Graphics/SVG/1.1/DTD/svg11.dtd">
<svg fill="#000000" version="1.1" id="Capa_1" xmlns="http://www.w3.org/2000/svg" xmlns:xlink="http://www.w3.org/1999/xlink" 
	 width="800px" height="800px" viewBox="0 0 69.066 69.066"
	 xml:space="preserve">
<g>
	<g>
		<g>
			<path d="M63.754,69.066H53.506c-0.812,0-1.602-0.334-2.166-0.917l-21.4-22.292v20.244c0,1.636-1.344,2.965-2.996,2.965h-8.656
				c-1.653,0-2.997-1.329-2.997-2.965V39.545H7.327c-2.764,0-5.012-2.248-5.012-5.012c0-2.764,2.248-5.012,5.012-5.012h7.964V2.965
				C15.291,1.33,16.635,0,18.288,0h8.656c1.652,0,2.996,1.33,2.996,2.965v21.718L48.486,1.141C49.048,0.427,49.931,0,50.848,0
				h10.746c1.12,0,2.137,0.61,2.654,1.592c0.55,1.025,0.433,2.29-0.305,3.212L44.179,29.521h15.517c2.764,0,5.012,2.248,5.012,5.012
				c0,2.764-2.248,5.012-5.012,5.012h-16.14l22.423,24.571c0.818,0.905,1.004,2.187,0.479,3.271
				C65.949,68.411,64.891,69.066,63.754,69.066z M7.328,32.521c-1.109,0-2.012,0.902-2.012,2.012c0,1.109,0.902,2.012,2.012,2.012
				h9.464c0.829,0,1.5,0.672,1.5,1.5v28.059l8.653-0.036l-0.004-22.603c0-0.817,0.656-1.486,1.475-1.5l1.262-0.021
				c0.408-0.011,0.818,0.159,1.107,0.461L53.5,66.068l10.255-0.001c0.003,0,0.009-0.003,0.012-0.005L39.048,39.055
				c-0.401-0.438-0.505-1.071-0.265-1.615c0.239-0.545,0.777-0.896,1.373-0.896h19.539c1.108,0,2.012-0.901,2.012-2.012
				c0-1.11-0.902-2.012-2.012-2.012H41.058c-0.577,0-1.103-0.33-1.353-0.85c-0.25-0.521-0.18-1.137,0.182-1.587L61.6,2.929
				L50.848,2.998l-21.23,26.939c-0.396,0.501-1.064,0.697-1.669,0.488c-0.604-0.209-1.009-0.778-1.009-1.417V2.965L18.289,3
				l0.003,28.021c0,0.828-0.671,1.5-1.5,1.5H7.328z"/>
		</g>
	</g>
</g>
</svg>