<?xml version="1.0" encoding="iso-8859-1"?>
<!-- Uploaded to: SVG Repo, www.svgrepo.com, Generator: SVG Repo Mixer Tools -->
<!DOCTYPE svg PUBLIC "-//W3C//DTD SVG 1.1//EN" "http://www.w3.org/Graphics/SVG/1.1/DTD/svg11.dtd">
<svg fill="#000000" version="1.1" id="Capa_1" xmlns="http://www.w3.org/2000/svg" xmlns:xlink="http://www.w3.org/1999/xlink" 
	 width="800px" height="800px" viewBox="0 0 67.778 67.777"
	 xml:space="preserve">
<g>
	<g>
		<g>
			<path d="M50.139,67.777h-8.176c-0.507,0-1-0.207-1.354-0.566c-0.342-0.335-0.549-0.828-0.549-1.335l0.008-45.478
				c0-1.048,0.854-1.901,1.9-1.901h7.137c1.048,0,1.9,0.853,1.9,1.901v2.25c2.547-2.123,6.775-4.3,13.414-4.3
				c1.049,0,1.901,0.853,1.901,1.902v7.115c0,0.511-0.201,0.991-0.565,1.351c-0.336,0.343-0.83,0.55-1.336,0.55H61.6
				c-4.842,0.121-8.215,3.349-9.215,8.855c-0.168,1.01-0.344,2.234-0.344,3.512v24.242C52.042,66.924,51.188,67.777,50.139,67.777z
				 M43.061,64.777h5.98V41.633c0-1.494,0.196-2.875,0.389-4.025c1.242-6.847,5.891-11.185,12.133-11.34h1.76v-4.896
				c-7.946,0.333-11.419,4.236-12.568,5.957c-0.369,0.549-1.057,0.792-1.684,0.602c-0.633-0.192-1.064-0.775-1.064-1.436v-4.997
				h-4.938L43.061,64.777z M35.889,67.777h-7.188c-0.691,0-1.362-0.284-1.841-0.78l-14.237-14.83v13.084
				c0,1.394-1.144,2.526-2.549,2.526h-6.07c-1.405,0-2.549-1.133-2.549-2.526V2.526C1.456,1.133,2.6,0,4.005,0h6.07
				c1.405,0,2.549,1.133,2.549,2.526V34.91l12.208-15.495c0.474-0.606,1.225-0.971,2.007-0.971h7.537
				c0.946,0,1.811,0.517,2.256,1.348c0.473,0.881,0.371,1.961-0.26,2.75L19.552,43.58L37.78,63.555
				c0.697,0.771,0.855,1.865,0.406,2.793C37.754,67.221,36.854,67.777,35.889,67.777z M28.888,64.777h5.944l-18.36-20.121
				c-0.497-0.545-0.524-1.372-0.063-1.948l17-21.263h-6.356l-14.75,18.721c-0.396,0.502-1.066,0.698-1.67,0.489
				s-1.009-0.778-1.009-1.417V2.999H4.456v61.777h5.168V49.374c0-0.819,0.656-1.485,1.476-1.5l0.885-0.015
				c0.41,0.001,0.818,0.16,1.106,0.461L28.888,64.777z"/>
		</g>
	</g>
</g>
</svg>