<?xml version="1.0" encoding="iso-8859-1"?>
<!-- Uploaded to: SVG Repo, www.svgrepo.com, Generator: SVG Repo Mixer Tools -->
<!DOCTYPE svg PUBLIC "-//W3C//DTD SVG 1.1//EN" "http://www.w3.org/Graphics/SVG/1.1/DTD/svg11.dtd">
<svg fill="#000000" version="1.1" id="Capa_1" xmlns="http://www.w3.org/2000/svg" xmlns:xlink="http://www.w3.org/1999/xlink" 
	 width="800px" height="800px" viewBox="0 0 82.077 82.078"
	 xml:space="preserve">
<g>
	<g>
		<g>
			<path d="M39.717,64.214c-5.746,0-10.371-2.342-13.179-6.314v3.24c0,1.379-1.122,2.5-2.5,2.5H2.5c-1.378,0-2.5-1.121-2.5-2.5
				V22.431c0-1.378,1.122-2.5,2.5-2.5h4.997c1.378,0,2.5,1.122,2.5,2.5v32.018h14.041c0.249,0,0.489,0.037,0.716,0.104
				c-0.786-2.037-1.206-4.339-1.206-6.851c0-10.298,6.389-17.49,15.538-17.49c9.662,0,13.987,7.833,13.987,15.595
				c0,1.028-0.097,1.854-0.161,2.4l-0.027,0.234c-0.14,1.264-1.207,2.22-2.484,2.22H33.693c0.997,3.795,4.113,4.649,6.713,4.649
				c3.343,0,5.205-0.596,6.72-1.237c0.67-0.284,1.452-0.257,2.101,0.067c0.664,0.336,1.139,0.938,1.309,1.656l0.861,3.617
				c0.277,1.162-0.312,2.364-1.402,2.857C48.027,63.158,44.65,64.214,39.717,64.214z M39.085,33.21
				c-7.382,0-12.538,5.958-12.538,14.49c0,8.335,5.046,13.514,13.169,13.514c4.089,0,6.921-0.787,8.663-1.514l-0.629-2.643
				c-1.71,0.674-3.848,1.25-7.345,1.25c-2.155,0-9.243-0.649-9.977-9.018c-0.037-0.419,0.104-0.834,0.388-1.145
				c0.284-0.31,0.686-0.486,1.106-0.486h18.031c0.054-0.473,0.118-1.113,0.118-1.855C50.072,39.996,47.195,33.21,39.085,33.21z
				 M3,60.64h20.538v-3.192H8.497c-0.829,0-1.5-0.671-1.5-1.5V22.931H3V60.64z M79.575,63.64H73.43
				c-0.802,0-1.561-0.389-2.029-1.039l-7.646-10.623v9.162c0,1.379-1.122,2.5-2.5,2.5h-4.997c-1.378,0-2.5-1.121-2.5-2.5V20.363
				c0-1.378,1.122-2.5,2.5-2.5h4.997c1.378,0,2.5,1.122,2.5,2.5v18.812l6.336-7.451c0.477-0.56,1.17-0.88,1.904-0.88h6.088
				c0.997,0,1.896,0.591,2.294,1.507c0.396,0.917,0.21,1.979-0.474,2.706l-9.303,9.9l10.978,14.689
				c0.569,0.763,0.659,1.765,0.233,2.615S80.527,63.64,79.575,63.64z M73.686,60.64h4.892L67.443,45.744
				c-0.437-0.583-0.391-1.395,0.107-1.925l9.375-9.975h-4.701l-8.017,9.427c-0.226,0.272-0.5,0.608-0.787,0.965
				c-0.397,0.494-1.065,0.686-1.667,0.474c-0.6-0.211-1.001-0.778-1.001-1.415V20.863h-3.997V60.64h3.997v-9.568
				c0-0.371,0.138-0.729,0.386-1.003l1.498-1.664c0.303-0.337,0.739-0.521,1.195-0.494c0.453,0.024,0.871,0.253,1.137,0.621
				L73.686,60.64z M44.656,45.042h-12.54c-0.457,0-0.888-0.208-1.173-0.565c-0.285-0.356-0.391-0.823-0.29-1.269
				c0.814-3.567,3.351-7.379,8.03-7.379c2.139,0,3.879,0.668,5.174,1.986c1.654,1.685,2.16,3.978,2.293,5.604
				c0.035,0.418-0.107,0.831-0.391,1.14S45.075,45.042,44.656,45.042z M34.193,42.042h8.679c-0.212-0.739-0.565-1.524-1.155-2.124
				c-0.719-0.733-1.712-1.089-3.034-1.089C36.225,38.83,34.895,40.503,34.193,42.042z"/>
		</g>
	</g>
</g>
</svg>