<?xml version="1.0" encoding="iso-8859-1"?>
<!-- Uploaded to: SVG Repo, www.svgrepo.com, Generator: SVG Repo Mixer Tools -->
<!DOCTYPE svg PUBLIC "-//W3C//DTD SVG 1.1//EN" "http://www.w3.org/Graphics/SVG/1.1/DTD/svg11.dtd">
<svg fill="#000000" version="1.1" id="Capa_1" xmlns="http://www.w3.org/2000/svg" xmlns:xlink="http://www.w3.org/1999/xlink" 
	 width="800px" height="800px" viewBox="0 0 77.19 77.19" xml:space="preserve"
	>
<g>
	<g>
		<g>
			<path d="M40.27,72.252c-14.083,0-23.184-9.303-23.184-23.697c0-14.863,9.18-25.244,22.324-25.244
				c14.64,0,19.835,12.026,19.835,22.324c0,1.738-0.102,3.094-0.311,4.145c-0.258,1.281-1.392,2.211-2.695,2.211l-26.112-0.076
				c1.307,7.715,7.463,8.918,11.172,8.918c5.195,0,8.207-0.938,10.471-1.857c0.717-0.293,1.568-0.262,2.27,0.09
				c0.713,0.362,1.229,1.006,1.426,1.77l1.375,5.322c0.334,1.299-0.311,2.642-1.529,3.192C52.375,70.673,47.385,72.252,40.27,72.252
				z M39.41,26.311c-11.378,0-19.324,9.147-19.324,22.244c0,12.573,7.922,20.697,20.183,20.697c6.427,0,10.924-1.367,13.613-2.553
				l-1.25-4.84c-2.502,0.993-5.822,1.973-11.332,1.973c-3.139,0-13.447-0.961-14.358-13.313c-0.031-0.417,0.114-0.827,0.398-1.133
				c0.284-0.306,0.682-0.478,1.098-0.478c0.001,0,0.003,0,0.004,0l27.588,0.078c0.146-0.83,0.215-1.932,0.215-3.354
				C56.245,36.721,51.836,26.311,39.41,26.311z M73.411,71.394h-7.555c-1.517,0-2.749-1.231-2.749-2.748V27.089
				c0-1.516,1.232-2.748,2.749-2.748h7.555c1.517,0,2.749,1.232,2.749,2.748v41.557C76.159,70.161,74.928,71.394,73.411,71.394z
				 M66.107,68.394h7.052V27.341h-7.052V68.394z M10.303,71.394H2.748C1.233,71.394,0,70.163,0,68.646V7.686
				C0,6.17,1.233,4.938,2.748,4.938h7.555c1.516,0,2.749,1.232,2.749,2.748v60.96C13.052,70.161,11.819,71.394,10.303,71.394z
				 M3,68.394h7.052V7.938H3V68.394z M47.918,43.997H28.676c-0.449,0-0.874-0.2-1.159-0.547c-0.285-0.348-0.399-0.805-0.312-1.244
				c1.052-5.312,4.653-10.988,11.604-10.988c3,0,5.447,0.942,7.271,2.8c2.592,2.639,3.202,6.384,3.334,8.381
				c0.028,0.414-0.117,0.821-0.4,1.124S48.333,43.997,47.918,43.997z M30.623,40.997h15.602c-0.281-1.555-0.907-3.476-2.284-4.878
				c-1.239-1.262-2.966-1.901-5.13-1.901C33.72,34.217,31.522,38.286,30.623,40.997z M69.549,22.197h-0.086
				c-4.26,0-7.472-3.286-7.472-7.644c0-4.307,3.285-7.554,7.642-7.554c4.309,0,7.558,3.247,7.558,7.554
				C77.19,18.91,73.905,22.197,69.549,22.197z M69.633,9.999c-2.689,0-4.642,1.915-4.642,4.554c0,2.69,1.88,4.644,4.472,4.644h0.086
				c2.689,0,4.642-1.953,4.642-4.644C74.19,11.914,72.273,9.999,69.633,9.999z"/>
		</g>
	</g>
</g>
</svg>