<?xml version="1.0" encoding="iso-8859-1"?>
<!-- Uploaded to: SVG Repo, www.svgrepo.com, Generator: SVG Repo Mixer Tools -->
<!DOCTYPE svg PUBLIC "-//W3C//DTD SVG 1.1//EN" "http://www.w3.org/Graphics/SVG/1.1/DTD/svg11.dtd">
<svg fill="#000000" version="1.1" id="Capa_1" xmlns="http://www.w3.org/2000/svg" xmlns:xlink="http://www.w3.org/1999/xlink" 
	 width="800px" height="800px" viewBox="0 0 94.753 94.753"
	 xml:space="preserve">
<g>
	<g>
		<g>
			<g>
				<path d="M70.6,73.945c-0.641,0-1.273-0.01-1.93-0.027l-12.285-0.036c-0.699,0-1.361-0.272-1.86-0.769
					c-0.506-0.506-0.782-1.172-0.782-1.881v-48c0-1.46,1.188-2.647,2.648-2.647l14.902-0.002c6.898,0,23.056,0,23.455,14.283
					c0.12,4.341-1.81,8.012-5.479,10.521c3.512,2.36,5.314,6.347,5.367,11.884c0.039,4.236-1.306,7.762-3.997,10.479
					C86.565,71.861,79.823,73.945,70.6,73.945z M56.74,70.882l11.976,0.036c0.665,0.019,1.271,0.028,1.884,0.028
					c8.396,0,14.42-1.786,17.91-5.309c2.107-2.127,3.159-4.933,3.128-8.339c-0.051-5.323-1.792-8.569-5.481-10.214l-0.615-0.273
					c-0.528-0.235-0.874-0.754-0.89-1.333c-0.015-0.578,0.306-1.113,0.82-1.375l0.601-0.305c3.875-1.968,5.785-4.945,5.678-8.847
					c-0.228-8.076-6.153-11.369-20.457-11.369L56.74,23.585V70.882z M75.623,65.288c-0.244,0-0.412-0.009-0.616-0.019h-9.596
					c-0.828,0-1.5-0.672-1.5-1.5V51.792c0-0.399,0.158-0.782,0.441-1.063c0.282-0.281,0.673-0.446,1.065-0.437l9.779,0.047
					l0.133-0.001c5.134,0,8.444,2.852,8.444,7.266c0.042,2.268-0.595,4.101-1.892,5.422C79.88,65.066,76.838,65.288,75.623,65.288z
					 M66.911,62.269l8.16,0.002c0.234,0.01,0.363,0.016,0.552,0.016c0.651,0,2.878-0.1,4.121-1.364
					c0.712-0.726,1.06-1.833,1.032-3.293c-0.001-3.876-3.803-4.292-5.437-4.292l-0.14,0.001l-8.29-0.04L66.911,62.269L66.911,62.269
					z M75.287,43.063c-0.097,0-0.192-0.003-0.313-0.009l-9.562,0.001c-0.828,0-1.5-0.671-1.5-1.5V29.604
					c0-0.398,0.158-0.78,0.439-1.062c0.282-0.282,0.674-0.424,1.063-0.438l9.998,0.02c5.08,0,8.363,2.852,8.363,7.265
					c0.042,2.268-0.595,4.101-1.891,5.422c-1.864,1.898-4.12,2.072-5.767,2.2l-0.421,0.033
					C75.539,43.058,75.414,43.063,75.287,43.063z M66.911,40.056l8.376,0.008c0.051,0,0.101-0.003,0.168-0.009l0.431-0.034
					c1.433-0.11,2.783-0.215,3.859-1.311c0.711-0.725,1.059-1.833,1.031-3.292c-0.001-3.877-3.755-4.292-5.367-4.292l-8.498-0.017
					V40.056z"/>
			</g>
		</g>
		<g>
			<g>
				<path d="M3.53,74.169c-1.323,0-2.454-0.99-2.629-2.302l-0.879-6.743c-0.184-1.412,0.771-2.71,2.171-2.955
					c1.571-0.277,2.835-0.869,3.39-1.333c3.399-2.5,3.984-7.921,3.984-18.41V23.391c0-1.462,1.189-2.652,2.651-2.652H45.02
					c1.462,0,2.651,1.189,2.651,2.652v48.125c0,1.463-1.189,2.651-2.651,2.651h-8.493c-1.462,0-2.651-1.188-2.651-2.651V32.778
					H22.974v9.648c0,14.021-1.448,23.667-8.647,28.407C11.402,73.14,8.069,74.169,3.53,74.169z M3.04,65.064l0.796,6.104
					c3.73-0.042,6.339-0.865,8.677-2.726c0.037-0.03,0.075-0.059,0.115-0.084c6.117-3.985,7.346-12.877,7.346-25.932V31.278
					c0-0.829,0.671-1.5,1.5-1.5h13.902c0.828,0,1.5,0.671,1.5,1.5v39.888h7.796V23.738H12.567v18.688
					c0,11.519-0.769,17.563-5.134,20.771C6.482,63.996,4.834,64.702,3.04,65.064z"/>
			</g>
		</g>
	</g>
</g>
</svg>