<?xml version="1.0" encoding="iso-8859-1"?>
<!-- Uploaded to: SVG Repo, www.svgrepo.com, Generator: SVG Repo Mixer Tools -->
<!DOCTYPE svg PUBLIC "-//W3C//DTD SVG 1.1//EN" "http://www.w3.org/Graphics/SVG/1.1/DTD/svg11.dtd">
<svg fill="#000000" version="1.1" id="Capa_1" xmlns="http://www.w3.org/2000/svg" xmlns:xlink="http://www.w3.org/1999/xlink" 
	 width="800px" height="800px" viewBox="0 0 76.935 76.934"
	 xml:space="preserve">
<g>
	<g>
		<g>
			<path d="M61.18,68.504c-4.133,0-8.209-1.003-11.188-2.752c-0.021,0.035-0.045,0.072-0.068,0.107
				c-0.438,0.618-1.123,0.974-1.85,0.974h-7.146c-0.943,0-1.79-0.597-2.106-1.484l-7.859-21.707h-8.606v20.953
				c0,1.233-1.003,2.238-2.236,2.238h-6.908c-1.234,0-2.238-1.005-2.238-2.238V29.369H4.037C1.811,29.369,0,27.557,0,25.33
				c0-2.226,1.812-4.037,4.037-4.037h6.936V10.71c0-1.232,1.003-2.235,2.236-2.235L26.466,8.43c7.973,0,13.213,1.526,16.995,4.948
				c2.266,1.997,3.814,4.718,4.515,7.915h6.177c2.227,0,4.037,1.812,4.037,4.037c0,1.103-0.443,2.104-1.162,2.834
				c2.129-0.99,4.639-1.535,7.416-1.535c3.556,0,7.28,0.95,9.969,2.541l0.529,0.313c0.764,0.459,1.104,1.394,0.817,2.227
				l-2.104,6.125c-0.187,0.541-0.619,0.977-1.16,1.163c-0.498,0.179-1.135,0.117-1.617-0.187l-0.807-0.51
				c-0.772-0.489-2.877-1.624-5.772-1.624c-1.495,0-3.24,0.563-3.24,2.15c0,0.932,0.356,1.728,4.976,3.486
				c7.438,2.832,10.901,6.978,10.901,13.043C76.934,63.222,70.604,68.504,61.18,68.504z M51.763,63.308
				c2.506,1.397,5.919,2.196,9.417,2.196c7.867,0,12.754-3.887,12.754-10.145c0-4.783-2.683-7.847-8.97-10.24
				c-4.581-1.744-6.907-3.196-6.907-6.291c0-3.031,2.566-5.149,6.24-5.149c3.27,0,5.766,1.15,6.979,1.849l1.349-3.925
				c-2.224-1.239-5.255-1.974-8.181-1.974c-6.912,0-11.74,4.082-11.74,9.926c0,4.162,3.121,7.477,9.023,9.582
				c4.192,1.549,6.781,3.225,6.781,6.803c0,2.701-1.887,5.588-7.184,5.588c-3.188,0-6.313-1.211-8.207-2.346L51.763,63.308z
				 M41.463,63.833h5.516L38.29,40.608c-0.223-0.596-0.046-1.267,0.441-1.676c4.239-3.558,6.075-6.704,6.548-11.22
				c0.08-0.764,0.725-1.344,1.492-1.344h7.381c0.571,0,1.037-0.466,1.037-1.039c0-0.572-0.466-1.037-1.037-1.037h-7.431
				c-0.746,0-1.38-0.549-1.485-1.288c-0.434-3.04-1.737-5.595-3.773-7.39c-3.204-2.898-7.823-4.186-14.992-4.186L13.973,11.47
				v11.321c0,0.828-0.672,1.5-1.5,1.5H4.037C3.465,24.292,3,24.756,3,25.328c0,0.573,0.465,1.039,1.037,1.039h8.436
				c0.828,0,1.5,0.672,1.5,1.5v35.964h5.383V42.142c0-0.827,0.672-1.5,1.5-1.5h11.158c0.632,0,1.195,0.396,1.41,0.989L41.463,63.833
				z M41.466,40.534l7.784,20.812l1.472-4.479c0.185-0.551,0.597-0.977,1.134-1.178c0.678-0.232,1.223-0.119,1.702,0.209l0.798,0.52
				c1.553,1.017,4.394,2.109,6.969,2.109c1.563,0,4.185-0.336,4.185-2.588c0-1.291-0.345-2.334-4.806-3.981
				c-9.088-3.243-11-8.535-11-12.402c0-4.387,2.016-8.012,5.384-10.295c-0.3,0.071-0.612,0.109-0.935,0.109h-6.069
				C47.355,33.711,45.359,37.071,41.466,40.534z M27.188,36.924h-6.332c-0.828,0-1.5-0.672-1.5-1.5v-7.555
				c0-0.828,0.672-1.5,1.5-1.5h17.49c0.446,0,0.87,0.199,1.154,0.543c0.285,0.343,0.402,0.796,0.319,1.234
				C38.8,33.561,33.96,36.924,27.188,36.924z M22.356,33.924h4.832c4.466,0,7.735-1.67,9.109-4.555H22.356V33.924z M38.047,24.293
				H20.856c-0.828,0-1.5-0.672-1.5-1.5v-6.062c0-0.828,0.671-1.499,1.499-1.5l6.09-0.004c6.741,0.075,11.068,2.534,12.531,7.108
				c0.146,0.456,0.065,0.955-0.217,1.342C38.976,24.065,38.526,24.293,38.047,24.293z M22.356,21.293h13.23
				c-1.578-1.989-4.478-3.019-8.657-3.065l-4.573,0.003V21.293z"/>
		</g>
	</g>
</g>
</svg>