<?xml version="1.0" encoding="iso-8859-1"?>
<!-- Uploaded to: SVG Repo, www.svgrepo.com, Generator: SVG Repo Mixer Tools -->
<!DOCTYPE svg PUBLIC "-//W3C//DTD SVG 1.1//EN" "http://www.w3.org/Graphics/SVG/1.1/DTD/svg11.dtd">
<svg fill="#000000" version="1.1" id="Capa_1" xmlns="http://www.w3.org/2000/svg" xmlns:xlink="http://www.w3.org/1999/xlink" 
	 width="800px" height="800px" viewBox="0 0 76.935 76.934"
	 xml:space="preserve">
<g>
	<g>
		<g>
			<path d="M61.181,68.504c-4.134,0-8.21-1.003-11.187-2.753c-0.022,0.036-0.045,0.073-0.069,0.108
				c-0.437,0.617-1.122,0.974-1.849,0.974h-7.149c-0.943,0-1.789-0.597-2.105-1.484l-7.86-21.707h-8.607v20.953
				c0,1.233-1.003,2.238-2.236,2.238h-6.907c-1.234,0-2.238-1.005-2.238-2.238V29.369H4.037C1.811,29.369,0,27.557,0,25.33
				c0-2.226,1.811-4.037,4.037-4.037h6.937V10.71c0-1.232,1.003-2.235,2.236-2.235L26.466,8.43c7.973,0,13.213,1.526,16.996,4.948
				c2.267,1.998,3.815,4.718,4.514,7.915h6.177c2.227,0,4.037,1.812,4.037,4.037c0,1.103-0.443,2.104-1.162,2.833
				c2.127-0.989,4.638-1.534,7.416-1.534c3.553,0,7.279,0.95,9.969,2.541l0.529,0.314c0.772,0.463,1.106,1.375,0.819,2.222
				l-2.106,6.129c-0.187,0.544-0.623,0.979-1.166,1.165c-0.481,0.173-1.125,0.117-1.608-0.188l-0.81-0.511
				c-0.771-0.489-2.873-1.624-5.771-1.624c-1.495,0-3.241,0.563-3.241,2.15c0,0.933,0.357,1.728,4.976,3.486
				c7.438,2.832,10.901,6.977,10.901,13.043C76.934,63.222,70.604,68.504,61.181,68.504z M51.764,63.308
				c2.506,1.397,5.918,2.196,9.417,2.196c7.867,0,12.753-3.887,12.753-10.145c0-4.785-2.683-7.847-8.969-10.24
				c-4.582-1.744-6.908-3.196-6.908-6.291c0-3.031,2.566-5.149,6.241-5.149c3.269,0,5.765,1.15,6.978,1.849l1.349-3.925
				c-2.224-1.239-5.257-1.974-8.181-1.974c-6.912,0-11.74,4.082-11.74,9.926c0,4.163,3.121,7.477,9.022,9.582
				c4.193,1.549,6.782,3.225,6.782,6.803c0,2.701-1.887,5.588-7.184,5.588c-3.188,0-6.313-1.211-8.207-2.346L51.764,63.308z
				 M41.464,63.833h5.513L38.29,40.608c-0.223-0.596-0.046-1.267,0.44-1.676c4.24-3.557,6.076-6.703,6.549-11.22
				c0.08-0.764,0.724-1.344,1.492-1.344h7.381c0.571,0,1.037-0.466,1.037-1.039c0-0.572-0.466-1.037-1.037-1.037h-7.432
				c-0.747,0-1.38-0.55-1.484-1.289c-0.434-3.038-1.738-5.594-3.774-7.389c-3.205-2.898-7.824-4.186-14.993-4.186L13.972,11.47
				v11.321c0,0.828-0.671,1.5-1.5,1.5H4.037C3.465,24.292,3,24.756,3,25.328c0,0.573,0.465,1.039,1.037,1.039h8.437
				c0.829,0,1.5,0.672,1.5,1.5v35.964h5.381V42.142c0-0.827,0.671-1.5,1.5-1.5h11.159c0.631,0,1.195,0.396,1.41,0.989L41.464,63.833
				z M41.467,40.534l7.784,20.813l1.471-4.479c0.187-0.553,0.599-0.979,1.138-1.18c0.672-0.227,1.215-0.117,1.693,0.207l0.803,0.522
				c1.553,1.017,4.395,2.108,6.969,2.108c1.563,0,4.185-0.336,4.185-2.586c0-1.293-0.345-2.336-4.806-3.982
				c-9.088-3.243-11-8.535-11-12.402c0-4.387,2.015-8.012,5.383-10.295c-0.299,0.071-0.612,0.109-0.934,0.109h-6.07
				C47.355,33.712,45.359,37.072,41.467,40.534z M27.188,36.924h-6.333c-0.829,0-1.5-0.672-1.5-1.5v-7.555
				c0-0.828,0.671-1.5,1.5-1.5h17.49c0.446,0,0.87,0.199,1.155,0.543c0.285,0.343,0.402,0.796,0.319,1.234
				C38.8,33.561,33.96,36.924,27.188,36.924z M22.355,33.924h4.833c4.466,0,7.734-1.67,9.109-4.555H22.355V33.924z M38.047,24.293
				H20.855c-0.829,0-1.5-0.672-1.5-1.5v-6.062c0-0.828,0.671-1.499,1.499-1.5l6.09-0.004c6.742,0.075,11.068,2.534,12.531,7.108
				c0.146,0.456,0.065,0.955-0.217,1.342C38.976,24.064,38.526,24.293,38.047,24.293z M22.355,21.293h13.23
				c-1.577-1.989-4.477-3.019-8.657-3.065l-4.573,0.003V21.293z"/>
		</g>
	</g>
</g>
</svg>