<?xml version="1.0" encoding="iso-8859-1"?>
<!-- Uploaded to: SVG Repo, www.svgrepo.com, Generator: SVG Repo Mixer Tools -->
<!DOCTYPE svg PUBLIC "-//W3C//DTD SVG 1.1//EN" "http://www.w3.org/Graphics/SVG/1.1/DTD/svg11.dtd">
<svg fill="#000000" version="1.1" id="Capa_1" xmlns="http://www.w3.org/2000/svg" xmlns:xlink="http://www.w3.org/1999/xlink" 
	 width="800px" height="800px" viewBox="0 0 71.668 71.668"
	 xml:space="preserve">
<g>
	<g>
		<g>
			<path d="M16.935,70.021c-2.158,0-3.926-0.748-5.252-2.225c-1.313-1.455-1.98-3.598-1.98-6.364V31.289H3.5
				c-1.93,0-3.5-1.57-3.5-3.5c0-1.93,1.57-3.5,3.5-3.5h6.203v-3.667H3.5c-1.93,0-3.5-1.57-3.5-3.5c0-1.93,1.57-3.5,3.5-3.5h6.203
				v-3.25c0-3.085,0.738-5.337,2.194-6.693c1.443-1.348,3.731-2.031,6.8-2.031h17.215c4.984,0,8.499,0.369,11.395,1.197
				c3.022,0.839,5.014,2.35,6.715,3.856c2.019,1.787,3.576,4.008,4.627,6.6c0.043,0.105,0.084,0.213,0.123,0.321h9.396
				c1.93,0,3.5,1.57,3.5,3.5c0,1.93-1.57,3.5-3.5,3.5h-7.99c0.028,0.488,0.043,0.952,0.043,1.408c0,0.746-0.031,1.494-0.096,2.259
				h8.043c1.93,0,3.5,1.57,3.5,3.5c0,1.93-1.57,3.5-3.5,3.5h-9.656c-1.08,2.582-2.66,4.753-4.705,6.466
				c-4.41,3.688-9.93,5.334-17.895,5.334h-11.79v18.252c0,2.799-0.683,4.965-2.029,6.438C20.733,69.267,18.998,70.021,16.935,70.021
				z M3.499,27.289c-0.275,0-0.5,0.225-0.5,0.5s0.225,0.5,0.5,0.5h7.703c0.828,0,1.5,0.672,1.5,1.5v31.643
				c0,2.002,0.407,3.468,1.21,4.356c0.756,0.842,1.716,1.231,3.022,1.231c1.22,0,2.155-0.401,2.943-1.265
				c0.825-0.903,1.244-2.389,1.244-4.414V41.589c0-0.828,0.672-1.5,1.5-1.5H35.91c7.211,0,12.137-1.43,15.97-4.635
				c1.886-1.58,3.296-3.655,4.188-6.168c0.213-0.598,0.779-0.997,1.414-0.997h10.684c0.275,0,0.5-0.225,0.5-0.5s-0.225-0.5-0.5-0.5
				h-9.721c-0.436,0-0.848-0.188-1.133-0.516s-0.414-0.764-0.354-1.193c0.174-1.237,0.259-2.398,0.259-3.55
				c0-0.828-0.056-1.698-0.174-2.738c-0.049-0.425,0.087-0.85,0.371-1.169c0.284-0.318,0.69-0.501,1.119-0.501h9.631
				c0.274,0,0.5-0.225,0.5-0.5s-0.226-0.5-0.5-0.5H57.686c-0.651,0-1.229-0.42-1.429-1.039l-0.075-0.234
				c-0.099-0.313-0.195-0.624-0.316-0.922c-0.875-2.157-2.166-4.002-3.836-5.479c-1.701-1.508-3.221-2.57-5.538-3.214
				c-2.627-0.751-5.888-1.085-10.581-1.085H18.696c-2.251,0-3.895,0.424-4.754,1.226c-0.812,0.756-1.24,2.312-1.24,4.499v4.75
				c0,0.828-0.672,1.5-1.5,1.5H3.499c-0.275,0-0.5,0.225-0.5,0.5s0.225,0.5,0.5,0.5h7.703c0.828,0,1.5,0.672,1.5,1.5v6.667
				c0,0.828-0.672,1.5-1.5,1.5L3.499,27.289L3.499,27.289z M32.659,34.967H22.622c-0.828,0-1.5-0.672-1.5-1.5v-3.679
				c0-0.828,0.672-1.5,1.5-1.5h22.767c0.604,0,1.151,0.364,1.385,0.924c0.231,0.559,0.105,1.203-0.32,1.633
				c-1.352,1.361-3.072,2.375-5.117,3.015C38.979,34.596,36.06,34.967,32.659,34.967z M24.122,31.967h8.537
				c2.588,0,4.841-0.228,6.717-0.679H24.122V31.967z M47.682,27.289h-25.06c-0.828,0-1.5-0.672-1.5-1.5v-6.667
				c0-0.828,0.672-1.5,1.5-1.5h25.125c0.69,0,1.291,0.471,1.456,1.141c0.275,1.116,0.415,2.307,0.415,3.538
				c0,1.39-0.165,2.696-0.491,3.885C48.948,26.836,48.355,27.289,47.682,27.289z M24.122,24.289h22.349
				c0.098-0.627,0.147-1.292,0.147-1.988c0-0.575-0.037-1.137-0.111-1.679H24.122V24.289z M45.814,16.622H22.622
				c-0.828,0-1.5-0.672-1.5-1.5v-3.897c0-0.828,0.672-1.5,1.5-1.5h10.037c6.754,0,11.224,1.205,13.664,3.684
				c0.254,0.271,0.461,0.522,0.665,0.779c0.359,0.45,0.429,1.066,0.179,1.586C46.917,16.292,46.393,16.622,45.814,16.622z
				 M24.122,13.622h16.552c-2.027-0.595-4.707-0.897-8.015-0.897h-8.537V13.622z"/>
		</g>
	</g>
</g>
</svg>