<?xml version="1.0" encoding="iso-8859-1"?>
<!-- Uploaded to: SVG Repo, www.svgrepo.com, Generator: SVG Repo Mixer Tools -->
<!DOCTYPE svg PUBLIC "-//W3C//DTD SVG 1.1//EN" "http://www.w3.org/Graphics/SVG/1.1/DTD/svg11.dtd">
<svg fill="#000000" version="1.1" id="Capa_1" xmlns="http://www.w3.org/2000/svg" xmlns:xlink="http://www.w3.org/1999/xlink" 
	 width="800px" height="800px" viewBox="0 0 91.822 91.822"
	 xml:space="preserve">
<g>
	<g>
		<g>
			<g>
				<path d="M56.471,61.175h-0.003c-3.082,0-5.608-0.021-7.95-0.068c-3.928-0.08-6.6-2.681-7.332-7.136
					c-0.407-2.48-0.66-4.954-0.905-7.349c-0.183-1.778-0.406-3.97-0.698-5.977c-0.289-1.98-0.656-4.007-1.01-5.967l-0.02-0.105
					c-0.571-3.156-1.162-6.418-1.481-9.688C36.89,23,37.66,21.286,38.34,19.775c0.246-0.547,0.5-1.112,0.669-1.608
					c0.323-0.96,1.227-1.608,2.246-1.608c1.005,0,1.905,0.636,2.241,1.582c0.41,1.19,2.458,7.269,2.811,11.22
					c0.199,2.229,0.513,6.146,0.845,10.312c0.255,3.189,0.523,6.528,0.759,9.372c0.099,1.177,0.321,1.655,2.171,1.655l0.259-0.006
					c1.886-0.062,3.913-0.09,6.365-0.09c1.124,0,2.268,0.007,3.438,0.013l1.17,0.007c0.778,0.006,1.535,0.012,2.289,0.016
					c-0.006-0.027-0.011-0.056-0.018-0.082c-0.362-1.772-0.676-3.3-1.347-4.171c-2.825-3.675-2.898-7.21-0.226-10.812
					c0.391-0.53,0.991-0.876,1.648-0.945l0.171-0.012c0.004,0,0.009,0,0.013,0c0.63,0,1.16,0.191,1.584,0.538
					c4.503,3.759,5.689,9.757,4.717,23.777c-0.087,1.239-1.128,2.211-2.369,2.211c-1.925,0-3.83,0.008-5.723,0.016l-0.661,0.002
					C59.743,61.168,58.104,61.175,56.471,61.175z M41.194,20.74c-0.04,0.089-0.079,0.177-0.119,0.266
					c-0.577,1.285-1.123,2.499-1.018,3.59c0.308,3.146,0.887,6.347,1.446,9.441l0.02,0.106c0.359,1.986,0.73,4.038,1.027,6.069
					c0.301,2.07,0.528,4.297,0.712,6.087c0.242,2.365,0.49,4.795,0.884,7.185c0.495,3.018,1.986,4.573,4.432,4.622
					c2.32,0.047,4.828,0.068,7.891,0.068h0.003c1.63,0,3.264-0.007,4.907-0.015l0.662-0.002c1.704-0.007,3.419-0.014,5.149-0.016
					c0.785-11.839-0.028-17.167-3.164-20.216c-1.474,2.285-1.285,4.193,0.589,6.63c1.092,1.419,1.469,3.261,1.906,5.393
					c0.123,0.604,0.249,1.22,0.397,1.849c0.106,0.446,0.002,0.917-0.281,1.277c-0.285,0.359-0.72,0.569-1.178,0.569
					c-0.001,0-0.001,0-0.002,0c-1.395-0.002-2.748-0.012-4.112-0.021l-1.223-0.007c-1.164-0.006-2.302-0.013-3.42-0.013
					c-2.419,0-4.417,0.027-6.287,0.089l-0.307,0.007h-0.001c-3.212,0-4.947-1.482-5.19-4.407c-0.235-2.848-0.504-6.188-0.759-9.382
					c-0.332-4.154-0.644-8.059-0.843-10.282C43.078,26.948,41.905,22.97,41.194,20.74z"/>
			</g>
		</g>
		<g>
			<g>
				<path d="M59.6,72.65c-0.039,0-0.077-0.002-0.116-0.005l-0.101-0.008c-0.526-0.01-1.146-0.312-1.574-0.805l-2.358-2.689
					l-2.957,2.688c-0.443,0.411-1.074,0.63-1.697,0.614c-0.664-0.034-1.268-0.325-1.694-0.817l-3.768-4.378
					c-0.845-0.984-0.756-2.438,0.202-3.308l3.778-3.438c0.436-0.397,1.005-0.618,1.6-0.618c0.773,0.039,1.391,0.34,1.815,0.847
					l2.338,2.77l2.988-2.756c0.427-0.397,1.015-0.63,1.605-0.63c0.77,0.039,1.359,0.319,1.79,0.812l3.71,4.267
					c0.842,0.969,0.769,2.414-0.168,3.291l-3.771,3.524C60.778,72.424,60.203,72.65,59.6,72.65z M56.729,66.052l2.916,3.325
					l2.855-2.668l-2.887-3.319L56.729,66.052z M48.003,65.753l2.948,3.427l2.818-2.562l-2.917-3.455L48.003,65.753z"/>
			</g>
		</g>
		<g>
			<g>
				<path d="M16.778,69.716c-2.048,0-3.9-0.104-5.664-0.319c-3.814-0.463-7.02-2.305-9.024-5.188
					c-1.967-2.832-2.571-6.385-1.702-10.004c0.247-1.105,1.657-6.959,4.633-11.155c0.597-0.91,1.725-1.502,2.913-1.502
					c0.687,0,1.343,0.194,1.898,0.562c0.776,0.507,1.312,1.296,1.501,2.215c0.188,0.914,0.01,1.85-0.506,2.63
					c-1.872,2.848-3.082,6.793-3.164,7.778c-0.051,0.606,0.052,1.196,0.713,2.098c1.338,1.821,4.083,2.789,7.939,2.798l1.71,0.009
					c0.648,0,1.419-0.011,2.175-0.079c4.329-0.4,6.861-1.306,8.211-2.936c1.288-1.556,1.709-4.131,1.326-8.105l-0.247-2.62
					c-0.657-6.99-1.336-14.219-2.95-21.011l-0.204-0.847c-0.925-3.81-1.798-7.409,0.616-11.554c0.354-0.612,0.963-1.033,1.667-1.149
					c0.046-0.007,0.092-0.013,0.138-0.016l0.138-0.01c0.646-0.049,1.229,0.187,1.689,0.6c0.409,0.361,0.8,0.737,1.176,1.104
					c0.63,0.612,1.222,1.187,1.788,1.525c2.313,1.375,3.556,2.947,3.798,4.804c0.257,1.938-0.6,3.859-2.694,6.036
					c-0.066,0.192-0.14,0.665-0.09,1.144c0.335,3.204,0.715,6.455,1.084,9.615l0.072,0.621c0.528,4.498,1.073,9.148,1.516,13.814
					c0.558,5.87-0.553,10.495-3.301,13.748c-2.574,3.051-6.497,4.792-11.66,5.175C20.266,69.643,18.468,69.716,16.778,69.716z
					 M7.933,44.547c-0.179,0-0.362,0.081-0.436,0.193C4.823,48.512,3.54,53.85,3.309,54.883c-0.672,2.799-0.229,5.494,1.243,7.613
					c1.509,2.17,3.968,3.563,6.923,3.921c3.021,0.368,6.338,0.399,10.575,0.085c4.327-0.319,7.554-1.706,9.589-4.117
					c2.208-2.613,3.084-6.492,2.606-11.529c-0.439-4.633-0.982-9.268-1.509-13.749l-0.072-0.623
					c-0.371-3.172-0.752-6.435-1.089-9.651c-0.112-1.084,0.038-2.64,0.836-3.456c1.445-1.482,2.087-2.675,1.958-3.645
					c-0.114-0.874-0.908-1.755-2.359-2.618c-0.869-0.52-1.616-1.244-2.338-1.944c-0.164-0.16-0.329-0.32-0.497-0.479
					c-1.337,2.826-0.707,5.421,0.074,8.642l0.206,0.854c1.665,7.001,2.354,14.335,3.02,21.428l0.247,2.617
					c0.465,4.818-0.172,8.093-2.002,10.304c-1.898,2.293-5.059,3.529-10.245,4.008c-0.877,0.082-1.734,0.094-2.458,0.094
					l-1.713-0.009c-4.845-0.011-8.424-1.4-10.348-4.021c-1.01-1.377-1.406-2.647-1.285-4.12c0.141-1.695,1.633-6.114,3.649-9.182
					c0.076-0.116,0.1-0.241,0.072-0.375c-0.028-0.134-0.101-0.242-0.21-0.313C8.098,44.557,8,44.547,7.933,44.547z"/>
			</g>
		</g>
		<g>
			<g>
				<path d="M70.436,80.52L70.436,80.52c-3.462-0.002-6.813-1.221-10.054-2.398c-1.388-0.505-2.899-1.055-4.303-1.447
					c-1.2-0.34-1.938-1.558-1.683-2.773c0.017-0.081,0.04-0.161,0.07-0.238c0.339-0.865,1.234-1.737,2.476-1.737
					c0.199,0,0.401,0.022,0.6,0.068c0.282,0.065,0.635,0.137,0.995,0.209c0.31,0.063,0.624,0.127,0.915,0.191
					c1.324,0.291,2.653,0.582,3.905,0.692c0.509,0.048,1.016,0.07,1.512,0.07c6.341,0,12.13-3.868,17.208-11.497
					c2.251-3.384,0.653-6.497-1.083-8.512c-0.216-0.25-0.396-0.491-0.58-0.735c-0.17-0.229-0.323-0.438-0.528-0.663
					c-0.023-0.025-0.046-0.053-0.068-0.081c-1.917-2.435-3.572-4.447-4.919-5.985c-0.835-0.954-1.249-2.177-1.166-3.443
					c0.084-1.268,0.655-2.425,1.608-3.26c0.841-0.734,1.944-1.14,3.109-1.14c1.4,0,2.71,0.577,3.592,1.582
					c2.262,2.58,4.725,5.703,5.99,7.335l0.483,0.578c0.119,0.137,3.403,3.982,3.305,10.522c-0.093,6.034-2.687,9.278-3.276,9.938
					c-5.099,7.31-9.992,12.263-17.26,12.698C70.994,80.51,70.716,80.52,70.436,80.52z M63.712,76.121
					c2.51,0.854,4.971,1.512,7.403,1.377c6.079-0.364,10.404-4.86,15.024-11.5c0.044-0.062,0.093-0.122,0.146-0.177
					c0.099-0.104,2.455-2.682,2.536-8.01c0.082-5.362-2.562-8.502-2.589-8.533l-0.535-0.642c-1.037-1.334-3.619-4.624-5.909-7.239
					c-0.562-0.64-1.824-0.728-2.472-0.162c-0.35,0.307-0.56,0.732-0.59,1.2c-0.031,0.468,0.121,0.918,0.428,1.269
					c1.375,1.568,3.053,3.61,4.989,6.067c0.259,0.289,0.461,0.558,0.66,0.824c0.154,0.208,0.296,0.396,0.463,0.592
					c3.364,3.903,3.842,8.325,1.31,12.133C78.613,72.279,71.601,76.6,63.712,76.121z"/>
			</g>
		</g>
	</g>
</g>
</svg>