<?xml version="1.0" encoding="iso-8859-1"?>
<!-- Uploaded to: SVG Repo, www.svgrepo.com, Generator: SVG Repo Mixer Tools -->
<!DOCTYPE svg PUBLIC "-//W3C//DTD SVG 1.1//EN" "http://www.w3.org/Graphics/SVG/1.1/DTD/svg11.dtd">
<svg fill="#000000" version="1.1" id="Capa_1" xmlns="http://www.w3.org/2000/svg" xmlns:xlink="http://www.w3.org/1999/xlink" 
	 width="800px" height="800px" viewBox="0 0 77.7 77.7" xml:space="preserve">
<g>
	<g>
		<g>
			<g>
				<path d="M42.48,62.238L42.48,62.238l-4.19-0.001c-0.754,0-1.46-0.295-1.987-0.827c-0.518-0.509-0.813-1.214-0.813-1.972
					l0.095-41.063c0.004-1.54,1.26-2.792,2.8-2.792h6.761c1.188,0,2.25,0.752,2.642,1.872l7.004,19.854
					c0.619,1.834,1.163,3.493,1.647,5.024c0.514-1.552,1.084-3.22,1.723-5.024l7.325-19.895c0.401-1.095,1.457-1.831,2.625-1.831
					h6.762c1.544,0,2.8,1.256,2.8,2.799L77.7,59.438c0,0.752-0.294,1.455-0.826,1.984c-0.519,0.521-1.223,0.814-1.974,0.814h-4.303
					c-0.752,0-1.455-0.293-1.981-0.823c-0.524-0.522-0.815-1.226-0.815-1.976l0.006-19.002l-7.143,19.713
					c-0.393,1.102-1.451,1.846-2.63,1.846h-4.021c-1.197,0-2.261-0.76-2.647-1.893l-6.099-17.867l0.002,16.816
					c0.019,0.127,0.026,0.256,0.026,0.387c0,1.525-1.229,2.771-2.749,2.799C42.525,62.238,42.502,62.238,42.48,62.238z
					 M38.49,59.237l2.775,0.001c0.231-0.322,0.59-0.55,1.004-0.606l-0.006-25.808c0-0.742,0.543-1.372,1.276-1.483
					c0.729-0.104,1.438,0.332,1.657,1.041c0.684,2.216,1.445,4.571,2.333,7.2l6.626,19.413h3.732l7.168-19.784
					c1.054-2.879,1.978-5.518,2.826-8.071c0.232-0.698,0.938-1.13,1.663-1.007c0.728,0.117,1.261,0.745,1.261,1.48l-0.01,27.624h3.9
					l-0.026-40.654h-6.42L60.98,38.326c-1.303,3.692-2.332,6.813-3.139,9.522c-0.188,0.637-0.773,1.071-1.438,1.071
					c-0.003,0-0.006,0-0.01,0c-0.666-0.004-1.252-0.448-1.434-1.09c-0.773-2.722-1.73-5.753-3.01-9.544L45,18.582h-6.419
					L38.49,59.237z"/>
			</g>
		</g>
		<g>
			<g>
				<path d="M29.56,62.129h-5.634c-0.876,0-1.662-0.554-1.958-1.377l-6.119-16.901H9.606v16.197c0,1.146-0.934,2.081-2.08,2.081
					H2.082C0.934,62.129,0,61.194,0,60.048V17.577c0-1.144,0.931-2.077,2.075-2.081l10.452-0.034c6.37,0,10.565,1.228,13.609,3.98
					c2.577,2.272,4.004,5.67,4.004,9.555c0,5.168-1.533,8.664-5.415,12.178l6.786,18.145c0.233,0.639,0.146,1.347-0.229,1.902
					C30.87,61.8,30.234,62.129,29.56,62.129z M24.572,59.129h3.665L21.55,41.252c-0.223-0.595-0.046-1.267,0.441-1.675
					c3.801-3.189,5.148-5.959,5.148-10.58c0-3.011-1.066-5.61-3.002-7.317c-2.465-2.229-6.04-3.218-11.606-3.218l-9.532,0.031
					v40.636h3.606V42.351c0-0.828,0.672-1.5,1.5-1.5H16.9c0.632,0,1.195,0.396,1.41,0.988L24.572,59.129z M13.097,38.556H8.106
					c-0.828,0-1.5-0.672-1.5-1.5V22.324c0-0.828,0.671-1.499,1.498-1.5l4.8-0.005c0.008,0,0.013,0,0.019,0
					c6.841,0.075,10.608,3.203,10.608,8.806C23.531,34.966,19.337,38.556,13.097,38.556z M9.606,35.555h3.491
					c4.585,0,7.434-2.272,7.434-5.931c0-1.415,0-5.719-7.633-5.806l-3.292,0.003V35.555z"/>
			</g>
		</g>
	</g>
</g>
</svg>