<?xml version="1.0" encoding="iso-8859-1"?>
<!-- Uploaded to: SVG Repo, www.svgrepo.com, Generator: SVG Repo Mixer Tools -->
<!DOCTYPE svg PUBLIC "-//W3C//DTD SVG 1.1//EN" "http://www.w3.org/Graphics/SVG/1.1/DTD/svg11.dtd">
<svg fill="#000000" version="1.1" id="Capa_1" xmlns="http://www.w3.org/2000/svg" xmlns:xlink="http://www.w3.org/1999/xlink" 
	 width="800px" height="800px" viewBox="0 0 81.918 81.918"
	 xml:space="preserve">
<g>
	<g>
		<g>
			<path d="M75.893,76.959H47.916c-14.337,0-26-11.664-26-26v-23c0-3.309,2.691-6,6-6s6,2.691,6,6v23c0,7.72,6.28,14,14,14h21.98
				l0.021-49.001c0-3.308,2.691-5.999,6-5.999s6,2.691,6,6l-0.025,55.005C81.889,74.271,79.197,76.959,75.893,76.959z
				 M27.916,24.959c-1.654,0-3,1.346-3,3v23c0,12.682,10.317,23,23,23h27.977c1.652,0,2.998-1.344,3-2.997l0.025-55.003
				c0-1.654-1.346-3-3-3s-3,1.346-3,3l-0.021,50.5c0,0.828-0.672,1.5-1.5,1.5H47.917c-9.374,0-17-7.626-17-17v-23
				C30.916,26.305,29.57,24.959,27.916,24.959z M6,71.959c-3.309,0-6-2.691-6-6l0.025-55.005c0.004-3.306,2.695-5.995,6-5.995
				h27.977c14.337,0,26,11.664,26,26v23c0,3.309-2.691,6-6,6s-6-2.691-6-6v-23c0-7.72-6.279-14-14-14H12.021L12,65.96
				C12,69.268,9.309,71.959,6,71.959z M6.025,7.959c-1.652,0-2.998,1.344-3,2.997L3,65.959c0,1.654,1.346,3,3,3s3-1.346,3-3
				l0.022-50.5c0-0.828,0.672-1.5,1.5-1.5h23.48c9.374,0,17,7.626,17,17v23c0,1.654,1.346,3,3,3s3-1.346,3-3v-23
				c0-12.682-10.316-23-23-23H6.025z"/>
		</g>
	</g>
</g>
</svg>