<?xml version="1.0" encoding="iso-8859-1"?>
<!-- Uploaded to: SVG Repo, www.svgrepo.com, Generator: SVG Repo Mixer Tools -->
<!DOCTYPE svg PUBLIC "-//W3C//DTD SVG 1.1//EN" "http://www.w3.org/Graphics/SVG/1.1/DTD/svg11.dtd">
<svg fill="#000000" version="1.1" id="Capa_1" xmlns="http://www.w3.org/2000/svg" xmlns:xlink="http://www.w3.org/1999/xlink" 
	 width="800px" height="800px" viewBox="0 0 70.058 70.058"
	 xml:space="preserve">
<g>
	<g>
		<g>
			<path d="M32.089,70.058c-6.181,0-13.527-1.907-17.467-4.534c-0.936-0.625-1.355-1.812-1.019-2.887l2.148-6.814
				c0.238-0.76,0.806-1.354,1.558-1.629c0.75-0.272,1.583-0.176,2.244,0.248c3.675,2.354,8.447,3.705,13.095,3.705
				c6.645,0,10.611-3.061,10.611-8.186c0-3.936-1.668-6.838-10.196-10.025c-12.289-4.468-18.269-11.112-18.269-20.307
				C14.794,8.071,24.209,0,37.689,0c8.356,0,13.346,2.399,15.103,3.431c1.037,0.604,1.511,1.873,1.125,3.014l-2.241,6.627
				c-0.25,0.74-0.814,1.316-1.551,1.582c-0.729,0.263-1.546,0.174-2.2-0.227c-0.993-0.615-4.664-2.609-10.518-2.609
				c-6.866,0-9.303,3.706-9.303,6.879c0,3.758,1.627,6.176,10.877,9.757c12.331,4.867,17.588,11.104,17.588,20.855
				C56.571,58.881,50.159,70.058,32.089,70.058z M16.568,63.209c3.525,2.207,10.106,3.85,15.521,3.85
				c15.855,0,21.481-9.562,21.481-17.75c0-8.543-4.396-13.607-15.682-18.062c-8.289-3.209-12.784-6.161-12.784-12.551
				c0-4.758,3.85-9.879,12.303-9.879c5.923,0,9.974,1.857,11.604,2.769l1.944-5.748C49.167,4.858,44.837,3,37.688,3
				C25.975,3,17.793,9.838,17.793,19.629c0,7.781,5.334,13.503,16.307,17.492c7.303,2.73,12.159,5.955,12.159,12.841
				c0,6.794-5.343,11.185-13.611,11.185c-5,0-10.142-1.404-14.21-3.865L16.568,63.209z"/>
		</g>
	</g>
</g>
</svg>