<?xml version="1.0" encoding="iso-8859-1"?>
<!-- Uploaded to: SVG Repo, www.svgrepo.com, Generator: SVG Repo Mixer Tools -->
<!DOCTYPE svg PUBLIC "-//W3C//DTD SVG 1.1//EN" "http://www.w3.org/Graphics/SVG/1.1/DTD/svg11.dtd">
<svg fill="#000000" version="1.1" id="Capa_1" xmlns="http://www.w3.org/2000/svg" xmlns:xlink="http://www.w3.org/1999/xlink" 
	 width="800px" height="800px" viewBox="0 0 94.752 94.752"
	 xml:space="preserve">
<g>
	<g>
		<g>
			<path d="M70.599,73.944c-0.643,0-1.275-0.01-1.932-0.028L56.383,73.88c-0.698,0-1.361-0.273-1.859-0.77
				c-0.504-0.502-0.782-1.17-0.782-1.879v-48c0-1.46,1.188-2.647,2.648-2.647l14.901-0.002c6.899,0,23.058,0,23.455,14.283
				c0.122,4.341-1.808,8.012-5.477,10.52c3.512,2.361,5.314,6.348,5.367,11.885c0.039,4.234-1.306,7.761-3.997,10.478
				C86.564,71.86,79.822,73.944,70.599,73.944z M56.74,70.882l11.974,0.035c0.666,0.02,1.271,0.027,1.884,0.027
				c8.394,0,14.42-1.785,17.909-5.309c2.108-2.127,3.16-4.933,3.128-8.338c-0.05-5.324-1.792-8.57-5.48-10.214l-0.616-0.274
				c-0.528-0.234-0.874-0.752-0.889-1.331c-0.016-0.578,0.304-1.114,0.818-1.376l0.602-0.306c3.876-1.968,5.786-4.945,5.677-8.848
				c-0.225-8.073-6.15-11.366-20.456-11.366l-14.551,0.002L56.74,70.882L56.74,70.882z M75.621,65.286
				c-0.246,0-0.415-0.008-0.623-0.018h-9.589c-0.828,0-1.5-0.672-1.5-1.5V51.791c0-0.399,0.159-0.782,0.442-1.063
				c0.28-0.279,0.662-0.437,1.058-0.437c0.002,0,0.005,0,0.007,0l9.779,0.048l0.123-0.002c5.145,0,8.456,2.852,8.456,7.266
				c0.041,2.27-0.596,4.103-1.894,5.422C79.879,65.065,76.836,65.286,75.621,65.286z M66.91,62.269l8.161,0.002
				c0.231,0.008,0.361,0.016,0.55,0.016c0.653,0,2.879-0.098,4.121-1.363c0.711-0.725,1.059-1.833,1.033-3.294
				c0-3.876-3.802-4.292-5.438-4.292l-0.13,0.002l-8.299-0.041L66.91,62.269L66.91,62.269z M75.284,43.063
				c-0.094,0-0.188-0.003-0.309-0.008H65.41c-0.829,0-1.5-0.671-1.5-1.5v-11.95c0-0.398,0.158-0.78,0.44-1.062
				c0.281-0.282,0.623-0.441,1.062-0.438l9.997,0.02c5.081,0,8.365,2.852,8.365,7.266c0.041,2.268-0.596,4.101-1.892,5.421
				c-1.863,1.897-4.118,2.072-5.765,2.199l-0.422,0.033C75.541,43.057,75.413,43.063,75.284,43.063z M66.91,40.055l8.374,0.008
				c0.049,0,0.098-0.003,0.163-0.009l0.438-0.035c1.435-0.111,2.784-0.215,3.859-1.31c0.71-0.724,1.059-1.833,1.032-3.293
				c0-3.876-3.754-4.292-5.368-4.292l-8.497-0.017L66.91,40.055L66.91,40.055z"/>
		</g>
		<g>
			<path d="M3.529,74.169c-1.324,0-2.454-0.988-2.629-2.301l-0.878-6.743c-0.182-1.413,0.771-2.709,2.171-2.955
				c1.572-0.276,2.836-0.87,3.39-1.333c3.399-2.5,3.984-7.921,3.984-18.41V23.39c0-1.462,1.189-2.652,2.651-2.652H45.02
				c1.462,0,2.651,1.19,2.651,2.652v48.125c0,1.461-1.189,2.65-2.651,2.65h-8.494c-1.462,0-2.651-1.189-2.651-2.65V32.778H22.973
				v9.648c0,14.021-1.449,23.667-8.648,28.406C11.401,73.14,8.068,74.169,3.529,74.169z M3.04,65.063l0.795,6.104
				c3.731-0.042,6.339-0.864,8.677-2.727c0.037-0.029,0.075-0.058,0.115-0.082c6.117-3.986,7.345-12.877,7.345-25.933V31.278
				c0-0.829,0.671-1.5,1.5-1.5h13.902c0.829,0,1.5,0.671,1.5,1.5v39.887h7.796V23.737H12.566v18.689
				c0,11.517-0.768,17.563-5.133,20.771C6.482,63.995,4.834,64.701,3.04,65.063z"/>
		</g>
	</g>
</g>
</svg>