<?xml version="1.0" encoding="iso-8859-1"?>
<!-- Uploaded to: SVG Repo, www.svgrepo.com, Generator: SVG Repo Mixer Tools -->
<!DOCTYPE svg PUBLIC "-//W3C//DTD SVG 1.1//EN" "http://www.w3.org/Graphics/SVG/1.1/DTD/svg11.dtd">
<svg fill="#000000" version="1.1" id="Capa_1" xmlns="http://www.w3.org/2000/svg" xmlns:xlink="http://www.w3.org/1999/xlink" 
	 width="800px" height="800px" viewBox="0 0 68.277 68.277"
	 xml:space="preserve">
<g>
	<g>
		<g>
			<path d="M50.389,68.277h-8.176c-0.578,0-1.139-0.237-1.537-0.65c-0.381-0.367-0.615-0.927-0.615-1.501l0.009-45.478
				c0-1.186,0.965-2.15,2.149-2.15h7.137c1.187,0,2.15,0.965,2.15,2.15v1.724c2.623-2.049,6.803-4.023,13.164-4.023
				c1.188,0,2.152,0.965,2.152,2.151v7.115c0,0.58-0.229,1.124-0.641,1.531c-0.379,0.387-0.938,0.621-1.513,0.621H61.85
				c-4.711,0.117-7.992,3.27-8.969,8.648c-0.166,1.002-0.341,2.218-0.341,3.468v24.242C52.541,67.312,51.576,68.277,50.389,68.277z
				 M43.061,65.277h6.48V41.883c0-1.47,0.195-2.838,0.387-3.981c1.219-6.724,5.771-10.981,11.885-11.134h2.011v-5.405
				c-7.429,0.234-11.088,3.531-12.63,5.526c-0.393,0.507-1.064,0.706-1.672,0.502c-0.606-0.208-1.016-0.778-1.016-1.42v-4.473
				h-5.437L43.061,65.277z M36.139,68.277h-7.188c-0.759,0-1.496-0.312-2.021-0.855L13.123,53.038V65.5
				c0,1.531-1.256,2.776-2.799,2.776h-6.07c-1.543,0-2.799-1.245-2.799-2.776V2.776C1.455,1.245,2.711,0,4.254,0h6.07
				c1.543,0,2.799,1.245,2.799,2.776v31.663L24.884,19.51c0.523-0.666,1.348-1.065,2.204-1.065h7.537
				c1.039,0,1.987,0.567,2.477,1.48c0.521,0.973,0.408,2.16-0.287,3.025L20.13,43.82l18.084,19.816
				c0.766,0.842,0.94,2.045,0.449,3.065C38.188,67.665,37.2,68.277,36.139,68.277z M29.031,65.277h6.617L17.05,44.895
				c-0.497-0.545-0.524-1.371-0.063-1.946l17.19-21.503H27.18L12.802,39.696c-0.396,0.501-1.067,0.696-1.67,0.487
				c-0.604-0.209-1.009-0.777-1.009-1.416V2.999H4.455v62.277h5.668V49.87c0-0.817,0.656-1.485,1.475-1.5l0.529-0.009
				c0.465,0.007,0.819,0.16,1.107,0.461L29.031,65.277z"/>
		</g>
	</g>
</g>
</svg>