<?xml version="1.0" encoding="iso-8859-1"?>
<!-- Uploaded to: SVG Repo, www.svgrepo.com, Generator: SVG Repo Mixer Tools -->
<!DOCTYPE svg PUBLIC "-//W3C//DTD SVG 1.1//EN" "http://www.w3.org/Graphics/SVG/1.1/DTD/svg11.dtd">
<svg fill="#000000" version="1.1" id="Capa_1" xmlns="http://www.w3.org/2000/svg" xmlns:xlink="http://www.w3.org/1999/xlink" 
	 width="800px" height="800px" viewBox="0 0 94.754 94.754"
	 xml:space="preserve">
<g>
	<g>
		<g>
			<g>
				<path d="M3.531,74.17c-1.323,0-2.454-0.99-2.629-2.302l-0.88-6.743c-0.183-1.413,0.772-2.71,2.172-2.955
					c1.571-0.277,2.835-0.869,3.389-1.333c3.4-2.5,3.985-7.922,3.985-18.411V23.391c0-1.462,1.189-2.652,2.651-2.652h32.801
					c1.462,0,2.651,1.189,2.651,2.652v48.125c0,1.463-1.189,2.651-2.651,2.651h-8.493c-1.462,0-2.651-1.188-2.651-2.651V32.779
					H22.975v9.648c0,14.021-1.448,23.667-8.647,28.407C11.403,73.141,8.07,74.17,3.531,74.17z M3.041,65.064l0.796,6.104
					c3.73-0.042,6.339-0.865,8.677-2.726c0.037-0.03,0.076-0.059,0.115-0.084c6.117-3.985,7.346-12.877,7.346-25.932V31.279
					c0-0.829,0.672-1.5,1.5-1.5h13.902c0.828,0,1.5,0.671,1.5,1.5v39.888h7.796V23.739H12.568v18.688
					c0,11.519-0.769,17.564-5.135,20.771C6.483,63.997,4.835,64.703,3.041,65.064z"/>
			</g>
		</g>
		<g>
			<g>
				<path d="M70.601,73.945c-0.64,0-1.274-0.01-1.931-0.027l-12.285-0.036c-0.697,0-1.359-0.272-1.858-0.769
					c-0.507-0.504-0.782-1.172-0.782-1.881v-48c0-1.46,1.188-2.647,2.647-2.647l14.901-0.002c6.899,0,23.058,0,23.455,14.284
					c0.121,4.341-1.809,8.011-5.478,10.52c3.512,2.36,5.313,6.347,5.367,11.884c0.038,4.236-1.306,7.763-3.997,10.479
					C86.566,71.861,79.823,73.945,70.601,73.945z M56.742,70.883l11.975,0.036c0.666,0.019,1.271,0.028,1.884,0.028
					c8.394,0,14.42-1.786,17.909-5.309c2.107-2.127,3.16-4.933,3.129-8.339c-0.051-5.323-1.792-8.569-5.481-10.214l-0.616-0.273
					c-0.527-0.236-0.873-0.754-0.889-1.333c-0.014-0.578,0.305-1.113,0.82-1.375l0.601-0.305c3.875-1.968,5.785-4.944,5.677-8.847
					c-0.225-8.074-6.15-11.367-20.455-11.367l-14.551,0.002v47.295H56.742z M75.623,65.288c-0.242,0-0.41-0.009-0.613-0.019h-9.598
					c-0.828,0-1.5-0.672-1.5-1.5V51.792c0-0.399,0.159-0.782,0.442-1.063c0.28-0.279,0.661-0.437,1.058-0.437
					c0.002,0,0.006,0,0.008,0l9.778,0.047l0.134-0.001c5.135,0,8.445,2.852,8.445,7.264c0.042,2.269-0.595,4.102-1.893,5.422
					C79.879,65.066,76.838,65.288,75.623,65.288z M66.912,62.27l8.16,0.002c0.236,0.01,0.365,0.016,0.551,0.016
					c0.652,0,2.879-0.1,4.123-1.365c0.711-0.725,1.059-1.833,1.031-3.293c0-3.876-3.802-4.292-5.438-4.292l-0.139,0.001l-8.289-0.04
					V62.27L66.912,62.27z M75.283,43.064c-0.095,0-0.191-0.003-0.312-0.009l-9.559,0.001c-0.828,0-1.5-0.671-1.5-1.5V29.605
					c0-0.398,0.158-0.78,0.44-1.062c0.28-0.281,0.662-0.438,1.06-0.438c0.002,0,0.002,0,0.004,0l9.996,0.02
					c5.08,0,8.365,2.852,8.365,7.265c0.042,2.267-0.595,4.101-1.891,5.422c-1.865,1.898-4.12,2.072-5.768,2.2l-0.42,0.033
					C75.537,43.058,75.412,43.064,75.283,43.064z M66.912,40.056l8.371,0.008c0.053,0,0.104-0.003,0.176-0.009l0.428-0.034
					c1.433-0.11,2.783-0.215,3.859-1.31c0.711-0.725,1.059-1.833,1.031-3.293c0-3.876-3.754-4.292-5.367-4.292l-8.498-0.017V40.056z
					"/>
			</g>
		</g>
	</g>
</g>
</svg>