<?xml version="1.0" encoding="iso-8859-1"?>
<!-- Uploaded to: SVG Repo, www.svgrepo.com, Generator: SVG Repo Mixer Tools -->
<!DOCTYPE svg PUBLIC "-//W3C//DTD SVG 1.1//EN" "http://www.w3.org/Graphics/SVG/1.1/DTD/svg11.dtd">
<svg fill="#000000" version="1.1" id="Capa_1" xmlns="http://www.w3.org/2000/svg" xmlns:xlink="http://www.w3.org/1999/xlink" 
	 width="800px" height="800px" viewBox="0 0 89.321 89.321"
	 xml:space="preserve">
<g>
	<g>
		<path d="M19.247,85.786c-2.664,0-4.831-2.167-4.831-4.83v-7.483C5.353,71.87,0.505,65.839,0,55.523
			c0.026-2.881,2.174-4.986,4.996-4.986c2.719,0,4.932,2.202,4.932,4.908v0.449c0.145,3.812,1.583,6.224,4.488,7.428v-15.41
			c-1.763-0.564-3.321-1.136-4.644-1.706c-1.968-0.848-3.627-1.897-4.931-3.12C3.5,41.835,2.5,40.28,1.873,38.469
			c-0.608-1.756-0.917-3.96-0.917-6.553c0-2.382,0.409-4.596,1.216-6.581c0.81-1.994,2-3.75,3.538-5.222
			c1.532-1.465,3.402-2.63,5.557-3.46c0.963-0.372,2.018-0.664,3.148-0.871V8.366c0-2.664,2.167-4.831,4.831-4.831
			s4.831,2.167,4.831,4.831v7.512c8.066,1.473,12.413,6.46,12.928,14.84l0.063,0.539c0.007,0.062,0.01,0.124,0.01,0.186
			c-0.029,2.747-2.225,4.898-4.999,4.898c-2.659,0-4.818-2.078-4.917-4.73l-0.014-0.239c-0.009-0.049-0.015-0.098-0.019-0.148
			c-0.192-2.569-1.174-4.284-3.052-5.277v13.071c1.874,0.608,3.545,1.225,4.982,1.838c2.055,0.875,3.8,1.964,5.186,3.235
			c1.421,1.301,2.5,2.934,3.208,4.851c0.691,1.872,1.042,4.176,1.042,6.844c0,2.511-0.434,4.886-1.289,7.06
			c-0.862,2.188-2.123,4.125-3.746,5.756c-1.62,1.629-3.601,2.937-5.888,3.886c-1.055,0.438-2.227,0.78-3.495,1.021v7.448
			C24.078,83.619,21.911,85.786,19.247,85.786z M4.996,53.536c-1.184,0-1.987,0.774-1.998,1.929
			c0.458,9.301,4.622,14.168,13.104,15.229c0.75,0.094,1.314,0.732,1.314,1.488v8.774c0,1.009,0.821,1.83,1.831,1.83
			c1.01,0,1.831-0.821,1.831-1.83v-8.729c0-0.756,0.561-1.393,1.31-1.488c1.514-0.194,2.871-0.538,4.034-1.021
			c1.921-0.797,3.574-1.884,4.913-3.229c1.333-1.339,2.37-2.935,3.081-4.74c0.717-1.821,1.08-3.827,1.08-5.96
			c0-2.312-0.288-4.266-0.856-5.805c-0.541-1.465-1.355-2.702-2.42-3.678c-1.135-1.041-2.594-1.944-4.336-2.688
			c-1.608-0.687-3.542-1.382-5.75-2.067c-0.627-0.195-1.055-0.775-1.055-1.433v-16.31c0-0.46,0.211-0.895,0.573-1.18
			c0.363-0.284,0.837-0.386,1.282-0.278c4.303,1.049,6.78,3.977,7.174,8.473c0.013,0.066,0.021,0.133,0.026,0.202l0.026,0.443
			c0.04,1.066,0.883,1.875,1.92,1.875c1.119,0,1.946-0.772,1.997-1.849l-0.058-0.513c-0.46-7.462-4.155-11.356-11.634-12.331
			c-0.747-0.097-1.306-0.734-1.306-1.487V8.366c0-1.01-0.821-1.831-1.831-1.831c-1.01,0-1.831,0.821-1.831,1.831v8.705
			c0,0.759-0.567,1.398-1.32,1.489c-1.389,0.168-2.65,0.468-3.748,0.892c-1.784,0.688-3.319,1.64-4.563,2.829
			c-1.229,1.177-2.183,2.584-2.833,4.184c-0.66,1.625-0.995,3.458-0.995,5.451c0,2.258,0.253,4.132,0.751,5.572
			c0.465,1.345,1.2,2.491,2.182,3.408c1.052,0.987,2.42,1.845,4.068,2.555c1.481,0.638,3.296,1.285,5.394,1.923
			c0.632,0.192,1.063,0.774,1.063,1.435v18.535c0,0.455-0.205,0.883-0.558,1.168c-0.354,0.284-0.816,0.395-1.259,0.297
			c-5.448-1.179-8.446-4.935-8.67-10.859l-0.001-0.506C6.928,54.393,6.061,53.536,4.996,53.536z M66.898,78.18
			c-4.52,0-6.912-0.478-10.271-1.482c-2.992-0.895-5.8-2.584-8.119-4.889c-2.086-2.07-3.639-4.762-4.613-7.996
			c-0.971-3.221-1.463-7.121-1.463-11.592V23.722c0-2.458,0.566-4.333,1.682-5.575c1.124-1.247,2.616-1.878,4.438-1.878
			c1.902,0,3.436,0.632,4.557,1.877c1.117,1.241,1.683,3.117,1.683,5.576v29.146c0,3.278,0.371,6.056,1.103,8.25
			c0.481,1.444,2.401,4.126,3.871,5.081c1.828,1.191,2.934,1.562,6.281,1.562c4.848,0,6.23-1.097,8.041-3.422
			c1.906-2.449,2.873-6.227,2.873-11.229V23.722c0-2.485,0.559-4.367,1.662-5.594c1.107-1.233,2.607-1.859,4.458-1.859
			c1.847,0,3.366,0.625,4.515,1.856c1.146,1.228,1.726,3.111,1.726,5.597v28.499c0,4.631-0.458,8.551-1.36,11.651
			c-0.908,3.116-2.645,5.888-5.158,8.24c-2.474,2.288-5.024,3.862-7.59,4.685C72.378,77.705,70.721,78.18,66.898,78.18z
			 M48.555,19.268c-0.977,0-1.656,0.273-2.209,0.885c-0.596,0.663-0.912,1.897-0.912,3.568v28.5c0,4.178,0.449,7.787,1.336,10.727
			c0.828,2.752,2.125,5.018,3.854,6.734c1.971,1.955,4.344,3.388,6.864,4.142c3.137,0.938,5.239,1.356,9.411,1.356
			c3.531,0,4.824-0.414,7.398-1.24c2.145-0.688,4.319-2.041,6.463-4.023c2.109-1.974,3.565-4.292,4.321-6.883
			c0.823-2.828,1.241-6.465,1.241-10.812V23.722c0-1.678-0.318-2.906-0.919-3.551c-0.582-0.624-1.298-0.902-2.321-0.902
			c-1.002,0-1.689,0.267-2.227,0.864c-0.584,0.65-0.893,1.892-0.893,3.589v29.389c0,5.685-1.18,10.083-3.506,13.072
			c-2.363,3.037-4.623,4.578-10.408,4.578c-3.748,0-5.449-0.439-7.918-2.047c-2.09-1.357-4.406-4.629-5.08-6.646
			c-0.834-2.503-1.257-5.599-1.257-9.2V23.722c0-1.671-0.315-2.905-0.913-3.569C50.33,19.541,49.613,19.268,48.555,19.268z
			 M22.578,67.005c-0.354,0-0.699-0.125-0.972-0.358c-0.335-0.284-0.528-0.702-0.528-1.142V48.991c0-0.486,0.235-0.942,0.632-1.224
			c0.397-0.28,0.906-0.352,1.363-0.192l-0.495,1.416l0.5-1.414c0.341,0.119,0.682,0.239,0.988,0.349
			c1.817,0.657,3.272,1.352,4.325,2.062c1.242,0.839,2.108,1.848,2.575,2.997c0.414,1.02,0.623,2.243,0.623,3.635
			c0,3.229-1.017,5.837-3.022,7.753c-1.407,1.344-3.341,2.225-5.75,2.613C22.738,66.998,22.658,67.005,22.578,67.005z
			 M24.078,51.141v12.461c0.984-0.334,1.793-0.801,2.417-1.398c1.391-1.328,2.095-3.206,2.095-5.583
			c0-1.004-0.135-1.849-0.403-2.506c-0.239-0.587-0.735-1.14-1.475-1.64C26.057,52.032,25.175,51.585,24.078,51.141z M15.916,39.54
			c-0.16,0-0.32-0.025-0.476-0.077c-0.356-0.119-0.696-0.234-1.005-0.341c-1.82-0.628-3.162-1.274-4.102-1.974
			c-1.134-0.839-1.858-1.832-2.146-2.947c-0.213-0.828-0.321-1.877-0.321-3.119c0-1.523,0.316-2.902,0.94-4.099
			c0.627-1.197,1.498-2.19,2.588-2.956c1.024-0.72,2.214-1.264,3.537-1.616c0.169-0.046,0.349-0.086,0.529-0.125l0.129-0.028
			c0.445-0.101,0.909,0.008,1.265,0.293c0.355,0.285,0.562,0.715,0.562,1.17v14.318c0,0.482-0.232,0.936-0.624,1.217
			C16.534,39.443,16.226,39.54,15.916,39.54z M14.416,25.757c-0.47,0.206-0.903,0.447-1.297,0.725
			c-0.697,0.489-1.253,1.125-1.654,1.891c-0.397,0.761-0.599,1.674-0.599,2.709c0,0.976,0.078,1.795,0.226,2.369
			c0.111,0.431,0.458,0.865,1.029,1.287c0.522,0.388,1.291,0.783,2.295,1.18V25.757z"/>
	</g>
</g>
</svg>