<?xml version="1.0" encoding="iso-8859-1"?>
<!-- Uploaded to: SVG Repo, www.svgrepo.com, Generator: SVG Repo Mixer Tools -->
<!DOCTYPE svg PUBLIC "-//W3C//DTD SVG 1.1//EN" "http://www.w3.org/Graphics/SVG/1.1/DTD/svg11.dtd">
<svg fill="#000000" version="1.1" id="Capa_1" xmlns="http://www.w3.org/2000/svg" xmlns:xlink="http://www.w3.org/1999/xlink" 
	 width="800px" height="800px" viewBox="0 0 95.651 95.652"
	 xml:space="preserve">
<g>
	<g>
		<g>
			<path d="M66.506,79.652c-1.951,0-3.545-0.501-4.736-1.488c-1.176-0.975-2.006-2.091-2.467-3.316
				c-0.44-1.17-1.072-3.209-1.875-6.059L53.19,53.07H42.514l-4.285,15.695c-0.779,2.781-1.404,4.797-1.861,6.002
				c-0.475,1.25-1.311,2.387-2.484,3.373c-1.209,1.018-2.759,1.512-4.739,1.512c-1.574,0-2.894-0.303-3.924-0.896
				c-1.042-0.602-1.862-1.428-2.507-2.525c-0.622-1.062-1.136-2.332-1.529-3.777c-0.389-1.43-0.736-2.755-1.04-3.975l-3.81-15.408
				H3.4c-1.875,0-3.4-1.525-3.4-3.4s1.525-3.4,3.4-3.4h11.254l-1.138-4.602H3.4c-1.875,0-3.4-1.525-3.4-3.401
				c0-1.875,1.525-3.4,3.4-3.4h8.436l-1.834-7.419c-0.619-2.421-0.921-4.228-0.921-5.513c0-1.664,0.592-3.085,1.761-4.223
				C12.007,16.576,13.467,16,15.182,16c2.361,0,3.981,0.783,4.815,2.329c0.787,1.463,1.484,3.608,2.072,6.377l2.279,10.16h11.88
				l2.123-7.911c0.661-2.534,1.267-4.505,1.795-5.846c0.547-1.378,1.446-2.583,2.675-3.583C44.066,16.513,45.771,16,47.888,16
				c2.148,0,3.849,0.537,5.054,1.596c1.187,1.044,2.021,2.2,2.481,3.438c0.443,1.191,1.047,3.186,1.795,5.926l2.143,7.907h11.943
				l2.287-10.193c0.383-1.84,0.758-3.32,1.105-4.379c0.365-1.109,0.975-2.076,1.865-2.954c0.908-0.89,2.221-1.34,3.908-1.34
				c1.684,0,3.135,0.568,4.315,1.688c1.185,1.126,1.785,2.554,1.785,4.246c0,1.172-0.302,2.977-0.922,5.518l-1.833,7.414h8.435
				c1.875,0,3.4,1.525,3.4,3.4c0,1.876-1.525,3.401-3.4,3.401H82.135l-1.138,4.602H92.25c1.875,0,3.4,1.525,3.4,3.4
				s-1.525,3.4-3.4,3.4H79.316l-3.809,15.402c-0.691,2.77-1.275,4.826-1.733,6.119c-0.474,1.336-1.287,2.521-2.417,3.523
				C70.203,79.136,68.572,79.652,66.506,79.652z M41.369,50.07H54.34c0.678,0,1.271,0.455,1.447,1.109l4.533,16.812
				c0.775,2.751,1.379,4.707,1.791,5.8c0.275,0.732,0.804,1.426,1.572,2.062c0.639,0.529,1.588,0.799,2.822,0.799
				c1.293,0,2.283-0.271,2.861-0.781c0.745-0.662,1.277-1.43,1.58-2.281c0.426-1.203,0.982-3.168,1.65-5.841l4.088-16.539
				c0.166-0.669,0.767-1.14,1.457-1.14h14.108c0.222,0,0.4-0.18,0.4-0.4c0-0.22-0.181-0.4-0.4-0.4h-13.17
				c-0.461,0-0.897-0.211-1.181-0.574c-0.284-0.363-0.387-0.837-0.275-1.285l1.879-7.602c0.166-0.669,0.766-1.14,1.456-1.14h11.29
				c0.221,0,0.4-0.18,0.4-0.401s-0.18-0.4-0.4-0.4H81.9c-0.461,0-0.896-0.212-1.182-0.575c-0.283-0.363-0.386-0.837-0.274-1.285
				l2.292-9.27c0.689-2.827,0.835-4.172,0.835-4.802c0-0.873-0.263-1.512-0.851-2.071C82.092,19.267,81.396,19,80.471,19
				c-0.85,0-1.49,0.17-1.804,0.479c-0.548,0.54-0.905,1.099-1.12,1.753c-0.313,0.953-0.658,2.324-1.023,4.076l-2.555,11.387
				c-0.153,0.686-0.762,1.172-1.463,1.172H58.213c-0.677,0-1.271-0.454-1.447-1.107l-2.442-9.013
				c-0.724-2.651-1.299-4.559-1.712-5.667c-0.286-0.769-0.842-1.519-1.65-2.23c-0.632-0.555-1.695-0.849-3.074-0.849
				c-1.41,0-2.478,0.287-3.173,0.853c-0.826,0.673-1.425,1.467-1.779,2.36c-0.484,1.228-1.052,3.082-1.686,5.51l-2.424,9.032
				c-0.176,0.655-0.77,1.111-1.449,1.111h-14.23c-0.702,0-1.31-0.486-1.464-1.172l-2.545-11.35c-0.532-2.507-1.13-4.383-1.781-5.593
				C17.256,19.567,16.95,19,15.181,19c-0.943,0-1.636,0.266-2.247,0.86c-0.591,0.576-0.854,1.215-0.854,2.074
				c0,0.699,0.144,2.096,0.831,4.781l2.297,9.29c0.111,0.448,0.009,0.922-0.275,1.285c-0.284,0.363-0.72,0.575-1.181,0.575H3.4
				c-0.221,0-0.4,0.18-0.4,0.4c0,0.222,0.18,0.401,0.4,0.401h11.291c0.69,0,1.291,0.471,1.456,1.14l1.879,7.602
				c0.111,0.448,0.009,0.922-0.275,1.285c-0.284,0.363-0.72,0.574-1.181,0.574H3.4c-0.221,0-0.4,0.181-0.4,0.4
				c0,0.221,0.18,0.4,0.4,0.4h14.11c0.69,0,1.291,0.471,1.456,1.14l4.09,16.545c0.299,1.196,0.64,2.503,1.023,3.909
				c0.324,1.191,0.734,2.216,1.222,3.047c0.38,0.647,0.832,1.107,1.42,1.447c0.56,0.322,1.398,0.494,2.424,0.494
				c1.244,0,2.162-0.264,2.808-0.807c0.777-0.653,1.319-1.375,1.61-2.144c0.425-1.12,1.022-3.051,1.774-5.735l4.584-16.793
				C40.1,50.521,40.693,50.07,41.369,50.07z M29.625,66.75c-0.011,0-0.021,0-0.032,0c-0.69-0.015-1.281-0.498-1.432-1.172
				l-3.069-13.68c-0.1-0.444,0.008-0.91,0.292-1.266c0.284-0.356,0.715-0.563,1.171-0.563h6.74c0.466,0,0.906,0.217,1.19,0.587
				c0.284,0.37,0.379,0.852,0.258,1.302l-3.671,13.681C30.897,66.294,30.302,66.75,29.625,66.75z M28.429,53.07l1.326,5.906
				l1.585-5.906H28.429z M66.032,66.726c-0.677,0-1.271-0.452-1.447-1.106l-3.7-13.657c-0.121-0.451-0.026-0.934,0.256-1.304
				c0.285-0.371,0.725-0.589,1.191-0.589h6.764c0.455,0,0.886,0.207,1.17,0.562c0.285,0.356,0.394,0.821,0.293,1.267l-3.062,13.657
				c-0.15,0.672-0.74,1.155-1.431,1.172C66.055,66.726,66.043,66.726,66.032,66.726z M64.293,53.07l1.602,5.914l1.328-5.914H64.293z
				 M69.948,49.269h-8.646c-0.677,0-1.271-0.454-1.447-1.107l-2.061-7.602c-0.121-0.451-0.027-0.934,0.256-1.304
				c0.284-0.371,0.725-0.589,1.191-0.589h12.41c0.456,0,0.886,0.207,1.171,0.563s0.394,0.821,0.293,1.266l-1.705,7.602
				C71.258,48.783,70.65,49.269,69.948,49.269z M62.45,46.269h6.297l1.032-4.602h-8.576L62.45,46.269z M53.314,49.269H42.407
				c-0.468,0-0.908-0.219-1.192-0.59c-0.284-0.371-0.378-0.854-0.255-1.307l2.075-7.602c0.178-0.652,0.771-1.104,1.447-1.104h6.781
				c0.679,0,1.272,0.455,1.449,1.109l2.049,7.602c0.123,0.451,0.026,0.933-0.256,1.304C54.221,49.052,53.781,49.269,53.314,49.269z
				 M44.371,46.269h6.984l-1.241-4.602h-4.487L44.371,46.269z M34.317,49.269h-8.613c-0.702,0-1.31-0.486-1.464-1.172l-1.705-7.603
				c-0.1-0.444,0.008-0.91,0.293-1.266s0.715-0.563,1.171-0.563h12.358c0.466,0,0.906,0.217,1.19,0.587
				c0.284,0.37,0.379,0.852,0.258,1.302l-2.04,7.602C35.59,48.812,34.995,49.269,34.317,49.269z M26.904,46.269h6.262l1.235-4.602
				h-8.529L26.904,46.269z M50.239,37.866H45.52c-0.468,0-0.909-0.218-1.192-0.59c-0.284-0.371-0.378-0.854-0.254-1.306l2.375-8.695
				c0.178-0.652,0.771-1.104,1.447-1.104c0.001,0,0.001,0,0.002,0c0.677,0.001,1.27,0.456,1.446,1.109l2.344,8.695
				c0.123,0.451,0.027,0.933-0.256,1.303C51.146,37.649,50.706,37.866,50.239,37.866z M47.485,34.866h0.796l-0.396-1.467
				L47.485,34.866z"/>
		</g>
	</g>
</g>
</svg>