<?xml version="1.0" encoding="iso-8859-1"?>
<!-- Uploaded to: SVG Repo, www.svgrepo.com, Generator: SVG Repo Mixer Tools -->
<!DOCTYPE svg PUBLIC "-//W3C//DTD SVG 1.1//EN" "http://www.w3.org/Graphics/SVG/1.1/DTD/svg11.dtd">
<svg fill="#000000" version="1.1" id="Capa_1" xmlns="http://www.w3.org/2000/svg" xmlns:xlink="http://www.w3.org/1999/xlink" 
	 width="800px" height="800px" viewBox="0 0 91.822 91.822"
	 xml:space="preserve">
<g>
	<g>
		<g>
			<path d="M56.47,61.175h-0.003c-3.083,0-5.608-0.022-7.95-0.069c-3.928-0.08-6.6-2.68-7.332-7.135
				c-0.408-2.48-0.661-4.955-0.906-7.349c-0.182-1.779-0.407-3.97-0.698-5.977c-0.289-1.98-0.656-4.007-1.01-5.966l-0.019-0.106
				c-0.571-3.156-1.162-6.418-1.481-9.687c-0.182-1.885,0.588-3.599,1.267-5.11c0.246-0.547,0.5-1.112,0.669-1.609
				c0.324-0.96,1.227-1.608,2.246-1.608c1.004,0,1.905,0.636,2.241,1.583c0.411,1.19,2.458,7.269,2.811,11.22
				c0.198,2.229,0.512,6.145,0.845,10.311c0.255,3.189,0.523,6.528,0.759,9.373c0.098,1.177,0.321,1.655,2.171,1.655l0.258-0.005
				c1.887-0.062,3.914-0.09,6.366-0.09c1.124,0,2.268,0.006,3.438,0.013l1.17,0.006c0.776,0.005,1.534,0.012,2.289,0.016
				c-0.005-0.028-0.012-0.056-0.018-0.083c-0.362-1.772-0.676-3.299-1.346-4.17c-2.826-3.675-2.899-7.211-0.227-10.813
				c0.391-0.53,0.992-0.876,1.648-0.945l0.171-0.012c0.65-0.005,1.17,0.189,1.597,0.539c4.502,3.759,5.689,9.756,4.717,23.778
				c-0.087,1.24-1.128,2.21-2.37,2.21c-1.925,0-3.83,0.008-5.722,0.016l-0.662,0.002C59.743,61.168,58.104,61.175,56.47,61.175z
				 M41.194,20.74c-0.04,0.089-0.08,0.178-0.119,0.266c-0.578,1.285-1.123,2.5-1.018,3.591c0.307,3.146,0.887,6.346,1.447,9.441
				l0.019,0.106c0.359,1.986,0.73,4.038,1.027,6.069c0.301,2.071,0.529,4.297,0.712,6.085c0.242,2.367,0.491,4.796,0.883,7.186
				c0.496,3.018,1.987,4.573,4.432,4.623c2.321,0.046,4.828,0.068,7.891,0.068h0.003c1.629,0,3.264-0.007,4.907-0.015l0.663-0.002
				c1.704-0.007,3.418-0.014,5.149-0.016c0.785-11.839-0.028-17.167-3.164-20.216c-1.474,2.285-1.285,4.193,0.588,6.629
				c1.092,1.42,1.469,3.261,1.906,5.393c0.124,0.605,0.25,1.22,0.398,1.849c0.106,0.447,0.002,0.917-0.282,1.278
				c-0.284,0.36-0.719,0.569-1.177,0.569c0,0-0.001,0-0.002,0c-1.395-0.002-2.748-0.012-4.112-0.021l-1.223-0.007
				c-1.164-0.007-2.301-0.013-3.419-0.013c-2.418,0-4.417,0.027-6.287,0.089l-0.307,0.006c0,0,0,0-0.001,0
				c-3.211,0-4.947-1.481-5.19-4.407c-0.236-2.847-0.504-6.189-0.759-9.381c-0.332-4.155-0.644-8.06-0.843-10.283
				C43.078,26.948,41.905,22.97,41.194,20.74z"/>
		</g>
		<g>
			<path d="M59.6,72.65c-0.039,0-0.078-0.001-0.116-0.004l-0.101-0.008c-0.526-0.01-1.146-0.312-1.574-0.805l-2.358-2.689
				l-2.957,2.687c-0.443,0.411-1.079,0.645-1.697,0.614c-0.666-0.035-1.268-0.325-1.695-0.817l-3.768-4.378
				c-0.845-0.984-0.755-2.438,0.202-3.308l3.779-3.438c0.435-0.397,1.004-0.618,1.599-0.618c0.774,0.04,1.391,0.339,1.815,0.847
				l2.338,2.77l2.988-2.756c0.428-0.397,1.015-0.63,1.606-0.63c0.77,0.04,1.359,0.319,1.79,0.812l3.71,4.266
				c0.841,0.968,0.769,2.414-0.168,3.292l-3.771,3.523C60.778,72.423,60.202,72.65,59.6,72.65z M56.729,66.052l2.916,3.325
				l2.856-2.668l-2.887-3.318L56.729,66.052z M48.002,65.753l2.948,3.426l2.819-2.562l-2.917-3.456L48.002,65.753z"/>
		</g>
		<g>
			<path d="M16.778,69.715c-2.047,0-3.9-0.104-5.664-0.319c-3.814-0.462-7.02-2.304-9.024-5.188
				c-1.967-2.832-2.571-6.384-1.702-10.004c0.247-1.106,1.657-6.959,4.632-11.156c0.597-0.91,1.725-1.501,2.914-1.501
				c0.686,0,1.342,0.194,1.898,0.561c0.777,0.508,1.312,1.296,1.5,2.215c0.189,0.914,0.01,1.849-0.505,2.63
				c-1.872,2.848-3.083,6.793-3.165,7.778c-0.05,0.606,0.052,1.196,0.714,2.098c1.337,1.821,4.083,2.789,7.939,2.797l1.709,0.009
				c0.648,0,1.419-0.01,2.175-0.08c4.33-0.4,6.862-1.306,8.211-2.935c1.288-1.556,1.709-4.132,1.326-8.105l-0.247-2.62
				c-0.657-6.991-1.336-14.219-2.951-21.011l-0.204-0.848c-0.924-3.809-1.798-7.409,0.616-11.553
				c0.354-0.613,0.963-1.033,1.668-1.149c0.045-0.008,0.091-0.013,0.138-0.016l0.138-0.01c0.615-0.04,1.228,0.187,1.689,0.6
				c0.409,0.361,0.8,0.737,1.175,1.104c0.63,0.612,1.222,1.186,1.789,1.524c2.313,1.375,3.556,2.948,3.798,4.804
				c0.256,1.938-0.6,3.86-2.694,6.036c-0.066,0.193-0.14,0.665-0.09,1.143c0.335,3.205,0.715,6.456,1.084,9.615l0.073,0.621
				c0.527,4.498,1.073,9.149,1.515,13.815c0.557,5.87-0.553,10.495-3.3,13.748c-2.574,3.051-6.498,4.792-11.66,5.175
				C20.265,69.643,18.468,69.715,16.778,69.715z M7.933,44.547c-0.179,0-0.363,0.081-0.437,0.193
				c-2.673,3.771-3.957,9.109-4.187,10.142c-0.672,2.801-0.229,5.496,1.243,7.615c1.51,2.17,3.968,3.563,6.923,3.921
				c3.022,0.37,6.339,0.4,10.575,0.085c4.328-0.319,7.554-1.706,9.589-4.117c2.208-2.614,3.084-6.493,2.606-11.53
				c-0.439-4.633-0.983-9.268-1.508-13.749l-0.073-0.623c-0.37-3.171-0.751-6.434-1.088-9.651c-0.113-1.084,0.038-2.639,0.835-3.456
				c1.446-1.482,2.086-2.675,1.958-3.644c-0.114-0.875-0.908-1.755-2.36-2.619c-0.869-0.52-1.615-1.244-2.337-1.944
				c-0.164-0.16-0.329-0.32-0.497-0.48c-1.337,2.827-0.708,5.421,0.074,8.642l0.206,0.855c1.664,7,2.353,14.334,3.02,21.428
				l0.247,2.616c0.464,4.817-0.171,8.094-2.002,10.305c-1.898,2.293-5.058,3.529-10.245,4.008c-0.877,0.082-1.735,0.093-2.458,0.093
				l-1.713-0.009c-4.844-0.011-8.424-1.401-10.348-4.021c-1.01-1.377-1.406-2.647-1.285-4.12c0.141-1.696,1.632-6.114,3.649-9.182
				c0.076-0.116,0.1-0.241,0.073-0.375c-0.028-0.135-0.1-0.242-0.21-0.314C8.097,44.558,8,44.547,7.933,44.547z"/>
		</g>
		<g>
			<path d="M70.436,80.52C70.435,80.52,70.435,80.52,70.436,80.52c-3.461-0.002-6.813-1.222-10.054-2.399
				c-1.388-0.504-2.899-1.054-4.303-1.448c-1.2-0.339-1.938-1.557-1.683-2.772c0.017-0.082,0.041-0.161,0.071-0.238
				c0.338-0.865,1.233-1.739,2.475-1.739c0.2,0,0.401,0.023,0.601,0.07c0.281,0.065,0.634,0.136,0.995,0.209
				c0.309,0.063,0.624,0.127,0.915,0.191c1.324,0.291,2.653,0.582,3.905,0.692c6.998,0.648,13.244-3.199,18.72-11.427
				c2.251-3.384,0.653-6.497-1.084-8.512c-0.216-0.25-0.396-0.492-0.58-0.735c-0.17-0.228-0.324-0.438-0.528-0.663
				c-0.024-0.025-0.048-0.053-0.068-0.081c-1.917-2.435-3.573-4.448-4.92-5.986c-0.835-0.954-1.249-2.177-1.165-3.443
				c0.083-1.268,0.655-2.425,1.608-3.26c0.84-0.735,1.944-1.139,3.109-1.139c1.4,0,2.709,0.576,3.592,1.581
				c2.261,2.581,4.724,5.704,5.99,7.335l0.484,0.578c0.119,0.137,3.403,3.982,3.304,10.523c-0.092,6.034-2.687,9.276-3.276,9.938
				c-5.099,7.31-9.992,12.262-17.26,12.698C70.993,80.51,70.716,80.52,70.436,80.52z M63.711,76.121
				c2.274,0.774,4.546,1.397,6.726,1.398c0.226,0,0.451-0.009,0.678-0.021c6.08-0.366,10.405-4.861,15.025-11.5
				c0.043-0.062,0.092-0.122,0.145-0.178c0.1-0.105,2.456-2.681,2.537-8.01c0.082-5.362-2.562-8.501-2.588-8.533l-0.536-0.642
				c-1.037-1.334-3.619-4.624-5.909-7.239c-0.562-0.64-1.826-0.727-2.471-0.162c-0.35,0.306-0.559,0.732-0.59,1.2
				c-0.031,0.468,0.121,0.918,0.428,1.269c1.374,1.569,3.052,3.61,4.989,6.068c0.258,0.289,0.461,0.557,0.66,0.824
				c0.155,0.208,0.295,0.396,0.463,0.591c3.364,3.902,3.841,8.326,1.309,12.132C78.613,72.279,71.604,76.597,63.711,76.121z"/>
		</g>
	</g>
</g>
</svg>