<?xml version="1.0" encoding="iso-8859-1"?>
<!-- Uploaded to: SVG Repo, www.svgrepo.com, Generator: SVG Repo Mixer Tools -->
<!DOCTYPE svg PUBLIC "-//W3C//DTD SVG 1.1//EN" "http://www.w3.org/Graphics/SVG/1.1/DTD/svg11.dtd">
<svg fill="#000000" version="1.1" id="Capa_1" xmlns="http://www.w3.org/2000/svg" xmlns:xlink="http://www.w3.org/1999/xlink" 
	 width="800px" height="800px" viewBox="0 0 80.85 80.851"
	 xml:space="preserve">
<g>
	<g>
		<path d="M41.059,80.851c-3.394,0-6.154-2.761-6.154-6.153V55.394H15.002c-2.46,0-4.461-2.001-4.461-4.462s2.001-4.462,4.461-4.462
			h19.902v-5.462H15.002c-2.46,0-4.461-2.001-4.461-4.462c0-2.46,2.001-4.461,4.461-4.461h13.862L12.352,9.82
			c-2.021-2.726-1.448-6.588,1.276-8.61C14.697,0.418,15.963,0,17.291,0c1.942,0,3.792,0.93,4.948,2.488l18.678,25.186l17.609-24.93
			c1.152-1.631,3.033-2.604,5.032-2.604c1.275,0,2.502,0.39,3.546,1.128c2.771,1.958,3.434,5.805,1.477,8.577L52.87,32.085h12.977
			c2.461,0,4.463,2.001,4.463,4.461s-2.002,4.462-4.463,4.462H47.213v5.462h18.633c2.461,0,4.463,2.001,4.463,4.462
			s-2.002,4.462-4.463,4.462H47.213v19.304C47.213,78.09,44.452,80.851,41.059,80.851z M15.002,49.47
			c-0.806,0-1.461,0.656-1.461,1.462c0,0.807,0.655,1.462,1.461,1.462h21.402c0.828,0,1.5,0.671,1.5,1.5v20.804
			c0,1.738,1.415,3.153,3.154,3.153c1.739,0,3.154-1.415,3.154-3.153V53.894c0-0.829,0.672-1.5,1.5-1.5h20.133
			c0.808,0,1.463-0.655,1.463-1.462c0-0.806-0.655-1.462-1.463-1.462H45.713c-0.828,0-1.5-0.671-1.5-1.5v-8.355
			c0-0.311,0.097-0.614,0.275-0.868l0.076-0.107c0.281-0.396,0.737-0.632,1.225-0.632h20.057c0.807,0,1.463-0.656,1.463-1.462
			c0-0.806-0.656-1.461-1.463-1.461H49.973c-0.561,0-1.074-0.313-1.332-0.81s-0.217-1.098,0.105-1.556L66.13,8.114
			c1.003-1.42,0.664-3.393-0.757-4.396C64.838,3.34,64.211,3.14,63.559,3.14c-1.025,0-1.99,0.499-2.58,1.334L42.171,31.097
			c-0.278,0.393-0.728,0.629-1.208,0.635c-0.509-0.006-0.936-0.22-1.223-0.606L19.828,4.275C19.227,3.464,18.302,3,17.291,3
			c-0.68,0-1.328,0.214-1.876,0.62c-1.396,1.036-1.688,3.016-0.652,4.413l18.287,24.659c0.337,0.455,0.39,1.062,0.135,1.568
			c-0.255,0.506-0.773,0.826-1.34,0.826H15.002c-0.806,0-1.461,0.655-1.461,1.461c0,0.806,0.655,1.462,1.461,1.462h21.234
			c0.477,0,0.924,0.226,1.207,0.609l0.168,0.228c0.19,0.258,0.293,0.57,0.293,0.891v8.234c0,0.829-0.672,1.5-1.5,1.5L15.002,49.47
			L15.002,49.47z"/>
	</g>
</g>
</svg>