<?xml version="1.0" encoding="iso-8859-1"?>
<!-- Uploaded to: SVG Repo, www.svgrepo.com, Generator: SVG Repo Mixer Tools -->
<!DOCTYPE svg PUBLIC "-//W3C//DTD SVG 1.1//EN" "http://www.w3.org/Graphics/SVG/1.1/DTD/svg11.dtd">
<svg fill="#000000" version="1.1" id="Capa_1" xmlns="http://www.w3.org/2000/svg" xmlns:xlink="http://www.w3.org/1999/xlink" 
	 width="800px" height="800px" viewBox="0 0 85.759 85.759"
	 xml:space="preserve">
<g>
	<g>
		<g>
			<path d="M67.031,82.837c-2.609,0-4.732-2.123-4.732-4.732v-7.226c-8.795-1.567-13.502-7.435-13.992-17.456
				c0.025-2.822,2.131-4.886,4.893-4.886c2.664,0,4.832,2.157,4.832,4.808v0.436c0.138,3.65,1.507,5.973,4.269,7.145V46.068
				c-1.703-0.547-3.207-1.101-4.479-1.649c-1.912-0.822-3.527-1.843-4.799-3.035c-1.31-1.222-2.281-2.736-2.894-4.498
				c-0.592-1.712-0.892-3.857-0.892-6.376c0-2.317,0.396-4.471,1.183-6.402c0.791-1.942,1.948-3.653,3.444-5.084
				c1.488-1.424,3.308-2.557,5.406-3.368c0.928-0.358,1.943-0.64,3.029-0.841v-7.16c0-2.61,2.123-4.733,4.732-4.733
				s4.731,2.124,4.731,4.733v7.252c7.828,1.443,12.048,6.295,12.548,14.439l0.062,0.521c0.006,0.062,0.01,0.124,0.01,0.186
				c-0.029,2.69-2.18,4.797-4.896,4.797c-2.604,0-4.719-2.036-4.815-4.634l-0.015-0.226c-0.008-0.048-0.014-0.098-0.018-0.147
				c-0.184-2.446-1.107-4.089-2.875-5.051V37.37c1.807,0.587,3.42,1.183,4.809,1.776c2.005,0.854,3.701,1.914,5.048,3.148
				c1.383,1.269,2.436,2.856,3.125,4.724c0.674,1.827,1.014,4.067,1.014,6.658c0,2.441-0.422,4.753-1.254,6.869
				c-0.838,2.127-2.063,4.011-3.646,5.602c-1.578,1.584-3.506,2.856-5.729,3.78c-1.019,0.423-2.146,0.753-3.364,0.985v7.193
				C71.764,80.714,69.641,82.837,67.031,82.837z M53.199,51.538c-1.123,0-1.885,0.733-1.896,1.827
				c0.443,9,4.474,13.712,12.681,14.736c0.75,0.094,1.313,0.732,1.313,1.488v8.518c0,0.955,0.776,1.731,1.731,1.731
				s1.732-0.776,1.732-1.731v-8.476c0-0.755,0.562-1.394,1.311-1.487c1.464-0.188,2.777-0.52,3.904-0.988
				c1.857-0.771,3.457-1.822,4.756-3.125c1.289-1.297,2.291-2.84,2.979-4.584c0.692-1.764,1.045-3.705,1.045-5.771
				c0-2.235-0.276-4.127-0.828-5.62c-0.521-1.412-1.309-2.607-2.338-3.55c-1.096-1.004-2.508-1.879-4.196-2.601
				c-1.562-0.666-3.437-1.341-5.576-2.005c-0.627-0.195-1.056-0.776-1.056-1.433V22.64c0-0.46,0.212-0.895,0.574-1.179
				c0.36-0.285,0.832-0.387,1.28-0.278c4.195,1.021,6.611,3.874,6.996,8.257c0.015,0.066,0.021,0.133,0.025,0.202l0.025,0.43
				c0.039,1.011,0.838,1.778,1.82,1.778c1.061,0,1.844-0.73,1.895-1.748l-0.057-0.495c-0.445-7.22-4.021-10.986-11.254-11.931
				c-0.748-0.098-1.308-0.734-1.308-1.487V7.654c0-0.956-0.776-1.733-1.731-1.733s-1.732,0.778-1.732,1.733v8.447
				c0,0.759-0.566,1.398-1.32,1.489c-1.344,0.163-2.563,0.453-3.629,0.863c-1.727,0.667-3.213,1.588-4.412,2.736
				c-1.188,1.137-2.111,2.499-2.74,4.046c-0.639,1.571-0.961,3.345-0.961,5.273c0,2.185,0.244,4,0.728,5.395
				c0.446,1.295,1.155,2.402,2.104,3.288c1.021,0.955,2.345,1.785,3.937,2.47c1.435,0.617,3.192,1.244,5.231,1.867
				c0.631,0.191,1.063,0.773,1.063,1.435v17.989c0,0.453-0.205,0.883-0.56,1.167c-0.352,0.284-0.812,0.395-1.26,0.298
				c-5.311-1.15-8.231-4.811-8.449-10.583v-0.492C55.031,52.348,54.209,51.538,53.199,51.538z M70.264,64.609
				c-0.354,0-0.699-0.125-0.973-0.357c-0.334-0.285-0.527-0.703-0.527-1.143V47.083c0-0.486,0.236-0.942,0.633-1.224
				c0.397-0.28,0.904-0.352,1.361-0.192l-0.494,1.416l0.504-1.413c0.33,0.115,0.664,0.232,0.959,0.339
				c1.771,0.64,3.187,1.313,4.205,2.005c1.213,0.82,2.059,1.805,2.516,2.926c0.402,0.994,0.607,2.187,0.607,3.547
				c0,3.146-0.992,5.688-2.947,7.556c-1.371,1.312-3.258,2.169-5.604,2.548C70.424,64.603,70.344,64.609,70.264,64.609z
				 M71.764,49.234v11.967c0.922-0.321,1.684-0.766,2.271-1.327c1.34-1.28,2.02-3.093,2.02-5.388c0-0.971-0.131-1.783-0.387-2.416
				c-0.229-0.562-0.705-1.09-1.418-1.571C73.633,50.081,72.799,49.656,71.764,49.234z M63.799,37.953
				c-0.16,0-0.32-0.025-0.475-0.077c-0.346-0.115-0.68-0.227-0.979-0.331c-1.768-0.611-3.073-1.24-3.991-1.922
				c-1.111-0.824-1.818-1.795-2.101-2.885c-0.209-0.81-0.313-1.831-0.313-3.038c0-1.486,0.311-2.832,0.92-4
				c0.606-1.163,1.457-2.133,2.522-2.883c0.998-0.702,2.158-1.231,3.447-1.575c0.184-0.049,0.37-0.09,0.557-0.13
				c0.443-0.098,0.951,0.001,1.308,0.287c0.354,0.285,0.604,0.704,0.604,1.158v13.896c0,0.482-0.231,0.935-0.623,1.217
				C64.416,37.855,64.109,37.953,63.799,37.953z M62.299,24.599c-0.43,0.192-0.826,0.417-1.191,0.672
				c-0.67,0.472-1.205,1.083-1.588,1.818c-0.385,0.735-0.58,1.613-0.58,2.61c0,1.189,0.119,1.901,0.219,2.289
				c0.105,0.407,0.437,0.82,0.982,1.226c0.494,0.366,1.217,0.74,2.158,1.115V24.599z"/>
		</g>
		<g>
			<path d="M43.043,71.64H2.5c-1.379,0-2.5-1.121-2.5-2.5v-5.261c0-0.545,0.182-1.084,0.514-1.519l22.58-29.383
				c1.203-1.48,2.273-2.784,3.33-4.046H4.563c-1.379,0-2.5-1.122-2.5-2.5v-7.222c0-1.378,1.121-2.5,2.5-2.5h38.068
				c1.379,0,2.5,1.122,2.5,2.5v5.674c0,0.551-0.186,1.094-0.521,1.527L22.225,55.5c-0.852,1.109-1.914,2.475-3.096,3.919h23.914
				c1.379,0,2.5,1.122,2.5,2.5v7.222C45.543,70.519,44.422,71.64,43.043,71.64z M3,68.64h39.543v-6.221H15.908
				c-0.586,0-1.117-0.34-1.363-0.871c-0.244-0.531-0.158-1.156,0.221-1.602l0.703-0.825c1.689-1.981,3.229-3.954,4.379-5.451
				l22.283-28.958v-5.003H5.063v6.222h24.605c0.586,0,1.117,0.341,1.361,0.873c0.246,0.532,0.158,1.158-0.223,1.603l-0.705,0.825
				c-1.523,1.778-2.963,3.527-4.656,5.606L3,64.049V68.64z"/>
		</g>
	</g>
</g>
</svg>