<svg xmlns="http://www.w3.org/2000/svg" width="200" height="40" viewBox="0 0 200 40" fill="none">
  <g clip-path="url(#clip0_755_48512)">
    <path d="M30.6628 7.47076C30.6628 7.47076 12.8068 16.7736 12.5953 16.9408C12.3838 17.1079 12.1571 17.6702 12.5117 18.2983C12.8663 18.9265 18.6385 31.1623 18.6385 31.1623L16.0437 33.5684L13.7832 30.681L5.16162 15.6757L29.323 6.15625H31.7709L30.6628 7.47076Z" fill="#F58020"/>
    <path d="M30.1777 6.47931C30.1777 6.47931 10.3664 16.6104 10.0524 16.9219C9.73831 17.2334 9.61294 17.5551 10.0524 18.3035C10.4918 19.052 18.5561 31.0054 18.5561 31.0054C18.5561 31.0054 18.0952 31.7589 17.405 30.8787C16.7148 29.9986 7.19668 17.569 7.19668 17.569C7.19668 17.569 6.51663 16.176 7.86659 15.4554C9.21656 14.7349 29.4027 6.0918 29.4027 6.0918C29.6918 6.14726 29.9599 6.28134 30.1777 6.47931Z" fill="#EC6823"/>
    <path d="M26.0215 12.8288L27.7235 8.54086C27.7235 8.54086 27.84 7.44417 26.2532 7.90767C24.3904 8.48514 8.96835 16.3443 8.96835 16.3443C8.96835 16.3443 7.04345 17.1839 8.47826 18.829C9.91307 20.474 17.6342 29.5704 17.6342 29.5704C17.6342 29.5704 18.6473 30.9711 19.8035 28.3813C20.9597 25.7915 24.6677 16.7306 24.6677 16.7306C24.6677 16.7306 24.9121 15.6807 26.3824 15.4009C27.8527 15.121 30.2259 14.8019 30.2259 14.8019C30.2259 14.8019 31.3162 14.7006 30.7565 16.3456C30.1967 17.9906 23.4115 37.9704 23.4115 37.9704C23.4115 37.9704 22.3984 39.7788 20.9116 39.9421C19.4249 40.1055 18.1623 40.1042 16.2729 37.7247C14.3834 35.3451 0.686201 17.9425 0.506374 17.7551C0.230528 17.4792 0.057553 17.1172 0.0162835 16.7293C-0.0128434 16.2861 0.00995154 15.197 0.00995154 15.197C0.00995154 15.197 -0.000179585 14.2801 1.43337 13.6495C2.86691 13.0188 31.3757 0.295437 31.3757 0.295437C31.3757 0.295437 32.3306 -0.0325562 33.0651 0.000369771C33.7996 0.0332958 34.9647 0.127008 35.2002 0.244782C35.4358 0.362556 35.9702 0.525919 35.4104 2.37991C34.8507 4.23389 32.4357 11.2712 32.4357 11.2712C32.4357 11.2712 32.2926 11.8297 31.0706 12.145C29.8485 12.4603 27.0472 13.2974 26.6965 13.2974C26.3457 13.2974 26.0468 13.0581 26.0215 12.8288Z" fill="#1D4FA3"/>
    <path d="M0.506348 17.7545C0.692506 17.9419 14.3859 35.3433 16.2754 37.7228C18.1648 40.1024 19.4249 40.1024 20.9141 39.9403C22.4034 39.7782 23.414 37.9685 23.414 37.9685C23.414 37.9685 30.2031 17.9875 30.759 16.3437C31.3149 14.7 30.2284 14.8 30.2284 14.8C30.2284 14.8 27.8539 15.1191 26.3849 15.399C24.9159 15.6789 24.6702 16.7287 24.6702 16.7287C24.6702 16.7287 20.961 25.791 19.806 28.3794C19.806 28.3794 18.7929 30.9806 18.2319 31.3073C17.6709 31.634 16.7363 31.9127 15.1964 30.702C13.6565 29.4913 0.506348 17.7545 0.506348 17.7545Z" fill="#2B62AE"/>
    <path d="M43.7282 26.6314H38.807C38.675 26.6218 38.5429 26.6508 38.4271 26.715C38.3919 26.7358 38.3624 26.7651 38.3416 26.8003C38.3208 26.8356 38.3093 26.8755 38.3081 26.9164V29.1021C38.3011 29.1495 38.3067 29.198 38.3245 29.2425C38.3423 29.287 38.3716 29.3259 38.4094 29.3554C38.537 29.4052 38.6742 29.4256 38.8108 29.4149H41.7615C41.8974 29.4262 42.0334 29.3957 42.1515 29.3276C42.1888 29.303 42.2192 29.2695 42.24 29.2301C42.2608 29.1907 42.2713 29.1467 42.2706 29.1021V28.469H40.1975V27.4432H43.7434V29.3162C43.7481 29.5078 43.7238 29.6991 43.6712 29.8835C43.6188 30.0408 43.5293 30.1833 43.4103 30.2989C43.2933 30.4111 43.1568 30.5013 43.0076 30.5648C42.8318 30.6354 42.6474 30.6823 42.4593 30.7041C42.1912 30.7384 41.9215 30.7583 41.6513 30.7636C41.3335 30.7738 40.8725 30.7776 40.2697 30.7776C39.6669 30.7776 39.2085 30.7776 38.8919 30.7636C38.6242 30.7582 38.357 30.7384 38.0915 30.7041C37.9077 30.6831 37.7278 30.6362 37.5571 30.5648C37.4133 30.5003 37.2824 30.4102 37.1709 30.2989C37.0414 30.1909 36.9434 30.05 36.8872 29.8911C36.8317 29.7047 36.806 29.5106 36.8112 29.3162V26.7973C36.8112 26.3026 36.9594 25.9265 37.2557 25.669C37.5533 25.4157 38.0041 25.2891 38.612 25.2891H43.7282V26.6314Z" fill="#010101"/>
    <path d="M44.692 26.6782C44.687 26.4912 44.7127 26.3047 44.768 26.126C44.8271 25.9682 44.9246 25.8276 45.0517 25.717C45.169 25.6004 45.3068 25.5064 45.4582 25.4396C45.637 25.3676 45.825 25.3208 46.0167 25.3003C46.2858 25.2693 46.5563 25.252 46.8271 25.2484C47.1437 25.2408 47.6313 25.2383 48.2911 25.2383C48.9509 25.2383 49.4372 25.2383 49.7525 25.2484C50.0208 25.2519 50.2888 25.2692 50.5554 25.3003C50.7446 25.3207 50.9301 25.3676 51.1063 25.4396C51.2558 25.5062 51.3916 25.6003 51.5064 25.717C51.635 25.8274 51.7342 25.9679 51.7952 26.126C51.8505 26.3047 51.8761 26.4912 51.8711 26.6782V29.3439C51.8758 29.535 51.8502 29.7256 51.7952 29.9087C51.7384 30.0699 51.6407 30.2135 51.5115 30.3253C51.3937 30.4391 51.2559 30.5302 51.105 30.5938C50.9237 30.665 50.7338 30.7119 50.5402 30.7331C50.3148 30.7622 50.0336 30.7825 49.7082 30.7914C49.3827 30.8002 48.9002 30.8053 48.2759 30.8053C47.6516 30.8053 47.1716 30.8053 46.8461 30.7914C46.5207 30.7774 46.2446 30.7622 46.0192 30.7331C45.8282 30.7131 45.6411 30.6662 45.4632 30.5938C45.314 30.5271 45.1767 30.4364 45.0567 30.3253C44.9272 30.2138 44.8293 30.0701 44.7731 29.9087C44.718 29.7256 44.6924 29.535 44.6971 29.3439L44.692 26.6782ZM46.2307 29.1273C46.2257 29.1728 46.2327 29.2188 46.2509 29.2608C46.2691 29.3027 46.2979 29.3393 46.3345 29.3667C46.4592 29.4209 46.5954 29.4435 46.7309 29.4325H49.8272C49.9661 29.4422 50.1048 29.4123 50.2274 29.3464C50.2658 29.3242 50.2978 29.2923 50.32 29.2538C50.3422 29.2154 50.354 29.1718 50.354 29.1273V26.9162C50.3603 26.8665 50.3539 26.816 50.3353 26.7695C50.3167 26.723 50.2865 26.6819 50.2476 26.6503C50.123 26.5928 49.9855 26.5688 49.8487 26.5806H46.7296C46.5946 26.5685 46.4592 26.6 46.3434 26.6706C46.3062 26.6994 46.2764 26.7368 46.2565 26.7796C46.2367 26.8223 46.2274 26.8692 46.2294 26.9162L46.2307 29.1273Z" fill="#010101"/>
    <path d="M58.1487 29.4351V30.7572H52.7476V25.2852H54.4546V29.4351H58.1487Z" fill="#010101"/>
    <path d="M58.9819 30.7572H58.9351V25.2852H64.2602C64.863 25.2852 65.3105 25.4118 65.6026 25.6651C65.8947 25.9183 66.0407 26.2886 66.0407 26.7757V29.2667C66.0407 29.7538 65.8947 30.124 65.6026 30.3773C65.3105 30.6306 64.863 30.7572 64.2602 30.7572H58.9819ZM60.5421 29.4617H64.0702C64.1987 29.4721 64.3271 29.442 64.4375 29.3756C64.4735 29.3501 64.5028 29.3163 64.5229 29.2771C64.543 29.2378 64.5532 29.1943 64.5527 29.1502V26.9163C64.5531 26.8718 64.5428 26.828 64.5228 26.7883C64.5027 26.7486 64.4735 26.7144 64.4375 26.6883C64.3273 26.6214 64.1988 26.5909 64.0702 26.6009H60.5244V29.4617H60.5421Z" fill="#010101"/>
    <path d="M72.9855 29.4832V30.7572H66.9917V25.2852H72.9906V26.5515H68.6937V27.4697H72.7234V28.5778H68.6937V29.482L72.9855 29.4832Z" fill="#010101"/>
    <path d="M75.5399 30.7369H73.9316V25.2852H76.7177L80.0103 29.3439L80.0381 29.4148V25.2852H81.6452V30.7369H78.8731L75.5602 26.6516L75.5399 26.6009V30.7369Z" fill="#010101"/>
    <path d="M90.4071 30.7572H88.5417L86.2622 25.2852H88.0022L89.4066 28.9184H89.4332L90.673 25.2852H92.5118L93.7389 28.9184L95.17 25.2852H96.91L94.6368 30.7572H92.7803L91.5975 26.9302L90.4071 30.7572Z" fill="#010101"/>
    <path d="M99.3543 25.2852V30.7572H97.6484V25.2852H99.3543Z" fill="#010101"/>
    <path d="M101.935 30.7369H100.328V25.2852H103.114L106.4 29.3439L106.427 29.4148V25.2852H108.034V30.7369H105.27L101.955 26.6516L101.935 26.6009V30.7369Z" fill="#010101"/>
    <path d="M115.891 26.6314H110.97C110.838 26.6219 110.706 26.651 110.59 26.715C110.554 26.7358 110.525 26.7651 110.504 26.8003C110.483 26.8356 110.472 26.8755 110.471 26.9164V29.1021C110.464 29.1497 110.469 29.1983 110.487 29.2428C110.505 29.2874 110.535 29.3263 110.573 29.3554C110.7 29.4054 110.837 29.4258 110.973 29.4149H113.924C114.06 29.4262 114.196 29.3957 114.314 29.3276C114.351 29.303 114.382 29.2695 114.403 29.2301C114.423 29.1907 114.434 29.1467 114.433 29.1021V28.469H112.36V27.4432H115.906V29.3162C115.911 29.5078 115.886 29.6991 115.834 29.8835C115.781 30.0406 115.692 30.1829 115.574 30.2989C115.456 30.4109 115.32 30.501 115.17 30.5648C114.994 30.6354 114.81 30.6823 114.622 30.7041C114.354 30.7383 114.085 30.7582 113.815 30.7636C113.496 30.7738 113.036 30.7776 112.434 30.7776C111.831 30.7776 111.371 30.7776 111.054 30.7636C110.787 30.7582 110.52 30.7384 110.254 30.7041C110.07 30.683 109.89 30.6361 109.72 30.5648C109.576 30.5 109.445 30.4099 109.333 30.2989C109.204 30.1909 109.106 30.05 109.05 29.8911C108.994 29.7047 108.969 29.5106 108.974 29.3162V26.7973C108.974 26.3026 109.122 25.9265 109.418 25.669C109.716 25.4157 110.167 25.2891 110.775 25.2891H115.886L115.891 26.6314Z" fill="#010101"/>
    <path d="M123.599 29.0774C123.599 29.6684 123.468 30.096 123.205 30.3602C122.942 30.6249 122.522 30.7566 121.939 30.7566H117V29.5738H121.218C121.308 29.574 121.398 29.5694 121.487 29.5599C121.565 29.5518 121.641 29.5317 121.712 29.5004C121.78 29.4717 121.838 29.4248 121.88 29.3649C121.924 29.2946 121.946 29.2123 121.942 29.1293C121.947 29.0323 121.916 28.9367 121.855 28.8608C121.796 28.791 121.718 28.74 121.63 28.7139C121.536 28.6845 121.438 28.6658 121.34 28.6582C121.241 28.6506 121.118 28.6456 120.974 28.6456L120.229 28.619L119.026 28.5746L118.565 28.5544C118.422 28.5468 118.299 28.5392 118.197 28.5303C117.683 28.5016 117.315 28.3328 117.093 28.0238C116.935 27.7916 116.855 27.4459 116.854 26.9866C116.854 26.4201 116.964 25.9954 117.182 25.7126C117.402 25.4289 117.762 25.2871 118.269 25.2871H123.397V26.4674H119.18C119.095 26.4666 119.01 26.4717 118.926 26.4826C118.854 26.4925 118.784 26.5126 118.717 26.5421C118.653 26.5709 118.599 26.6175 118.56 26.6763C118.517 26.7485 118.496 26.8318 118.501 26.9157C118.492 26.9858 118.505 27.0569 118.539 27.119C118.573 27.181 118.626 27.2309 118.689 27.2614C118.856 27.3237 119.033 27.3517 119.21 27.3437H119.496C119.58 27.3513 119.824 27.3614 120.227 27.3754C120.784 27.3931 121.172 27.407 121.387 27.4159L121.934 27.44C122.083 27.44 122.206 27.4539 122.304 27.4628C122.81 27.4932 123.17 27.678 123.374 28.0212C123.534 28.3496 123.611 28.7122 123.599 29.0774Z" fill="#010101"/>
    <path d="M132.351 30.7559H130.649V26.5515H128.243V25.2852H134.673V26.5515H132.348L132.351 30.7559Z" fill="#010101"/>
    <path d="M135.561 26.6782C135.556 26.4912 135.582 26.3047 135.637 26.126C135.696 25.9682 135.794 25.8276 135.921 25.717C136.038 25.6004 136.176 25.5064 136.327 25.4396C136.506 25.3676 136.694 25.3208 136.886 25.3003C137.155 25.2693 137.425 25.252 137.696 25.2484C138.013 25.2408 138.5 25.2383 139.16 25.2383C139.82 25.2383 140.3 25.2383 140.622 25.2484C140.89 25.2519 141.158 25.2692 141.425 25.3003C141.614 25.3207 141.799 25.3676 141.975 25.4396C142.125 25.5062 142.261 25.6003 142.376 25.717C142.502 25.828 142.6 25.9684 142.659 26.126C142.715 26.3047 142.74 26.4912 142.735 26.6782V29.3439C142.74 29.535 142.714 29.7256 142.659 29.9087C142.603 30.0699 142.505 30.2135 142.376 30.3253C142.258 30.4391 142.12 30.5302 141.969 30.5938C141.788 30.665 141.598 30.7119 141.404 30.7331C141.179 30.7622 140.898 30.7825 140.572 30.7914C140.247 30.8002 139.764 30.8053 139.14 30.8053C138.516 30.8053 138.036 30.8053 137.71 30.7914C137.385 30.7774 137.11 30.7622 136.883 30.7331C136.692 30.7131 136.505 30.6662 136.327 30.5938C136.178 30.5271 136.041 30.4364 135.921 30.3253C135.791 30.2138 135.693 30.0701 135.637 29.9087C135.582 29.7256 135.556 29.535 135.561 29.3439V26.6782ZM137.1 29.1273C137.095 29.1728 137.102 29.2188 137.12 29.2608C137.138 29.3027 137.167 29.3393 137.204 29.3667C137.328 29.4209 137.465 29.4435 137.6 29.4325H140.695C140.834 29.4424 140.973 29.4125 141.095 29.3464C141.133 29.3237 141.165 29.2917 141.187 29.2534C141.209 29.215 141.221 29.1716 141.222 29.1273V26.9162C141.228 26.8664 141.221 26.8158 141.203 26.7693C141.184 26.7228 141.153 26.6818 141.114 26.6503C140.99 26.5928 140.852 26.5688 140.715 26.5806H137.595C137.462 26.5699 137.329 26.6013 137.215 26.6706C137.178 26.6994 137.148 26.7368 137.128 26.7796C137.108 26.8223 137.099 26.8692 137.101 26.9162L137.1 29.1273Z" fill="#010101"/>
    <path d="M154.256 29.0774C154.256 29.6684 154.125 30.096 153.862 30.3602C153.599 30.6245 153.177 30.7566 152.596 30.7566H147.657V29.5738H151.874C151.963 29.574 152.053 29.5694 152.142 29.5599C152.22 29.5518 152.296 29.5317 152.368 29.5004C152.435 29.4717 152.493 29.4248 152.535 29.3649C152.58 29.2947 152.602 29.2125 152.598 29.1293C152.603 29.0321 152.572 28.9366 152.511 28.8608C152.451 28.791 152.373 28.74 152.285 28.7139C152.191 28.6846 152.095 28.6659 151.997 28.6582C151.897 28.6506 151.774 28.6456 151.629 28.6456L150.885 28.619L149.682 28.5746L149.221 28.5544C149.078 28.5468 148.955 28.5392 148.852 28.5303C148.338 28.5016 147.97 28.3328 147.748 28.0238C147.59 27.7916 147.511 27.4459 147.51 26.9866C147.51 26.4201 147.619 25.9954 147.838 25.7126C148.057 25.4289 148.418 25.2871 148.924 25.2871H154.052V26.4674H149.835C149.75 26.4667 149.666 26.4718 149.582 26.4826C149.509 26.4925 149.439 26.5126 149.373 26.5421C149.309 26.5709 149.254 26.6175 149.216 26.6763C149.172 26.7485 149.152 26.8318 149.156 26.9157C149.147 26.9858 149.161 27.0569 149.195 27.119C149.228 27.181 149.281 27.2309 149.345 27.2614C149.511 27.3238 149.689 27.3518 149.867 27.3437H150.151C150.235 27.3513 150.479 27.3614 150.882 27.3754C151.439 27.3931 151.827 27.407 152.042 27.4159L152.589 27.44C152.739 27.44 152.861 27.4539 152.959 27.4628C153.466 27.4932 153.825 27.678 154.029 28.0212C154.19 28.3495 154.267 28.7121 154.256 29.0774Z" fill="#010101"/>
    <path d="M156.81 25.2852V28.9323C156.809 28.9839 156.82 29.0349 156.844 29.0809C156.867 29.1269 156.902 29.1663 156.944 29.1957C157.07 29.2723 157.216 29.3073 157.363 29.2958H159.787C159.941 29.3082 160.095 29.2733 160.229 29.1957C160.272 29.1664 160.306 29.127 160.33 29.081C160.353 29.0351 160.365 28.984 160.365 28.9323V25.2852H162.044V29.1704C162.048 29.3822 162.022 29.5934 161.964 29.7973C161.903 29.9803 161.798 30.1455 161.659 30.2785C161.537 30.3923 161.405 30.4949 161.265 30.585C161.131 30.6582 160.984 30.7067 160.833 30.7281C160.582 30.7673 160.328 30.7884 160.073 30.7914C159.752 30.8007 159.256 30.8053 158.588 30.8053C157.924 30.8053 157.429 30.8053 157.105 30.7914C156.85 30.7883 156.597 30.7671 156.345 30.7281C156.192 30.7056 156.043 30.6563 155.907 30.5824C155.767 30.494 155.636 30.3922 155.516 30.2785C155.377 30.1451 155.272 29.98 155.212 29.7973C155.154 29.5934 155.127 29.3822 155.132 29.1704V25.2852H156.81Z" fill="#010101"/>
    <path d="M162.983 27.59V26.8048C162.983 26.2983 163.129 25.9259 163.419 25.6651C163.709 25.4042 164.155 25.2852 164.758 25.2852H169.465V26.6313H164.948C164.821 26.6225 164.694 26.6516 164.584 26.7149C164.548 26.7366 164.518 26.7672 164.497 26.8038C164.476 26.8404 164.465 26.8817 164.465 26.9239L164.445 27.376V28.6702L164.465 29.102C164.464 29.1488 164.473 29.1952 164.493 29.2375C164.513 29.2798 164.543 29.3167 164.58 29.3452C164.69 29.4137 164.819 29.4452 164.948 29.4351H169.465V30.7572H164.756C164.154 30.7572 163.707 30.6306 163.418 30.3773C163.128 30.124 162.983 29.7496 162.983 29.254V27.59Z" fill="#010101"/>
    <path d="M170.411 27.59V26.8048C170.411 26.2983 170.555 25.9259 170.845 25.6651C171.135 25.4042 171.581 25.2852 172.184 25.2852H176.891V26.6313H172.375C172.248 26.6223 172.121 26.6514 172.011 26.7149C171.975 26.7371 171.945 26.7679 171.925 26.8044C171.904 26.8408 171.893 26.8819 171.892 26.9239L171.871 27.376V28.6702L171.892 29.102C171.89 29.1489 171.9 29.1955 171.92 29.2378C171.94 29.2802 171.971 29.317 172.008 29.3452C172.118 29.4138 172.246 29.4454 172.375 29.4351H176.891V30.7572H172.184C171.581 30.7572 171.135 30.6306 170.845 30.3773C170.556 30.124 170.411 29.7483 170.411 29.2502V27.59Z" fill="#010101"/>
    <path d="M183.832 29.4832V30.7572H177.834V25.2852H183.832V26.5515H179.54V27.4697H183.571V28.5778H179.54V29.482L183.832 29.4832Z" fill="#010101"/>
    <path d="M191.525 29.0774C191.525 29.6684 191.394 30.096 191.13 30.3602C190.867 30.6245 190.445 30.7566 189.864 30.7566H184.925V29.5738H189.143C189.233 29.574 189.323 29.5693 189.412 29.5599C189.489 29.5516 189.565 29.5316 189.637 29.5004C189.704 29.4717 189.762 29.4247 189.803 29.3649C189.848 29.295 189.871 29.2125 189.866 29.1293C189.871 29.0324 189.84 28.937 189.78 28.8608C189.72 28.791 189.642 28.7399 189.554 28.7139C189.46 28.6843 189.363 28.6656 189.265 28.6582C189.165 28.6506 189.043 28.6456 188.898 28.6456L188.154 28.619L186.951 28.5746L186.49 28.5544C186.346 28.5468 186.223 28.5392 186.122 28.5303C185.608 28.5016 185.239 28.3328 185.016 28.0238C184.858 27.7916 184.779 27.4459 184.779 26.9866C184.779 26.4201 184.889 25.9954 185.107 25.7126C185.326 25.4298 185.688 25.288 186.193 25.2871H191.321V26.4674H187.103C187.018 26.4666 186.934 26.4717 186.85 26.4826C186.778 26.4925 186.707 26.5126 186.641 26.5421C186.576 26.5708 186.521 26.6174 186.483 26.6763C186.44 26.7487 186.419 26.8318 186.423 26.9157C186.415 26.9858 186.428 27.0567 186.462 27.1187C186.496 27.1807 186.548 27.2306 186.612 27.2614C186.778 27.3236 186.956 27.3515 187.134 27.3437H187.425C187.509 27.3513 187.753 27.3619 188.155 27.3754C188.713 27.3931 189.099 27.4066 189.315 27.4159L189.863 27.44C190.011 27.4459 190.134 27.4535 190.231 27.4628C190.738 27.4932 191.099 27.678 191.302 28.0212C191.462 28.3499 191.538 28.7124 191.525 29.0774Z" fill="#010101"/>
    <path d="M199.146 29.0774C199.146 29.6684 199.015 30.096 198.751 30.3602C198.488 30.6245 198.066 30.7566 197.485 30.7566H192.546V29.5738H196.764C196.854 29.574 196.944 29.5693 197.033 29.5599C197.111 29.5516 197.187 29.5316 197.258 29.5004C197.325 29.4717 197.383 29.4247 197.424 29.3649C197.47 29.295 197.492 29.2125 197.487 29.1293C197.492 29.0324 197.462 28.937 197.401 28.8608C197.342 28.791 197.263 28.7399 197.175 28.7139C197.081 28.6843 196.984 28.6656 196.886 28.6582C196.786 28.6506 196.664 28.6456 196.519 28.6456L195.775 28.619L194.572 28.5746L194.111 28.5544C193.967 28.5468 193.844 28.5392 193.743 28.5303C193.229 28.5016 192.86 28.3328 192.637 28.0238C192.479 27.7916 192.4 27.4459 192.4 26.9866C192.4 26.4201 192.51 25.9954 192.728 25.7126C192.947 25.4298 193.309 25.288 193.814 25.2871H198.949V26.4674H194.731C194.646 26.4666 194.561 26.4717 194.477 26.4826C194.405 26.4925 194.335 26.5126 194.268 26.5421C194.204 26.5708 194.149 26.6174 194.11 26.6763C194.067 26.7487 194.047 26.8318 194.05 26.9157C194.042 26.9858 194.056 27.0567 194.09 27.1187C194.123 27.1807 194.176 27.2306 194.239 27.2614C194.406 27.3236 194.583 27.3515 194.761 27.3437H195.047C195.132 27.3513 195.375 27.3619 195.778 27.3754C196.335 27.3931 196.722 27.4066 196.938 27.4159L197.485 27.44C197.633 27.4459 197.755 27.4535 197.853 27.4628C198.36 27.4932 198.721 27.678 198.925 28.0212C199.084 28.35 199.16 28.7125 199.146 29.0774Z" fill="#010101"/>
    <path d="M40.7447 20.1082L39.9102 21.9344H36.8164L41.7224 11.1992H45.2948L50.1489 21.9344H47.0564L46.2396 20.1082H40.7447ZM41.7578 17.7945H45.21L43.4839 13.9295L41.7578 17.7945Z" fill="#1D4FA3"/>
    <path d="M57.1733 18.5088L54.9723 16.1483H58.7068C58.9911 16.149 59.2642 16.0375 59.4667 15.838C59.6812 15.6204 59.8006 15.3266 59.7987 15.021C59.7968 14.7154 59.6737 14.4231 59.4565 14.2082C59.3633 14.1107 59.2515 14.0328 59.1278 13.9791C59.0041 13.9254 58.8709 13.8969 58.736 13.8954H54.5898V21.9357H51.7949V11.2005H58.9728C59.4985 11.1899 60.0234 11.2448 60.5355 11.3639C60.9203 11.4545 61.2761 11.6405 61.5701 11.9046C61.8569 12.1854 62.0633 12.5379 62.1679 12.9253C62.3108 13.4538 62.3765 14.0002 62.3629 14.5476C62.3629 15.9034 62.1476 16.9026 61.717 17.5451C61.2865 18.1876 60.557 18.5088 59.5287 18.5088H57.1733Z" fill="#1D4FA3"/>
    <path d="M67.0514 11.1992V18.3543C67.0482 18.4508 67.0662 18.5468 67.1041 18.6356C67.1419 18.7244 67.1987 18.8039 67.2705 18.8684C67.4174 18.9951 67.6504 19.0647 67.9569 19.0647H71.9181C72.2525 19.0647 72.4931 19.0001 72.6412 18.8684C72.7143 18.8042 72.7722 18.7245 72.8108 18.6352C72.8493 18.5458 72.8675 18.449 72.8641 18.3518V11.1992H75.6033V18.8203C75.612 19.2343 75.5695 19.6477 75.4767 20.0512C75.3829 20.3988 75.2129 20.7211 74.979 20.9947C74.7838 21.2157 74.568 21.4176 74.3344 21.5975C74.1206 21.7377 73.8807 21.8334 73.629 21.8786C73.2204 21.955 72.8061 21.9974 72.3905 22.0053C71.8637 22.023 71.054 22.0319 69.9616 22.0319C68.8691 22.0319 68.0607 22.023 67.5364 22.0053C67.1178 21.9977 66.7006 21.9553 66.289 21.8786C66.0334 21.8315 65.7896 21.7338 65.5723 21.5912C65.342 21.4138 65.1299 21.214 64.9391 20.9947C64.7047 20.7214 64.5346 20.399 64.4414 20.0512C64.3479 19.6478 64.3054 19.2343 64.3148 18.8203V11.1992H67.0514Z" fill="#1D4FA3"/>
    <path d="M88.7469 18.6418C88.7469 19.8001 88.532 20.6388 88.1023 21.1581C87.6726 21.6773 86.9837 21.936 86.0356 21.9344H77.956V19.6143H84.8477C84.9942 19.6151 85.1405 19.6062 85.2859 19.5877C85.415 19.5709 85.5402 19.5315 85.6556 19.4712C85.7697 19.4095 85.8641 19.3169 85.9279 19.204C86.0022 19.0612 86.0376 18.9014 86.0305 18.7405C86.0398 18.5544 85.9901 18.37 85.8886 18.2137C85.7977 18.0831 85.6692 17.9833 85.5201 17.9275C85.3684 17.8696 85.2095 17.8325 85.0478 17.8173C84.8844 17.8009 84.6843 17.7945 84.4475 17.7945C84.3069 17.7857 83.9004 17.768 83.2305 17.7401C82.1862 17.6953 81.5306 17.6666 81.2638 17.654C80.997 17.6413 80.7438 17.6278 80.504 17.6135C80.2684 17.6008 80.0684 17.5856 79.9012 17.5666C79.0569 17.51 78.455 17.177 78.0953 16.5674C77.837 16.1141 77.7074 15.4361 77.7065 14.5336C77.7065 13.4217 77.8851 12.588 78.2422 12.0325C78.5993 11.477 79.1903 11.1992 80.0152 11.1992H88.3999V13.5205H81.5184C81.3815 13.5196 81.2447 13.5293 81.1093 13.5496C80.9902 13.5696 80.8751 13.609 80.7687 13.6661C80.66 13.7275 80.5719 13.8196 80.5154 13.9308C80.4443 14.0769 80.4107 14.2384 80.4179 14.4006C80.4179 14.7426 80.5205 14.968 80.7256 15.0769C80.9931 15.1983 81.2857 15.2543 81.5791 15.2402H82.0464C82.1832 15.2529 82.5813 15.2728 83.2406 15.2998C84.1516 15.3369 84.7848 15.3635 85.1402 15.3796L86.0356 15.4264C86.2774 15.4403 86.4788 15.4555 86.6384 15.4733C87.4716 15.5315 88.055 15.8962 88.3885 16.5674C88.6283 17.1221 88.7477 17.8135 88.7469 18.6418Z" fill="url(#paint0_linear_755_48512)"/>
    <path d="M113.949 19.3298V21.9246H103.354V11.1895H106.702V19.3298H113.949Z" fill="#F58020"/>
    <path d="M142.805 21.9246V11.1895H154.709V13.7944H146.441V15.6826H154.132V18.2888H146.441V21.9246H142.805Z" fill="#F58020"/>
    <path d="M180.84 21.9246L179.765 18.3509H176.333V21.9246H172.682V11.1895H181.027C181.963 11.1895 182.67 11.3161 183.15 11.5694C183.377 11.6846 183.579 11.8441 183.744 12.0385C183.909 12.2329 184.033 12.4584 184.109 12.7015C184.27 13.2005 184.351 13.8919 184.351 14.7759C184.351 15.6091 184.267 16.2727 184.098 16.7666C183.93 17.261 183.578 17.6715 183.115 17.9127L184.582 21.9233L180.84 21.9246ZM180.365 15.87C180.428 15.8499 180.486 15.8145 180.532 15.7667C180.579 15.719 180.612 15.6605 180.631 15.5965C180.689 15.3476 180.712 15.0919 180.7 14.8366C180.709 14.5824 180.693 14.328 180.654 14.0768C180.64 14.0126 180.609 13.9533 180.565 13.9051C180.52 13.8569 180.463 13.8217 180.4 13.8033C180.16 13.745 179.914 13.7215 179.667 13.7336H176.33V15.9333H179.683C179.911 15.9429 180.139 15.9216 180.361 15.87H180.365Z" fill="#F58020"/>
    <path d="M195.667 21.9246V15.8865H195.496L194.06 21.9246H191.642L190.211 15.8865H190.039V21.9246H186.654V11.1895H191.647L192.848 16.2284H192.99L194.175 11.1895H199.152V21.9246H195.667Z" fill="#F58020"/>
    <path d="M96.0985 18.4958L93.8975 16.1366H97.6384C97.9225 16.1367 98.1954 16.0253 98.3982 15.8263C98.5113 15.7139 98.5992 15.5788 98.6561 15.4299C98.7131 15.281 98.7379 15.1218 98.7287 14.9626C98.718 14.6747 98.5959 14.4023 98.3881 14.2028C98.295 14.1051 98.1832 14.027 98.0595 13.973C97.9358 13.9191 97.8025 13.8904 97.6675 13.8887H93.515V21.9303H90.729V11.1888H97.9069C98.4325 11.1782 98.9575 11.233 99.4696 11.3522C99.853 11.4425 100.207 11.6285 100.499 11.8929C100.785 12.1715 100.991 12.5212 101.097 12.906C101.24 13.4349 101.306 13.9818 101.292 14.5295C101.292 15.8854 101.077 16.8841 100.647 17.5258C100.218 18.1674 99.4877 18.4887 98.4577 18.4895L96.0985 18.4958Z" fill="#F58020"/>
    <path d="M119.438 20.0972L118.604 21.9246H115.509L120.415 11.1895H123.988L128.844 21.9246H125.752L124.935 20.0972H119.438ZM120.451 17.7835H123.907L122.179 13.9223L120.451 17.7835Z" fill="#F58020"/>
    <path d="M136.178 21.9246H132.844V13.6766H128.13V11.1895H140.745V13.6766H136.186L136.178 21.9246Z" fill="#F58020"/>
    <path d="M156.779 13.9679C156.769 13.6071 156.819 13.2472 156.927 12.9029C157.04 12.598 157.228 12.3264 157.474 12.1126C157.7 11.8884 157.965 11.7072 158.256 11.5782C158.602 11.4395 158.964 11.3492 159.334 11.3098C159.767 11.2549 160.289 11.2211 160.898 11.2084C161.508 11.1958 162.448 11.1895 163.72 11.1895C164.991 11.1895 165.93 11.1958 166.537 11.2084C167.055 11.2159 167.573 11.2497 168.087 11.3098C168.452 11.3492 168.809 11.4395 169.149 11.5782C169.436 11.7072 169.697 11.8884 169.919 12.1126C170.164 12.3267 170.352 12.5982 170.467 12.9029C170.574 13.2474 170.624 13.6072 170.614 13.9679V19.1056C170.623 19.475 170.573 19.8434 170.467 20.1972C170.358 20.5082 170.168 20.7851 169.919 21.0001C169.692 21.2198 169.427 21.3954 169.136 21.5181C168.787 21.6529 168.422 21.7415 168.049 21.7815C167.615 21.8389 167.079 21.876 166.444 21.8929C165.808 21.9098 164.887 21.9187 163.682 21.9195C162.471 21.9195 161.552 21.9107 160.925 21.8929C160.297 21.8752 159.766 21.8381 159.329 21.7815C158.961 21.7421 158.601 21.6517 158.258 21.513C157.971 21.3838 157.706 21.2089 157.475 20.9951C157.225 20.7803 157.036 20.5033 156.928 20.1922C156.821 19.8385 156.771 19.47 156.78 19.1006L156.779 13.9679ZM159.748 18.6928C159.748 18.9157 159.814 19.0727 159.947 19.155C160.08 19.2373 160.336 19.2816 160.707 19.2816H166.678C167.027 19.2816 167.285 19.2259 167.452 19.1145C167.527 19.0723 167.59 19.0111 167.635 18.9369C167.679 18.8626 167.703 18.778 167.705 18.6915V14.4263C167.705 14.1731 167.637 14.0021 167.499 13.9122C167.36 13.8223 167.105 13.7779 166.729 13.7779H160.704C160.355 13.7779 160.107 13.8358 159.961 13.9514C159.889 14.0074 159.832 14.0797 159.794 14.1623C159.756 14.2449 159.738 14.3354 159.742 14.4263L159.748 18.6928Z" fill="#F58020"/>
  </g>
  <defs>
    <linearGradient id="paint0_linear_755_48512" x1="61.9489" y1="-7.40903" x2="94.148" y2="28.9451" gradientUnits="userSpaceOnUse">
      <stop stop-color="#58B1E4"/>
      <stop offset="1" stop-color="#1D4FA2"/>
    </linearGradient>
    <clipPath id="clip0_755_48512">
      <rect width="199.146" height="40" fill="white"/>
    </clipPath>
  </defs>
</svg>