<svg width="14" height="14" viewBox="0 0 14 14" fill="none" xmlns="http://www.w3.org/2000/svg">
<path d="M1.91102 0C1.52205 3.44238e-05 1.1483 0.151165 0.868636 0.421505C0.588967 0.691846 0.425249 1.06025 0.412023 1.449L0.0360236 12.449C0.0291806 12.6501 0.0628875 12.8506 0.135137 13.0385C0.207386 13.2263 0.316701 13.3977 0.456569 13.5424C0.596438 13.6871 0.764001 13.8022 0.949279 13.8808C1.13456 13.9595 1.33376 14 1.53502 14H3.46552C3.66683 14 3.86609 13.9596 4.05142 13.881C4.23676 13.8024 4.40438 13.6873 4.5443 13.5426C4.68423 13.3979 4.79358 13.2265 4.86587 13.0386C4.93815 12.8507 4.97187 12.6502 4.96502 12.449L4.58852 1.449C4.5753 1.06034 4.41165 0.692006 4.13209 0.421679C3.85253 0.151352 3.47891 0.000164046 3.09002 0H1.91102ZM1.41152 1.483C1.41593 1.35336 1.47055 1.23051 1.56385 1.14039C1.65714 1.05026 1.78181 0.999925 1.91152 1H3.08952C3.21924 0.999925 3.34391 1.05026 3.4372 1.14039C3.53049 1.23051 3.58511 1.35336 3.58952 1.483L3.96552 12.483C3.96781 12.5501 3.95656 12.6169 3.93246 12.6796C3.90835 12.7422 3.87188 12.7994 3.82523 12.8476C3.77857 12.8958 3.72267 12.9342 3.66088 12.9604C3.59908 12.9866 3.53264 13 3.46552 13H1.53552C1.46841 13 1.40197 12.9866 1.34017 12.9604C1.27837 12.9342 1.22248 12.8958 1.17582 12.8476C1.12916 12.7994 1.09269 12.7422 1.06859 12.6796C1.04449 12.6169 1.03324 12.5501 1.03552 12.483L1.41152 1.483ZM4.78852 14H12.2505C12.7147 14 13.1598 13.8156 13.488 13.4874C13.8161 13.1592 14.0005 12.7141 14.0005 12.25V2.5C14.0005 2.40112 13.9712 2.30448 13.9162 2.22227C13.8613 2.14007 13.7832 2.076 13.6919 2.03816C13.6005 2.00033 13.5 1.99042 13.403 2.00971C13.306 2.02899 13.217 2.0766 13.147 2.1465L9.50002 5.793V2.5C9.5 2.40112 9.47067 2.30448 9.41572 2.22227C9.36078 2.14007 9.2827 2.076 9.19135 2.03816C9.1 2.00033 8.99948 1.99042 8.90251 2.00971C8.80553 2.02899 8.71645 2.0766 8.64652 2.1465L5.22902 5.5635L5.27602 6.931L8.50002 3.707V7C8.50004 7.09888 8.52938 7.19552 8.58432 7.27773C8.63927 7.35993 8.71735 7.424 8.8087 7.46184C8.90005 7.49967 9.00056 7.50958 9.09754 7.49029C9.19452 7.47101 9.2836 7.42341 9.35352 7.3535L13 3.707V12.25C13 12.4489 12.921 12.6397 12.7804 12.7803C12.6397 12.921 12.4489 13 12.25 13H12V9.25C12 9.05109 11.921 8.86032 11.7804 8.71967C11.6397 8.57902 11.4489 8.5 11.25 8.5H7.25002C7.05111 8.5 6.86035 8.57902 6.71969 8.71967C6.57904 8.86032 6.50002 9.05109 6.50002 9.25V13H5.40202C5.30189 13.3872 5.08853 13.7355 4.78852 14ZM7.50002 13V9.5H11V13H7.50002Z" fill="#A584FF"/>
</svg>
