<svg class="svg-icon" style="width: 1em; height: 1em;vertical-align: middle;fill: currentColor;overflow: hidden;" viewBox="0 0 1024 1024" version="1.1" xmlns="http://www.w3.org/2000/svg"><path d="M459.8 305.8c11 0 20 9 20 20v15c0 11-9 20-20 20H294.2c-11 0-20-9-20-20v-15c0-11 9-20 20-20h165.6zM347.5 458.6c11 0 20 9 20 20v15c0 11-9 20-20 20h-53.2c-11 0-20-9-20-20v-15c0-11 9-20 20-20h53.2zM347.5 617.7c11 0 20 9 20 20v15c0 11-9 20-20 20h-53.2c-11 0-20-9-20-20v-15c0-11 9-20 20-20h53.2z" fill="#2680F0" /><path d="M579.1 345c-116.9 0-211.6 94.7-211.6 211.6 0 116.9 94.7 211.6 211.6 211.6 116.9 0 211.6-94.7 211.6-211.6C790.8 439.7 696 345 579.1 345z m0 369.6c-87.3 0-158-70.8-158-158 0-87.3 70.8-158 158-158s158 70.8 158 158c0.1 87.3-70.7 158-158 158z" fill="#2680F0" /><path d="M913.7 875.7c7.8 7.8 7.8 20.5 0 28.3l-10.1 10.1c-7.8 7.8-20.5 7.8-28.3 0L697.7 736.6c-7.8-7.8-7.8-20.5 0-28.3l10.1-10.1c7.8-7.8 20.5-7.8 28.3 0l177.6 177.5z" fill="#2680F0" /><path d="M750.7 827.3c-7.8-7.8-14.1-5.1-14.1 5.9V858c0 11-9 20-20 20l-475.8-0.5c-11 0-20-9-20-20V171.9c0-11 9-20 20-20h369.1c11 0 20 9 20 20v68.5c0 11 9 20 20 20h66.7c11 0 20 9 20 20v88.3c0 11 5.6 27.1 12.4 35.7l32 52.3c4.7 10 8.5 9.1 8.5-1.9l0.1-204.7c0-11-6.3-26.4-14.1-34.2L673 113.1c-7.8-7.8-23.1-14.2-34.1-14.2H190.1c-11 0-20 9-20 20v789.4c0 11 9 20 20 20h579.1c11 0 20-9 20-20v-22.5c0-11-6.4-26.4-14.1-34.1l-24.4-24.4z" fill="#2680F0" /></svg>