<svg width="20" height="20" viewBox="0 0 20 20" fill="none" xmlns="http://www.w3.org/2000/svg">
<path d="M15 18.7599L13.6 19.5599C13.64 19.5199 13.68 19.4399 13.68 19.3599L15.08 18.5599C15.08 18.6399 15.04 18.7199 15 18.7599ZM10.84 14.8399L12.24 14.0399C12.28 13.9999 12.36 13.9999 12.48 14.0799L11.08 14.8799C10.96 14.7999 10.88 14.7999 10.84 14.8399Z" fill="#FF5766"/>
<path d="M13.68 16.7199L15.08 15.9199V18.5599L13.68 19.3599V16.7199Z" fill="#FF5766"/>
<path d="M11.08 14.84L12.48 14.04L14.76 15.36L13.36 16.16L11.08 14.84Z" fill="#FF5766"/>
<path d="M13.36 16.1599L14.76 15.3599C14.92 15.4799 15.08 15.7199 15.08 15.9199L13.68 16.7199C13.68 16.5199 13.56 16.2799 13.36 16.1599Z" fill="#FF5766"/>
<path d="M13.36 16.1602C13.52 16.2802 13.68 16.5202 13.68 16.7202V19.3602C13.68 19.5602 13.52 19.6402 13.36 19.5602L11.04 18.2402C10.88 18.1202 10.72 17.8802 10.72 17.6802V15.0402C10.72 14.8402 10.88 14.7602 11.04 14.8402L13.36 16.1602Z" fill="#F74457"/>
<path d="M12.48 17.3199L12.4 17.2399L12.36 17.1599V16.9999C12.4 16.9599 12.48 16.8799 12.48 16.8399C12.56 16.6799 12.68 16.3599 12.44 16.2799C12.48 16.0399 12.16 16.0399 12 16.1599C11.88 16.2399 11.88 16.2799 11.8 16.3199C11.72 16.3199 11.8 16.6799 11.8 16.6399C11.76 16.7599 11.8 16.9599 11.92 17.0799C11.44 16.9999 11.6 17.7599 11.56 17.8799C11.6 17.9999 11.68 18.0799 11.76 18.1599C12 18.3199 12.36 18.3599 12.8 18.2799C12.76 18.2799 12.92 17.6399 12.48 17.3199Z" fill="white"/>
<path d="M9.16 15.5602L7.76 16.3602C7.8 16.3202 7.84 16.2402 7.84 16.1602L9.24 15.3602C9.24 15.4402 9.24 15.5202 9.16 15.5602ZM5 11.6002L6.4 10.8002C6.44 10.7602 6.52 10.7602 6.64 10.8402L5.24 11.6402C5.16 11.5602 5.08 11.5602 5 11.6002Z" fill="#1EA9EE"/>
<path d="M7.84003 13.5202L9.28003 12.6802L9.24003 15.3202L7.84003 16.1602V13.5202Z" fill="#1EA9EE"/>
<path d="M5.23999 11.6398L6.63999 10.7998L8.95999 12.1198L7.51999 12.9598L5.23999 11.6398Z" fill="#1EA9EE"/>
<path d="M7.52002 12.9602L8.92002 12.1602C9.08002 12.2802 9.24002 12.5202 9.24002 12.7202L7.84002 13.5202C7.84002 13.3202 7.72002 13.0402 7.52002 12.9602Z" fill="#1EA9EE"/>
<path d="M7.84001 13.52V16.16C7.84001 16.36 7.68 16.44 7.52 16.36L5.2 15.04C5.04 14.92 4.88 14.68 4.88 14.48V11.84C4.88 11.64 5.04 11.56 5.2 11.64C7.08 12.8 7.84001 12.88 7.84001 13.52Z" fill="#1F95D3"/>
<path d="M6.76001 14.1602L6.68001 14.0802L6.64001 14.0002V13.8402C6.68001 13.8002 6.76001 13.7202 6.76001 13.6802C6.84001 13.5202 6.96001 13.1602 6.72001 13.1202C6.76001 12.8802 6.44001 12.8802 6.24001 13.0002C6.12001 13.0802 6.12001 13.1202 6.00001 13.1602C5.92001 13.1602 6.00001 13.5202 6.00001 13.5202C5.96001 13.6802 6.00001 13.8802 6.12001 13.9602C5.64001 13.8802 5.80001 14.6802 5.76001 14.8002C5.80001 14.9202 5.88001 15.0002 5.96001 15.0802C6.20001 15.2402 6.56001 15.2802 7.04001 15.2002C7.04001 15.1602 7.24001 14.4802 6.76001 14.1602Z" fill="white"/>
<path d="M7.12 11.9602L7.76 11.7202V11.8402L7.12 12.2402V11.9602Z" fill="#2A2F35"/>
<path d="M7.12 10.6798L7.76 10.3198V11.7198L7.12 11.9598V10.6798Z" fill="#2A2F35"/>
<path d="M6.76001 10.0399L7.40001 9.67989C7.44001 9.63989 7.48001 9.67989 7.56001 9.67989L6.92001 10.0399C6.88001 10.0399 6.80001 10.0399 6.76001 10.0399Z" fill="#5A6268"/>
<path d="M9 11.7199L9.64 11.3599L10.08 11.5999L9.44 11.9599L9 11.7199Z" fill="#3C4349"/>
<path d="M9 11.2399L9.64 10.8799V11.3599L9 11.7199V11.2399Z" fill="#3D4247"/>
<path d="M6.91998 10.0802L7.55998 9.68018L10.2 11.1602L9.43998 11.4802L6.91998 10.0802Z" fill="#5A6268"/>
<path d="M9.44 11.4801L10.08 11.1201V11.6001L9.44 11.9601V11.4801Z" fill="#3D4247"/>
<path d="M12.76 13.4002C12.8 13.4402 12.88 13.4802 12.92 13.5602C12.96 13.6402 13 13.7202 13 13.7602V15.5602L12.56 15.3202V13.8002L7.15997 10.6802V11.9602V12.2002L6.71997 11.9602V10.1602C6.71997 10.0802 6.75997 10.0402 6.79997 10.0402C6.83997 10.0002 6.87997 10.0402 6.95997 10.0402L9.03997 11.2002V11.6802L9.47997 11.9202V11.4402L12.76 13.4002Z" fill="#3C4349"/>
<path d="M12.96 13.7999L13.6 13.3999V15.1999L12.96 15.5599V13.7999Z" fill="#4F565C"/>
<path d="M9.44 11.4801L10.08 11.1201L13.4 13.0401L12.76 13.4001L9.44 11.4801Z" fill="#5A6268"/>
<path d="M12.76 13.4L13.4 13.04C13.44 13.08 13.52 13.12 13.56 13.2L12.92 13.56C12.88 13.52 12.8 13.44 12.76 13.4Z" fill="#5A6268"/>
<path d="M12.92 13.5602L13.56 13.2002C13.6 13.2802 13.64 13.3602 13.64 13.4002L13 13.7602C12.96 13.7202 12.96 13.6402 12.92 13.5602Z" fill="#5A6268"/>
<path d="M9.84003 9.52012L10.48 9.12012L10.92 9.36012L10.28 9.76012L9.84003 9.52012Z" fill="#7E858B"/>
<path d="M10.28 9.75986L10.92 9.35986V11.5999L10.28 11.9599V9.75986Z" fill="#4F565C"/>
<path d="M10.28 9.76019C10.28 9.80019 10.28 12.6402 10.28 12.4802L9.84003 12.2402C9.84003 12.2002 9.84003 9.36019 9.84003 9.52019L10.28 9.76019Z" fill="#3C4349"/>
<path d="M12.52 6.07993C9.67998 4.55993 10.88 5.55993 10.88 5.55993C10.88 5.55993 9.67998 4.83993 8.91998 5.43993C8.15998 6.03993 8.27998 9.19993 8.27998 9.19993C8.91998 11.0799 11.2 11.5599 14.44 11.1999C14.44 11.1599 15.36 7.59993 12.52 6.07993Z" fill="#F2CA5C"/>
<path d="M12.2 8.12023L9.23999 10.5202L9.27999 6.76023L10.04 5.24023C10.4 5.32023 10.68 5.44023 10.88 5.56023C9.79999 4.64023 12.44 6.00023 12.96 6.36023L13.04 6.40023L12.2 8.12023Z" fill="#EAEAEC"/>
<path d="M12.48 6.23994L10.76 6.39994C10.64 5.99994 10.64 5.23994 10.6 4.43994H12.44V6.23994H12.48Z" fill="#DD9A76"/>
<path d="M10.68 5.35979L10.24 5.27979C10.2 5.91979 9.91998 6.75979 10.24 6.59979L10.76 6.39979C10.64 5.91979 10.68 5.35979 10.68 5.35979Z" fill="white"/>
<path d="M10.28 6.5999L10.32 7.1199L9.28003 9.6799V10.5199L9.84003 10.2399L10.6 7.2799L11.08 6.9199L10.76 6.3999L10.28 6.5999Z" fill="#FF5766"/>
<path d="M12.48 5.64014C12.48 5.64014 11.84 6.36014 10.8 6.40014C10.92 6.80014 10.84 7.48014 11.12 7.32014L12.8 6.24014L12.48 5.64014Z" fill="white"/>
<path d="M12.84 7.91998L12.24 8.11998L12.36 8.59999C11.32 9.63999 9.32 10.52 9.32 10.52C10.68 9.35998 12.2 7.71999 12.72 6.03999L13.08 6.39999L12.84 7.91998ZM10.24 5.31999C10.24 5.31999 9.56 6.23999 9.28 10.48L9 7.19999L9.28 6.79999V6.19999C9.32 6.15999 10.08 5.19999 10.04 5.23999H10.08C10.12 5.27999 10.28 5.35999 10.24 5.31999Z" fill="#F8D770"/>
<path d="M11.88 4.99983C11.88 4.99983 12.96 4.79983 13.32 3.59983C13.72 2.35983 13.2 0.959828 11.6 0.839828C9.99999 0.719828 9.51999 2.47983 9.59999 3.19983C9.71999 3.91983 11.88 4.99983 11.88 4.99983Z" fill="#4F565C"/>
<path d="M12.4 3.43999C12.6 5.67999 9.99997 6.63999 9.59997 4.07999C9.11997 1.23999 12.2 1.31999 12.4 3.43999Z" fill="#F3AC7E"/>
<path d="M11.28 5.5199C11.32 5.4799 12.52 5.1999 12.96 4.0799C13.04 3.8399 12.76 3.6399 12.4 3.9599C11.84 4.5199 11.52 5.1999 11.28 5.5199Z" fill="#F3AC7E"/>
<path d="M11.76 2.23979C11.76 2.23979 11.28 2.95979 11.68 3.47979C11.96 3.79979 12.08 4.19979 12.04 4.59979L12.4 4.39979C12.4 4.35979 12.68 2.55979 12.68 2.55979L11.92 1.67979L10.88 1.51979L11.76 2.23979ZM12.84 1.27979C12.84 1.27979 13.96 1.51979 13.52 2.87979C13.2 3.79979 13.16 4.03979 13.16 4.03979L12.84 1.27979Z" fill="#4F565C"/>
<path d="M12.52 0.559884C12.08 0.359884 11.28 0.319884 10.6 0.719884C9.95998 1.11988 9.95998 1.35988 9.55998 1.43988C9.11998 1.51988 9.47998 3.19988 9.55998 3.07988C10.28 2.19988 11.08 3.03988 11.8 2.35988L11.48 1.91988L12.8 1.35988C12.84 1.31988 12.96 0.759884 12.52 0.559884Z" fill="#4F565C"/>
</svg>
