<svg width="27" height="26" viewBox="0 0 27 26" fill="none" xmlns="http://www.w3.org/2000/svg">
<path d="M18.9708 21.97C17.9091 22.9992 16.75 22.8367 15.6341 22.3492C14.4533 21.8508 13.37 21.8292 12.1241 22.3492C10.5641 23.0208 9.74081 22.8258 8.80914 21.97C3.52247 16.5208 4.30247 8.2225 10.3041 7.91917C11.7666 7.995 12.785 8.72083 13.6408 8.78583C14.9191 8.52583 16.1433 7.77833 17.5083 7.87583C19.1441 8.00583 20.3791 8.65583 21.1916 9.82583C17.8116 11.8517 18.6133 16.3042 21.7116 17.55C21.0941 19.175 20.2925 20.7892 18.96 21.9808L18.9708 21.97ZM13.5325 7.85417C13.37 5.43833 15.3308 3.445 17.5841 3.25C17.8983 6.045 15.0491 8.125 13.5325 7.85417Z" fill="#242424"/>
</svg>
