<svg width="24" height="24" viewBox="0 0 24 24" fill="none" xmlns="http://www.w3.org/2000/svg">
<path d="M16.5156 9.34839H21.0156V4.84839" stroke="#222222" stroke-width="2" stroke-linecap="round" stroke-linejoin="round"/>
<path d="M6.16626 6.16637C6.93234 5.40029 7.84182 4.7926 8.84275 4.37799C9.84369 3.96339 10.9165 3.75 11.9999 3.75C13.0833 3.75 14.1561 3.96339 15.157 4.37799C16.158 4.7926 17.0674 5.40029 17.8335 6.16637L21.0155 9.34835" stroke="#222222" stroke-width="2" stroke-linecap="round" stroke-linejoin="round"/>
<path d="M7.48438 14.6516H2.98438V19.1516" stroke="#222222" stroke-width="2" stroke-linecap="round" stroke-linejoin="round"/>
<path d="M17.8336 17.8336C17.0675 18.5997 16.1581 19.2074 15.1571 19.622C14.1562 20.0366 13.0834 20.25 12 20.25C10.9166 20.25 9.84378 20.0366 8.84285 19.622C7.84191 19.2074 6.93244 18.5997 6.16635 17.8336L2.98438 14.6516" stroke="#222222" stroke-width="2" stroke-linecap="round" stroke-linejoin="round"/>
</svg>
