<svg width="50" height="46" viewBox="0 0 50 46" fill="none" xmlns="http://www.w3.org/2000/svg">
<path d="M36.4429 16.2502H47.8974V4.79568" stroke="#F89E19" stroke-width="3" stroke-linecap="round" stroke-linejoin="round"/>
<path d="M10.1001 8.15074C12.0501 6.20072 14.3651 4.65387 16.913 3.59853C19.4608 2.54318 22.1915 2 24.9493 2C27.7071 2 30.4378 2.54318 32.9856 3.59853C35.5335 4.65387 37.8485 6.20072 39.7985 8.15074L47.8981 16.2503" stroke="#F89E19" stroke-width="3" stroke-linecap="round" stroke-linejoin="round"/>
<path d="M13.4545 29.7497H2V41.2042" stroke="#F89E19" stroke-width="3" stroke-linecap="round" stroke-linejoin="round"/>
<path d="M39.798 37.8493C37.8479 39.7993 35.5329 41.3461 32.9851 42.4015C30.4373 43.4568 27.7065 44 24.9488 44C22.191 44 19.4603 43.4568 16.9124 42.4015C14.3646 41.3461 12.0496 39.7993 10.0996 37.8493L2 29.7497" stroke="#F89E19" stroke-width="3" stroke-linecap="round" stroke-linejoin="round"/>
</svg>
