
<svg width="16" height="13" viewBox="0 0 16 13" fill="none" xmlns="http://www.w3.org/2000/svg">
<path d="M1.5 5.49969H3V9.49969H2C1.86739 9.49969 1.74021 9.55237 1.64645 9.64614C1.55268 9.7399 1.5 9.86708 1.5 9.99969C1.5 10.1323 1.55268 10.2595 1.64645 10.3532C1.74021 10.447 1.86739 10.4997 2 10.4997H14C14.1326 10.4997 14.2598 10.447 14.3536 10.3532C14.4473 10.2595 14.5 10.1323 14.5 9.99969C14.5 9.86708 14.4473 9.7399 14.3536 9.64614C14.2598 9.55237 14.1326 9.49969 14 9.49969H13V5.49969H14.5C14.6088 5.49958 14.7146 5.46399 14.8013 5.39832C14.888 5.33265 14.951 5.24049 14.9806 5.13581C15.0102 5.03112 15.0049 4.91964 14.9654 4.81826C14.9259 4.71689 14.8545 4.63115 14.7619 4.57406L8.26188 0.574064C8.18311 0.525638 8.09246 0.5 8 0.5C7.90754 0.5 7.81689 0.525638 7.73812 0.574064L1.23812 4.57406C1.14552 4.63115 1.07406 4.71689 1.03458 4.81826C0.995107 4.91964 0.989773 5.03112 1.01939 5.13581C1.04901 5.24049 1.11195 5.33265 1.19869 5.39832C1.28542 5.46399 1.39121 5.49958 1.5 5.49969ZM4 5.49969H6V9.49969H4V5.49969ZM9 5.49969V9.49969H7V5.49969H9ZM12 9.49969H10V5.49969H12V9.49969ZM8 1.58656L12.7338 4.49969H3.26625L8 1.58656ZM15.5 11.9997C15.5 12.1323 15.4473 12.2595 15.3536 12.3532C15.2598 12.447 15.1326 12.4997 15 12.4997H1C0.867392 12.4997 0.740215 12.447 0.646447 12.3532C0.552678 12.2595 0.5 12.1323 0.5 11.9997C0.5 11.8671 0.552678 11.7399 0.646447 11.6461C0.740215 11.5524 0.867392 11.4997 1 11.4997H15C15.1326 11.4997 15.2598 11.5524 15.3536 11.6461C15.4473 11.7399 15.5 11.8671 15.5 11.9997Z" fill="#242424"/>
</svg>
