<svg width="18" height="18" viewBox="0 0 18 18" fill="none" xmlns="http://www.w3.org/2000/svg">
<path d="M15.188 5.0625H2.81299C2.50233 5.0625 2.25049 5.31434 2.25049 5.625V14.625C2.25049 14.9357 2.50233 15.1875 2.81299 15.1875H15.188C15.4986 15.1875 15.7505 14.9357 15.7505 14.625V5.625C15.7505 5.31434 15.4986 5.0625 15.188 5.0625Z" stroke="black" stroke-linecap="round" stroke-linejoin="round"/>
<path d="M11.8125 5.0625V3.9375C11.8125 3.63913 11.694 3.35298 11.483 3.142C11.272 2.93103 10.9859 2.8125 10.6875 2.8125H7.3125C7.01413 2.8125 6.72798 2.93103 6.51701 3.142C6.30603 3.35298 6.1875 3.63913 6.1875 3.9375V5.0625" stroke="black" stroke-linecap="round" stroke-linejoin="round"/>
<path d="M15.7506 8.88135C13.6991 10.0683 11.3701 10.6915 9.00003 10.6877C6.63032 10.6915 4.30176 10.0685 2.25049 8.88194" stroke="black" stroke-linecap="round" stroke-linejoin="round"/>
<path d="M8.15625 8.4375H9.84375" stroke="black" stroke-linecap="round" stroke-linejoin="round"/>
</svg>
