<svg width="18" height="18" viewBox="0 0 18 18" fill="none" xmlns="http://www.w3.org/2000/svg">
<path d="M12.375 4.5H5.625V7.875H12.375V4.5Z" stroke="black" stroke-linecap="round" stroke-linejoin="round"/>
<path d="M14.625 15.188V2.81299C14.625 2.50233 14.3732 2.25049 14.0625 2.25049L3.9375 2.25049C3.62684 2.25049 3.375 2.50233 3.375 2.81299V15.188C3.375 15.4986 3.62684 15.7505 3.9375 15.7505H14.0625C14.3732 15.7505 14.625 15.4986 14.625 15.188Z" stroke="black" stroke-linecap="round" stroke-linejoin="round"/>
<path d="M6.1875 11.25C6.65349 11.25 7.03125 10.8722 7.03125 10.4062C7.03125 9.94026 6.65349 9.5625 6.1875 9.5625C5.72151 9.5625 5.34375 9.94026 5.34375 10.4062C5.34375 10.8722 5.72151 11.25 6.1875 11.25Z" fill="black"/>
<path d="M6.1875 14.0625C6.65349 14.0625 7.03125 13.6847 7.03125 13.2188C7.03125 12.7528 6.65349 12.375 6.1875 12.375C5.72151 12.375 5.34375 12.7528 5.34375 13.2188C5.34375 13.6847 5.72151 14.0625 6.1875 14.0625Z" fill="black"/>
<path d="M9 11.25C9.46599 11.25 9.84375 10.8722 9.84375 10.4062C9.84375 9.94026 9.46599 9.5625 9 9.5625C8.53401 9.5625 8.15625 9.94026 8.15625 10.4062C8.15625 10.8722 8.53401 11.25 9 11.25Z" fill="black"/>
<path d="M9 14.0625C9.46599 14.0625 9.84375 13.6847 9.84375 13.2188C9.84375 12.7528 9.46599 12.375 9 12.375C8.53401 12.375 8.15625 12.7528 8.15625 13.2188C8.15625 13.6847 8.53401 14.0625 9 14.0625Z" fill="black"/>
<path d="M11.8125 11.25C12.2785 11.25 12.6562 10.8722 12.6562 10.4062C12.6562 9.94026 12.2785 9.5625 11.8125 9.5625C11.3465 9.5625 10.9688 9.94026 10.9688 10.4062C10.9688 10.8722 11.3465 11.25 11.8125 11.25Z" fill="black"/>
<path d="M11.8125 14.0625C12.2785 14.0625 12.6562 13.6847 12.6562 13.2188C12.6562 12.7528 12.2785 12.375 11.8125 12.375C11.3465 12.375 10.9688 12.7528 10.9688 13.2188C10.9688 13.6847 11.3465 14.0625 11.8125 14.0625Z" fill="black"/>
</svg>
