<svg width="16" height="16" viewBox="0 0 16 16" fill="none" xmlns="http://www.w3.org/2000/svg">
<path d="M8 5.5C7.50555 5.5 7.0222 5.64662 6.61107 5.92133C6.19995 6.19603 5.87952 6.58648 5.6903 7.04329C5.50108 7.50011 5.45157 8.00277 5.54804 8.48773C5.6445 8.97268 5.8826 9.41814 6.23223 9.76777C6.58186 10.1174 7.02732 10.3555 7.51227 10.452C7.99723 10.5484 8.49989 10.4989 8.95671 10.3097C9.41352 10.1205 9.80397 9.80005 10.0787 9.38893C10.3534 8.9778 10.5 8.49445 10.5 8C10.5 7.33696 10.2366 6.70107 9.76777 6.23223C9.29893 5.76339 8.66304 5.5 8 5.5ZM8 9.5C7.70333 9.5 7.41332 9.41203 7.16664 9.2472C6.91997 9.08238 6.72771 8.84811 6.61418 8.57403C6.50065 8.29994 6.47094 7.99834 6.52882 7.70736C6.5867 7.41639 6.72956 7.14912 6.93934 6.93934C7.14912 6.72956 7.41639 6.5867 7.70736 6.52882C7.99834 6.47094 8.29994 6.50065 8.57403 6.61418C8.84811 6.72771 9.08238 6.91997 9.2472 7.16664C9.41203 7.41332 9.5 7.70333 9.5 8C9.5 8.39782 9.34196 8.77936 9.06066 9.06066C8.77936 9.34196 8.39782 9.5 8 9.5ZM15 3.5H1C0.867392 3.5 0.740215 3.55268 0.646447 3.64645C0.552678 3.74021 0.5 3.86739 0.5 4V12C0.5 12.1326 0.552678 12.2598 0.646447 12.3536C0.740215 12.4473 0.867392 12.5 1 12.5H15C15.1326 12.5 15.2598 12.4473 15.3536 12.3536C15.4473 12.2598 15.5 12.1326 15.5 12V4C15.5 3.86739 15.4473 3.74021 15.3536 3.64645C15.2598 3.55268 15.1326 3.5 15 3.5ZM12.1031 11.5H3.89687C3.729 10.9323 3.42175 10.4155 3.00311 9.99689C2.58447 9.57825 2.06775 9.271 1.5 9.10312V6.89687C2.06775 6.729 2.58447 6.42175 3.00311 6.00311C3.42175 5.58447 3.729 5.06775 3.89687 4.5H12.1031C12.271 5.06775 12.5782 5.58447 12.9969 6.00311C13.4155 6.42175 13.9323 6.729 14.5 6.89687V9.10312C13.9323 9.271 13.4155 9.57825 12.9969 9.99689C12.5782 10.4155 12.271 10.9323 12.1031 11.5ZM14.5 5.83563C13.9003 5.57775 13.4223 5.09973 13.1644 4.5H14.5V5.83563ZM2.83562 4.5C2.57774 5.09973 2.09973 5.57775 1.5 5.83563V4.5H2.83562ZM1.5 10.1644C2.09973 10.4223 2.57774 10.9003 2.83562 11.5H1.5V10.1644ZM13.1644 11.5C13.4223 10.9003 13.9003 10.4223 14.5 10.1644V11.5H13.1644Z" fill="#242424"/>
</svg>
