<svg width="24" height="24" viewBox="0 0 24 24" fill="none" xmlns="http://www.w3.org/2000/svg">
<path d="M11.2 14.4H11.1592C10.9578 14.4 10.7647 14.32 10.6224 14.1776C10.48 14.0353 10.4 13.8422 10.4 13.6408C10.4 13.4286 10.3157 13.2251 10.1657 13.0751C10.0157 12.9251 9.81217 12.8408 9.6 12.8408C9.38783 12.8408 9.18434 12.9251 9.03431 13.0751C8.88429 13.2251 8.8 13.4286 8.8 13.6408C8.8 14.2665 9.04856 14.8666 9.49099 15.309C9.93343 15.7514 10.5335 16 11.1592 16H11.2V16.8C11.2 17.0122 11.2843 17.2157 11.4343 17.3657C11.5843 17.5157 11.7878 17.6 12 17.6C12.2122 17.6 12.4157 17.5157 12.5657 17.3657C12.7157 17.2157 12.8 17.0122 12.8 16.8V16C13.4365 16 14.047 15.7471 14.4971 15.2971C14.9471 14.847 15.2 14.2365 15.2 13.6C15.2 12.9635 14.9471 12.353 14.4971 11.9029C14.047 11.4529 13.4365 11.2 12.8 11.2V9.6H12.8176C13.2496 9.6 13.6 9.9504 13.6 10.3824C13.6 10.5946 13.6843 10.7981 13.8343 10.9481C13.9843 11.0981 14.1878 11.1824 14.4 11.1824C14.6122 11.1824 14.8157 11.0981 14.9657 10.9481C15.1157 10.7981 15.2 10.5946 15.2 10.3824C15.2 9.75055 14.949 9.14458 14.5022 8.69779C14.0554 8.251 13.4495 8 12.8176 8H12.8V7.2C12.8 6.98783 12.7157 6.78434 12.5657 6.63431C12.4157 6.48429 12.2122 6.4 12 6.4C11.7878 6.4 11.5843 6.48429 11.4343 6.63431C11.2843 6.78434 11.2 6.98783 11.2 7.2V8C10.8848 8 10.5727 8.06208 10.2816 8.18269C9.99038 8.3033 9.7258 8.48008 9.50294 8.70294C9.28008 8.9258 9.1033 9.19038 8.98269 9.48156C8.86208 9.77274 8.8 10.0848 8.8 10.4C8.8 10.7152 8.86208 11.0273 8.98269 11.3184C9.1033 11.6096 9.28008 11.8742 9.50294 12.0971C9.7258 12.3199 9.99038 12.4967 10.2816 12.6173C10.5727 12.7379 10.8848 12.8 11.2 12.8V14.4ZM12.8 14.4V12.8C13.0122 12.8 13.2157 12.8843 13.3657 13.0343C13.5157 13.1843 13.6 13.3878 13.6 13.6C13.6 13.8122 13.5157 14.0157 13.3657 14.1657C13.2157 14.3157 13.0122 14.4 12.8 14.4ZM11.2 9.6V11.2C10.9878 11.2 10.7843 11.1157 10.6343 10.9657C10.4843 10.8157 10.4 10.6122 10.4 10.4C10.4 10.1878 10.4843 9.98434 10.6343 9.83431C10.7843 9.68429 10.9878 9.6 11.2 9.6ZM12 20C7.5816 20 4 16.4184 4 12C4 7.5816 7.5816 4 12 4C16.4184 4 20 7.5816 20 12C20 16.4184 16.4184 20 12 20Z" fill="#222222"/>
</svg>
