<svg width="16" height="16" viewBox="0 0 16 16" fill="none" xmlns="http://www.w3.org/2000/svg">
<path d="M12.6666 7.99967C12.6666 8.17649 12.5963 8.34605 12.4713 8.47108C12.3463 8.5961 12.1767 8.66634 11.9999 8.66634C11.8231 8.66634 11.6535 8.5961 11.5285 8.47108C11.4035 8.34605 11.3333 8.17649 11.3333 7.99967C11.3333 7.82286 11.4035 7.65329 11.5285 7.52827C11.6535 7.40325 11.8231 7.33301 11.9999 7.33301C12.1767 7.33301 12.3463 7.40325 12.4713 7.52827C12.5963 7.65329 12.6666 7.82286 12.6666 7.99967Z" fill="#242424"/>
<path fill-rule="evenodd" clip-rule="evenodd" d="M6.62925 2.16699H8.70392C9.92925 2.16699 10.8999 2.16699 11.6593 2.26899C12.4406 2.37433 13.0733 2.59566 13.5726 3.09433C14.1886 3.71099 14.3853 4.53633 14.4566 5.60766C14.8413 5.77633 15.1319 6.13433 15.1633 6.58766C15.1666 6.62832 15.1666 6.67166 15.1666 6.71166V9.28899C15.1666 9.32899 15.1666 9.37232 15.1639 9.41232C15.1319 9.86566 14.8413 10.2243 14.4566 10.3937C14.3853 11.4643 14.1886 12.2897 13.5726 12.9063C13.0733 13.405 12.4406 13.6263 11.6593 13.7317C10.8993 13.8337 9.92925 13.8337 8.70392 13.8337H6.62925C5.40392 13.8337 4.43325 13.8337 3.67392 13.7317C2.89259 13.6263 2.25992 13.405 1.76059 12.9063C1.26192 12.407 1.04059 11.7743 0.935252 10.993C0.833252 10.233 0.833252 9.26299 0.833252 8.03766V7.96299C0.833252 6.73766 0.833252 5.76699 0.935252 5.00766C1.04059 4.22633 1.26192 3.59366 1.76059 3.09433C2.25992 2.59566 2.89259 2.37433 3.67392 2.26899C4.43392 2.16699 5.40392 2.16699 6.62925 2.16699ZM13.4453 10.5003H12.1533C10.7233 10.5003 9.49925 9.41499 9.49925 8.00033C9.49925 6.58566 10.7233 5.50033 12.1526 5.50033H13.4446C13.3686 4.60633 13.1973 4.13366 12.8646 3.80166C12.5826 3.51966 12.1959 3.35033 11.5253 3.26033C10.8406 3.16833 9.93725 3.16699 8.66592 3.16699H6.66592C5.39458 3.16699 4.49192 3.16833 3.80592 3.26033C3.13592 3.35033 2.74925 3.51966 2.46725 3.80166C2.18525 4.08366 2.01592 4.47033 1.92592 5.14099C1.83392 5.82633 1.83259 6.72899 1.83259 8.00033C1.83259 9.27166 1.83392 10.175 1.92592 10.8603C2.01592 11.5303 2.18525 11.917 2.46725 12.199C2.74925 12.481 3.13592 12.6503 3.80659 12.7403C4.49192 12.8323 5.39458 12.8337 6.66592 12.8337H8.66592C9.93725 12.8337 10.8406 12.8323 11.5259 12.7403C12.1959 12.6503 12.5826 12.481 12.8646 12.199C13.1973 11.867 13.3693 11.395 13.4453 10.5003ZM3.49992 5.33366C3.49992 5.20105 3.5526 5.07387 3.64636 4.98011C3.74013 4.88634 3.86731 4.83366 3.99992 4.83366H6.66658C6.79919 4.83366 6.92637 4.88634 7.02014 4.98011C7.11391 5.07387 7.16658 5.20105 7.16658 5.33366C7.16658 5.46627 7.11391 5.59344 7.02014 5.68721C6.92637 5.78098 6.79919 5.83366 6.66658 5.83366H3.99992C3.86731 5.83366 3.74013 5.78098 3.64636 5.68721C3.5526 5.59344 3.49992 5.46627 3.49992 5.33366ZM13.9493 6.50033H12.1533C11.2039 6.50033 10.4993 7.20633 10.4993 8.00033C10.4993 8.79433 11.2039 9.50033 12.1526 9.50033H13.9646C14.1019 9.49166 14.1613 9.39899 14.1659 9.34299V6.65766C14.1613 6.60166 14.1019 6.50899 13.9646 6.50099L13.9493 6.50033Z" fill="#242424"/>
</svg>
