<svg width="20" height="21" viewBox="0 0 20 21" fill="none" xmlns="http://www.w3.org/2000/svg">
<path d="M7.5 11.6797C8.32843 11.6797 9 11.0081 9 10.1797C9 9.35126 8.32843 8.67969 7.5 8.67969C6.67157 8.67969 6 9.35126 6 10.1797C6 11.0081 6.67157 11.6797 7.5 11.6797Z" fill="#747475"/>
<path d="M7.5 5.42969C8.32843 5.42969 9 4.75811 9 3.92969C9 3.10126 8.32843 2.42969 7.5 2.42969C6.67157 2.42969 6 3.10126 6 3.92969C6 4.75811 6.67157 5.42969 7.5 5.42969Z" fill="#747475"/>
<path d="M7.5 17.9297C8.32843 17.9297 9 17.2581 9 16.4297C9 15.6013 8.32843 14.9297 7.5 14.9297C6.67157 14.9297 6 15.6013 6 16.4297C6 17.2581 6.67157 17.9297 7.5 17.9297Z" fill="#747475"/>
<path d="M12.5 11.6797C13.3284 11.6797 14 11.0081 14 10.1797C14 9.35126 13.3284 8.67969 12.5 8.67969C11.6716 8.67969 11 9.35126 11 10.1797C11 11.0081 11.6716 11.6797 12.5 11.6797Z" fill="#747475"/>
<path d="M12.5 5.42969C13.3284 5.42969 14 4.75811 14 3.92969C14 3.10126 13.3284 2.42969 12.5 2.42969C11.6716 2.42969 11 3.10126 11 3.92969C11 4.75811 11.6716 5.42969 12.5 5.42969Z" fill="#747475"/>
<path d="M12.5 17.9297C13.3284 17.9297 14 17.2581 14 16.4297C14 15.6013 13.3284 14.9297 12.5 14.9297C11.6716 14.9297 11 15.6013 11 16.4297C11 17.2581 11.6716 17.9297 12.5 17.9297Z" fill="#747475"/>
</svg>
