<svg width="14" height="18" viewBox="0 0 14 18" fill="none" xmlns="http://www.w3.org/2000/svg">
<path d="M3.39063 4.85938C3.34597 4.81637 3.31044 4.7648 3.28618 4.70775C3.26191 4.6507 3.2494 4.58934 3.2494 4.52734C3.2494 4.46535 3.26191 4.40399 3.28618 4.34694C3.31044 4.28988 3.34597 4.23832 3.39063 4.19531L6.67188 0.921875C6.7142 0.877438 6.7651 0.84206 6.82151 0.817887C6.87791 0.793714 6.93863 0.78125 7 0.78125C7.06137 0.78125 7.12209 0.793714 7.17849 0.817887C7.2349 0.84206 7.2858 0.877438 7.32812 0.921875L10.6094 4.19531C10.654 4.23832 10.6896 4.28988 10.7138 4.34694C10.7381 4.40399 10.7506 4.46535 10.7506 4.52734C10.7506 4.58934 10.7381 4.6507 10.7138 4.70775C10.6896 4.7648 10.654 4.81637 10.6094 4.85938C10.5671 4.90381 10.5161 4.93919 10.4597 4.96336C10.4033 4.98754 10.3426 5 10.2812 5C10.2199 5 10.1592 4.98754 10.1028 4.96336C10.0464 4.93919 9.99545 4.90381 9.95312 4.85938L7.46875 2.38281V10C7.46875 10.1243 7.41936 10.2435 7.33146 10.3315C7.24355 10.4194 7.12432 10.4688 7 10.4688C6.87568 10.4688 6.75645 10.4194 6.66854 10.3315C6.58064 10.2435 6.53125 10.1243 6.53125 10V2.38281L4.04687 4.85938C4.00455 4.90381 3.95365 4.93919 3.89724 4.96336C3.84084 4.98754 3.78012 5 3.71875 5C3.65738 5 3.59666 4.98754 3.54026 4.96336C3.48385 4.93919 3.43295 4.90381 3.39063 4.85938ZM12.625 7.03125H10.75C10.6257 7.03125 10.5065 7.08064 10.4185 7.16854C10.3306 7.25645 10.2812 7.37568 10.2812 7.5C10.2812 7.62432 10.3306 7.74355 10.4185 7.83146C10.5065 7.91936 10.6257 7.96875 10.75 7.96875H12.625C12.6664 7.96875 12.7062 7.98521 12.7355 8.01451C12.7648 8.04382 12.7812 8.08356 12.7812 8.125V16.25C12.7812 16.2914 12.7648 16.3312 12.7355 16.3605C12.7062 16.3898 12.6664 16.4062 12.625 16.4062H1.375C1.33356 16.4062 1.29382 16.3898 1.26451 16.3605C1.23521 16.3312 1.21875 16.2914 1.21875 16.25V8.125C1.21875 8.08356 1.23521 8.04382 1.26451 8.01451C1.29382 7.98521 1.33356 7.96875 1.375 7.96875H3.25C3.37432 7.96875 3.49355 7.91936 3.58146 7.83146C3.66936 7.74355 3.71875 7.62432 3.71875 7.5C3.71875 7.37568 3.66936 7.25645 3.58146 7.16854C3.49355 7.08064 3.37432 7.03125 3.25 7.03125H1.375C1.08492 7.03125 0.80672 7.14648 0.601602 7.3516C0.396484 7.55672 0.28125 7.83492 0.28125 8.125V16.25C0.28125 16.5401 0.396484 16.8183 0.601602 17.0234C0.80672 17.2285 1.08492 17.3438 1.375 17.3438H12.625C12.9151 17.3438 13.1933 17.2285 13.3984 17.0234C13.6035 16.8183 13.7188 16.5401 13.7188 16.25V8.125C13.7188 7.83492 13.6035 7.55672 13.3984 7.3516C13.1933 7.14648 12.9151 7.03125 12.625 7.03125Z" fill="#242424"/>
</svg>
