<svg width="18" height="18" viewBox="0 0 18 18" fill="none" xmlns="http://www.w3.org/2000/svg">
<path d="M9 12.9375C11.1746 12.9375 12.9375 11.1746 12.9375 9C12.9375 6.82538 11.1746 5.0625 9 5.0625C6.82538 5.0625 5.0625 6.82538 5.0625 9C5.0625 11.1746 6.82538 12.9375 9 12.9375Z" stroke="black" stroke-linecap="round" stroke-linejoin="round"/>
<path d="M3.92267 12.5811L3.83851 13.8864C3.83247 13.97 3.84494 14.054 3.87505 14.1323C3.90515 14.2106 3.95215 14.2812 4.01268 14.3393C4.82172 15.1067 5.80074 15.6719 6.86984 15.9888C6.95037 16.0123 7.03508 16.0176 7.11792 16.0045C7.20077 15.9915 7.27971 15.9603 7.34914 15.9133L8.43749 15.1877H9.56249L10.6509 15.9133C10.7203 15.9603 10.7992 15.9915 10.8821 16.0046C10.9649 16.0177 11.0496 16.0123 11.1302 15.9889C12.1993 15.6719 13.1783 15.1067 13.9873 14.3393C14.0479 14.2813 14.0948 14.2106 14.125 14.1323C14.1551 14.054 14.1675 13.9701 14.1615 13.8864L14.0774 12.5811L14.6399 11.6068L15.8124 11.0271C15.8879 10.9905 15.9543 10.9377 16.0071 10.8725C16.0598 10.8073 16.0975 10.7312 16.1175 10.6498C16.3776 9.56543 16.3776 8.43496 16.1175 7.35062C16.0975 7.26917 16.0598 7.19313 16.0071 7.12792C15.9543 7.06271 15.8879 7.00992 15.8124 6.97333L14.6399 6.39355L14.0774 5.41927L14.1615 4.11392C14.1676 4.03027 14.1551 3.94632 14.125 3.86804C14.0949 3.78976 14.0479 3.71908 13.9874 3.66103C13.1783 2.89365 12.1993 2.32842 11.1302 2.01148C11.0497 1.98807 10.965 1.98271 10.8821 1.99577C10.7993 2.00884 10.7204 2.04001 10.6509 2.08707L9.56258 2.81259H8.43758L7.34919 2.08704C7.27977 2.03998 7.20082 2.00881 7.11798 1.99574C7.03514 1.98267 6.95043 1.98803 6.86989 2.01143C5.80079 2.32838 4.82178 2.89362 4.01275 3.66102C3.95221 3.71906 3.90522 3.78974 3.87511 3.86802C3.845 3.9463 3.83252 4.03025 3.83856 4.1139L3.92271 5.4192L3.36021 6.39348L2.18767 6.97327C2.1122 7.00987 2.04574 7.06265 1.993 7.12786C1.94026 7.19307 1.90254 7.26911 1.88254 7.35056C1.62248 8.4349 1.62249 9.56537 1.88256 10.6497C1.90256 10.7312 1.94027 10.8072 1.993 10.8724C2.04574 10.9376 2.11221 10.9904 2.18767 11.027L3.36017 11.6068L3.92267 12.5811Z" stroke="black" stroke-miterlimit="10"/>
</svg>
