<svg width="17" height="17" viewBox="0 0 17 17" fill="none" xmlns="http://www.w3.org/2000/svg">
<path d="M8.5 12.7125C10.8264 12.7125 12.7124 10.8265 12.7124 8.50006C12.7124 6.17361 10.8264 4.28766 8.5 4.28766C6.17355 4.28766 4.2876 6.17361 4.2876 8.50006C4.2876 10.8265 6.17355 12.7125 8.5 12.7125Z" stroke="#242424" stroke-width="1.2" stroke-linecap="round" stroke-linejoin="round"/>
<path d="M15.1195 7.89823L15.8948 6.73529C15.9453 6.66036 15.9787 6.57524 15.9927 6.48595C16.0066 6.39666 16.0007 6.30541 15.9754 6.21866C15.8291 5.73702 15.6363 5.27076 15.3998 4.82644C15.3564 4.74735 15.2962 4.6788 15.2233 4.62568C15.1504 4.57257 15.0667 4.5362 14.9781 4.51918L13.6063 4.24478L12.7552 3.39376L12.4808 2.02182C12.4638 1.93325 12.4274 1.84953 12.3743 1.77664C12.3212 1.70375 12.2526 1.64349 12.1735 1.60016C11.7292 1.36364 11.2629 1.1709 10.7813 1.02465C10.6945 0.999336 10.6033 0.993428 10.514 1.00735C10.4247 1.02127 10.3396 1.05467 10.2647 1.10519L9.10178 1.88044H7.89824L6.73536 1.10519C6.66044 1.05467 6.57532 1.02127 6.48603 1.00735C6.39674 0.993428 6.30549 0.999336 6.21874 1.02465C5.7371 1.1709 5.27082 1.36364 4.82649 1.60015C4.74738 1.64349 4.67882 1.70375 4.6257 1.77665C4.57258 1.84954 4.53621 1.93326 4.51919 2.02184L4.24486 3.39369L3.39377 4.24478L2.02191 4.51911C1.93334 4.53613 1.84962 4.5725 1.77673 4.62561C1.70384 4.67873 1.64357 4.74728 1.60024 4.82638C1.36369 5.27072 1.17092 5.73701 1.02465 6.21867C0.999333 6.30541 0.993428 6.39667 1.00735 6.48595C1.02127 6.57523 1.05468 6.66036 1.1052 6.73528L1.88045 7.89816V9.1017L1.1052 10.2646C1.05468 10.3395 1.02127 10.4246 1.00735 10.5139C0.993435 10.6032 0.999342 10.6944 1.02466 10.7812C1.17088 11.2629 1.36363 11.7291 1.60016 12.1735C1.64349 12.2526 1.70376 12.3211 1.77664 12.3742C1.84953 12.4274 1.93325 12.4637 2.02182 12.4808L3.39377 12.7552L4.24478 13.6062L4.51912 14.9781C4.53614 15.0667 4.57251 15.1504 4.62562 15.2233C4.67874 15.2962 4.74729 15.3565 4.82639 15.3998C5.2707 15.6363 5.73697 15.8291 6.21862 15.9753C6.30536 16.0006 6.39661 16.0065 6.48589 15.9926C6.57516 15.9787 6.66028 15.9453 6.7352 15.8948L7.89817 15.1195H9.10171L10.2647 15.8948C10.3396 15.9453 10.4247 15.9787 10.514 15.9927C10.6033 16.0066 10.6945 16.0007 10.7813 15.9753C11.2629 15.8291 11.7292 15.6364 12.1735 15.3999C12.2526 15.3565 12.3211 15.2963 12.3743 15.2234C12.4274 15.1505 12.4637 15.0668 12.4808 14.9782L12.7552 13.6062L13.6062 12.7552L14.9781 12.4808C15.0667 12.4638 15.1504 12.4274 15.2233 12.3743C15.2962 12.3212 15.3564 12.2526 15.3998 12.1735C15.6363 11.7292 15.8291 11.263 15.9754 10.7813C16.0007 10.6946 16.0066 10.6033 15.9927 10.5141C15.9787 10.4248 15.9453 10.3396 15.8948 10.2647L15.1195 9.10177V7.89823Z" stroke="#242424" stroke-width="1.2" stroke-linecap="round" stroke-linejoin="round"/>
</svg>
