<svg width="14" height="14" viewBox="0 0 11 11" fill="none" xmlns="http://www.w3.org/2000/svg">
<path d="M0.997437 3.53516V9.03184C0.997437 9.76032 1.55994 10.3563 2.24744 10.3563H9.74743C10.4349 10.3563 10.9974 9.76032 10.9974 9.03184V3.53516H0.997437ZM2.99744 8.83317C2.99744 8.96562 2.93494 9.03184 2.80994 9.03184H2.30994C2.18494 9.03184 2.12244 8.96562 2.12244 8.83317V8.23714C2.12244 8.10469 2.18494 8.03847 2.30994 8.03847H2.87244C2.99744 8.03847 3.05994 8.10469 3.05994 8.23714V8.83317H2.99744ZM2.99744 7.04509C2.99744 7.17754 2.93494 7.24376 2.80994 7.24376H2.30994C2.18494 7.24376 2.12244 7.17754 2.12244 7.04509V6.44906C2.12244 6.38284 2.18494 6.31661 2.30994 6.31661H2.87244C2.99744 6.31661 3.05994 6.38284 3.05994 6.51529V7.04509H2.99744ZM2.99744 5.25701C2.99744 5.38946 2.93494 5.45569 2.80994 5.45569H2.30994C2.18494 5.45569 2.12244 5.38946 2.12244 5.25701V4.72721C2.12244 4.59476 2.18494 4.52853 2.30994 4.52853H2.87244C2.99744 4.52853 3.05994 4.59476 3.05994 4.72721V5.25701H2.99744ZM4.74744 8.83317C4.74744 8.96562 4.68494 9.03184 4.55994 9.03184H3.99744C3.87244 9.03184 3.80994 8.96562 3.80994 8.83317V8.23714C3.80994 8.10469 3.87244 8.03847 3.99744 8.03847H4.55994C4.68494 8.03847 4.74744 8.10469 4.74744 8.23714V8.83317ZM4.74744 7.04509C4.74744 7.17754 4.68494 7.24376 4.55994 7.24376H3.99744C3.87244 7.24376 3.80994 7.17754 3.80994 7.04509V6.44906C3.80994 6.38284 3.93494 6.31661 3.99744 6.31661H4.55994C4.68494 6.31661 4.74744 6.38284 4.74744 6.44906V7.04509ZM4.74744 5.25701C4.74744 5.38946 4.68494 5.45569 4.55994 5.45569H3.99744C3.87244 5.45569 3.80994 5.38946 3.80994 5.25701V4.72721C3.80994 4.59476 3.87244 4.52853 3.99744 4.52853H4.55994C4.68494 4.52853 4.74744 4.59476 4.74744 4.72721V5.25701ZM6.43493 8.83317C6.43493 8.96562 6.37243 9.03184 6.24743 9.03184H5.74743C5.62243 9.03184 5.55994 8.96562 5.55994 8.83317V8.23714C5.55994 8.10469 5.62243 8.03847 5.74743 8.03847H6.30993C6.43493 8.03847 6.49743 8.10469 6.49743 8.23714V8.83317H6.43493ZM6.43493 7.04509C6.43493 7.17754 6.37243 7.24376 6.24743 7.24376H5.74743C5.62243 7.24376 5.55994 7.17754 5.55994 7.04509V6.44906C5.55994 6.38284 5.62243 6.31661 5.74743 6.31661H6.30993C6.43493 6.31661 6.49743 6.38284 6.49743 6.51529V7.04509H6.43493ZM6.43493 5.25701C6.43493 5.38946 6.37243 5.45569 6.24743 5.45569H5.74743C5.62243 5.45569 5.55994 5.38946 5.55994 5.25701V4.72721C5.55994 4.59476 5.62243 4.52853 5.74743 4.52853H6.30993C6.43493 4.52853 6.49743 4.59476 6.49743 4.72721V5.25701H6.43493ZM8.18493 8.83317C8.18493 8.96562 8.12243 9.03184 7.99743 9.03184H7.43493C7.30993 9.03184 7.24743 8.96562 7.24743 8.83317V8.23714C7.24743 8.10469 7.30993 8.03847 7.43493 8.03847H7.99743C8.12243 8.03847 8.18493 8.10469 8.18493 8.23714V8.83317ZM8.18493 7.04509C8.18493 7.17754 8.12243 7.24376 7.99743 7.24376H7.43493C7.30993 7.24376 7.24743 7.17754 7.24743 7.04509V6.44906C7.24743 6.38284 7.37243 6.31661 7.43493 6.31661H7.99743C8.12243 6.31661 8.18493 6.38284 8.18493 6.51529V7.04509ZM8.18493 5.25701C8.18493 5.38946 8.12243 5.45569 7.99743 5.45569H7.43493C7.30993 5.45569 7.24743 5.38946 7.24743 5.25701V4.72721C7.24743 4.59476 7.30993 4.52853 7.43493 4.52853H7.99743C8.12243 4.52853 8.18493 4.59476 8.18493 4.72721V5.25701ZM9.87243 7.04509C9.87243 7.17754 9.80993 7.24376 9.68493 7.24376H9.12243C8.99743 7.24376 8.93493 7.17754 8.93493 7.04509V6.44906C8.93493 6.31661 8.99743 6.25039 9.12243 6.25039H9.68493C9.80993 6.25039 9.87243 6.31661 9.87243 6.44906V7.04509ZM9.87243 5.25701C9.87243 5.38946 9.80993 5.45569 9.68493 5.45569H9.12243C8.99743 5.45569 8.93493 5.38946 8.93493 5.25701V4.72721C8.93493 4.59476 8.99743 4.52853 9.12243 4.52853H9.68493C9.80993 4.52853 9.87243 4.59476 9.87243 4.72721V5.25701Z" fill="#7A7A7A"/>
<path d="M10.9974 1.68095V2.873H0.997437V1.68095C0.997437 0.952472 1.55994 0.356445 2.24744 0.356445H3.12244V1.21737C3.12244 1.48227 3.30994 1.74717 3.62244 1.74717C3.87244 1.74717 4.12244 1.5485 4.12244 1.21737V0.356445H7.93493V1.21737C7.93493 1.48227 8.12243 1.74717 8.43493 1.74717C8.68493 1.74717 8.93493 1.5485 8.93493 1.21737V0.356445H9.74743C10.4349 0.356445 10.9974 0.952472 10.9974 1.68095Z" fill="#7A7A7A"/>
</svg>
