<svg width="20" height="20" viewBox="0 0 20 20" fill="none" xmlns="http://www.w3.org/2000/svg">
<mask id="path-1-inside-1_1387_26539" fill="white">
<path d="M10.525 1.66675C15.1333 1.66675 18.8667 5.41675 18.8667 10.0001C18.8667 14.5834 15.1333 18.3334 10.525 18.3334C7.6 18.3334 5.04167 16.8167 3.55 14.5251L4.86667 13.4834C6.04167 15.3917 8.13333 16.6667 10.5333 16.6667C12.3014 16.6667 13.9971 15.9644 15.2474 14.7141C16.4976 13.4639 17.2 11.7682 17.2 10.0001C17.2 8.23197 16.4976 6.53628 15.2474 5.28604C13.9971 4.03579 12.3014 3.33341 10.5333 3.33341C7.13333 3.33341 4.33333 5.88341 3.925 9.16675H6.225L3.10833 12.2751L0 9.16675H2.24167C2.65833 4.95841 6.20833 1.66675 10.525 1.66675ZM12.9917 8.53341C13.4083 8.54175 13.75 8.87508 13.75 9.30008V13.1417C13.75 13.5584 13.4083 13.9084 12.9833 13.9084H8.375C7.95 13.9084 7.60833 13.5584 7.60833 13.1417V9.30008C7.60833 8.87508 7.95 8.54175 8.36667 8.53341V7.69175C8.36667 6.41675 9.40833 5.38341 10.675 5.38341C11.95 5.38341 12.9917 6.41675 12.9917 7.69175V8.53341ZM10.675 6.55008C10.05 6.55008 9.53333 7.05841 9.53333 7.69175V8.53341H11.825V7.69175C11.825 7.05841 11.3083 6.55008 10.675 6.55008Z"/>
</mask>
<path d="M10.525 1.66675C15.1333 1.66675 18.8667 5.41675 18.8667 10.0001C18.8667 14.5834 15.1333 18.3334 10.525 18.3334C7.6 18.3334 5.04167 16.8167 3.55 14.5251L4.86667 13.4834C6.04167 15.3917 8.13333 16.6667 10.5333 16.6667C12.3014 16.6667 13.9971 15.9644 15.2474 14.7141C16.4976 13.4639 17.2 11.7682 17.2 10.0001C17.2 8.23197 16.4976 6.53628 15.2474 5.28604C13.9971 4.03579 12.3014 3.33341 10.5333 3.33341C7.13333 3.33341 4.33333 5.88341 3.925 9.16675H6.225L3.10833 12.2751L0 9.16675H2.24167C2.65833 4.95841 6.20833 1.66675 10.525 1.66675ZM12.9917 8.53341C13.4083 8.54175 13.75 8.87508 13.75 9.30008V13.1417C13.75 13.5584 13.4083 13.9084 12.9833 13.9084H8.375C7.95 13.9084 7.60833 13.5584 7.60833 13.1417V9.30008C7.60833 8.87508 7.95 8.54175 8.36667 8.53341V7.69175C8.36667 6.41675 9.40833 5.38341 10.675 5.38341C11.95 5.38341 12.9917 6.41675 12.9917 7.69175V8.53341ZM10.675 6.55008C10.05 6.55008 9.53333 7.05841 9.53333 7.69175V8.53341H11.825V7.69175C11.825 7.05841 11.3083 6.55008 10.675 6.55008Z" fill="#E67E22"/>
<path d="M3.55 14.5251L3.42591 14.3682L3.28291 14.4814L3.38238 14.6342L3.55 14.5251ZM4.86667 13.4834L5.03697 13.3786L4.91902 13.187L4.74258 13.3266L4.86667 13.4834ZM10.5333 16.6667V16.8667V16.6667ZM17.2 10.0001H17.4H17.2ZM3.925 9.16675L3.72653 9.14207L3.69859 9.36675H3.925V9.16675ZM6.225 9.16675L6.36623 9.30836L6.70876 8.96675H6.225V9.16675ZM3.10833 12.2751L2.96691 12.4165L3.10814 12.5577L3.24956 12.4167L3.10833 12.2751ZM0 9.16675V8.96675H-0.482843L-0.141421 9.30817L0 9.16675ZM2.24167 9.16675V9.36675H2.42284L2.44069 9.18645L2.24167 9.16675ZM12.9917 8.53341H12.7917V8.72945L12.9877 8.73337L12.9917 8.53341ZM8.36667 8.53341L8.37066 8.73337L8.56667 8.72945V8.53341H8.36667ZM9.53333 8.53341H9.33333V8.73341H9.53333V8.53341ZM11.825 8.53341V8.73341H12.025V8.53341H11.825ZM10.525 1.86675C15.0227 1.86675 18.6667 5.52707 18.6667 10.0001H19.0667C19.0667 5.30642 15.2439 1.46675 10.525 1.46675V1.86675ZM18.6667 10.0001C18.6667 14.4731 15.0227 18.1334 10.525 18.1334V18.5334C15.2439 18.5334 19.0667 14.6937 19.0667 10.0001H18.6667ZM10.525 18.1334C7.6714 18.1334 5.17447 16.6542 3.71762 14.416L3.38238 14.6342C4.90886 16.9793 7.5286 18.5334 10.525 18.5334V18.1334ZM3.67409 14.6819L4.99076 13.6403L4.74258 13.3266L3.42591 14.3682L3.67409 14.6819ZM4.69636 13.5883C5.9058 15.5525 8.06024 16.8667 10.5333 16.8667V16.4667C8.20643 16.4667 6.17753 15.2309 5.03697 13.3786L4.69636 13.5883ZM10.5333 16.8667C12.3545 16.8667 14.101 16.1433 15.3888 14.8555L15.106 14.5727C13.8932 15.7854 12.2484 16.4667 10.5333 16.4667V16.8667ZM15.3888 14.8555C16.6765 13.5678 17.4 11.8212 17.4 10.0001H17C17 11.7151 16.3187 13.36 15.106 14.5727L15.3888 14.8555ZM17.4 10.0001C17.4 8.17893 16.6765 6.43236 15.3888 5.14461L15.106 5.42746C16.3187 6.64019 17 8.28501 17 10.0001H17.4ZM15.3888 5.14461C14.101 3.85687 12.3545 3.13341 10.5333 3.13341V3.53341C12.2484 3.53341 13.8932 4.21472 15.106 5.42746L15.3888 5.14461ZM10.5333 3.13341C7.03089 3.13341 4.14713 5.76012 3.72653 9.14207L4.12347 9.19143C4.51954 6.00671 7.23578 3.53341 10.5333 3.53341V3.13341ZM3.925 9.36675H6.225V8.96675H3.925V9.36675ZM6.08377 9.02514L2.9671 12.1335L3.24956 12.4167L6.36623 9.30836L6.08377 9.02514ZM3.24975 12.1337L0.141421 9.02533L-0.141421 9.30817L2.96691 12.4165L3.24975 12.1337ZM0 9.36675H2.24167V8.96675H0V9.36675ZM2.44069 9.18645C2.84735 5.07925 6.31236 1.86675 10.525 1.86675V1.46675C6.10431 1.46675 2.46932 4.83758 2.04264 9.14704L2.44069 9.18645ZM12.9877 8.73337C13.2992 8.73961 13.55 8.98769 13.55 9.30008H13.95C13.95 8.76247 13.5175 8.34389 12.9957 8.33345L12.9877 8.73337ZM13.55 9.30008V13.1417H13.95V9.30008H13.55ZM13.55 13.1417C13.55 13.4494 13.2965 13.7084 12.9833 13.7084V14.1084C13.5202 14.1084 13.95 13.6675 13.95 13.1417H13.55ZM12.9833 13.7084H8.375V14.1084H12.9833V13.7084ZM8.375 13.7084C8.06187 13.7084 7.80833 13.4494 7.80833 13.1417H7.40833C7.40833 13.6675 7.83813 14.1084 8.375 14.1084V13.7084ZM7.80833 13.1417V9.30008H7.40833V13.1417H7.80833ZM7.80833 9.30008C7.80833 8.98769 8.05912 8.73961 8.37066 8.73337L8.36267 8.33345C7.84088 8.34389 7.40833 8.76247 7.40833 9.30008H7.80833ZM8.56667 8.53341V7.69175H8.16667V8.53341H8.56667ZM8.56667 7.69175C8.56667 6.52767 9.51832 5.58341 10.675 5.58341V5.18341C9.29835 5.18341 8.16667 6.30582 8.16667 7.69175H8.56667ZM10.675 5.58341C11.8405 5.58341 12.7917 6.52814 12.7917 7.69175H13.1917C13.1917 6.30535 12.0595 5.18341 10.675 5.18341V5.58341ZM12.7917 7.69175V8.53341H13.1917V7.69175H12.7917ZM10.675 6.35008C9.94049 6.35008 9.33333 6.94701 9.33333 7.69175H9.73333C9.73333 7.16982 10.1595 6.75008 10.675 6.75008V6.35008ZM9.33333 7.69175V8.53341H9.73333V7.69175H9.33333ZM9.53333 8.73341H11.825V8.33341H9.53333V8.73341ZM12.025 8.53341V7.69175H11.625V8.53341H12.025ZM12.025 7.69175C12.025 6.94607 11.4169 6.35008 10.675 6.35008V6.75008C11.1998 6.75008 11.625 7.17076 11.625 7.69175H12.025Z" fill="white" mask="url(#path-1-inside-1_1387_26539)"/>
</svg>
