<svg width="105" height="41" viewBox="0 0 105 41" fill="none" xmlns="http://www.w3.org/2000/svg">
<g clip-path="url(#clip0_931_12027)">
<path d="M54.88 18.099H55.8191C55.908 18.0992 55.996 18.0815 56.0782 18.047C56.1603 18.0126 56.235 17.962 56.2978 17.8982C56.3607 17.8344 56.4106 17.7586 56.4447 17.6752C56.4787 17.5918 56.4962 17.5024 56.4962 17.4121V10.3466C56.496 10.1643 56.4245 9.98958 56.2975 9.86079C56.1706 9.732 55.9985 9.65967 55.8191 9.65967H54.88C54.7008 9.65995 54.529 9.73241 54.4023 9.86117C54.2756 9.98993 54.2043 10.1645 54.204 10.3466V17.4121C54.204 17.5943 54.2752 17.769 54.402 17.8978C54.5288 18.0266 54.7007 18.099 54.88 18.099Z" fill="#EE0033"/>
<path d="M48.3455 18.1946C48.9138 18.1946 49.5803 18.1635 49.93 17.4433L53.8881 9.65649H52.4409C52.16 9.65854 51.8855 9.74219 51.6499 9.89756C51.4142 10.0529 51.2272 10.2735 51.111 10.5334L48.6169 15.9203C48.5578 16.0469 48.4405 16.2541 48.3423 16.2541C48.2441 16.2541 48.131 16.0469 48.0687 15.9203L45.562 10.5366C45.4451 10.2772 45.258 10.0571 45.0225 9.90178C44.787 9.7465 44.5128 9.66254 44.2321 9.65971H42.7817L46.7398 17.4465C47.1317 18.2107 47.9346 18.1978 48.3455 18.1978" fill="#EE0033"/>
<path d="M98.4487 18.0991C98.628 18.0991 98.8 18.0267 98.9267 17.8979C99.0535 17.7691 99.1248 17.5944 99.1248 17.4122V16.6609H98.5564C98.1455 16.6609 97.2888 16.6448 96.7744 16.2949C96.1079 15.8484 96.167 15.052 96.167 14.4789V8.36108C96.167 8.17862 96.0957 8.00362 95.9687 7.8746C95.8417 7.74558 95.6695 7.6731 95.4899 7.6731H94.5519C94.3723 7.6731 94.2001 7.74558 94.0731 7.8746C93.9461 8.00362 93.8748 8.17862 93.8748 8.36108V15.3375C93.8748 16.4044 94.2476 17.0247 94.9131 17.4712C95.5596 17.9006 96.3043 18.0916 97.6945 18.0916L98.4487 18.0991Z" fill="#EE0033"/>
<path d="M69.7437 15.345C69.7437 16.4119 70.1155 17.0323 70.7821 17.4788C71.4286 17.9081 72.1733 18.0991 73.5634 18.0991H74.3177C74.497 18.0991 74.6689 18.0267 74.7957 17.8979C74.9225 17.7691 74.9937 17.5944 74.9937 17.4122V16.6609H74.4254C74.0134 16.6609 73.1578 16.6448 72.6423 16.2949C71.9768 15.8484 72.0349 15.052 72.0349 14.4789V11.0905H76.8159V15.3429C76.8159 16.4097 77.1877 17.0301 77.8543 17.4766C78.4997 17.9059 79.2444 18.097 80.6356 18.097H81.3888C81.4776 18.0971 81.5656 18.0794 81.6477 18.045C81.7297 18.0105 81.8043 17.9599 81.8671 17.8961C81.9299 17.8323 81.9797 17.7565 82.0137 17.6731C82.0476 17.5897 82.065 17.5003 82.0648 17.4101V16.6588H81.4976C81.0867 16.6588 80.2247 16.6427 79.7145 16.2928C79.049 15.8463 79.1082 15.0499 79.1082 14.4767V11.0905H81.3265C81.5058 11.0905 81.6777 11.0181 81.8045 10.8893C81.9313 10.7605 82.0025 10.5858 82.0025 10.4036V9.65226H79.1039V8.36645C79.1039 8.18417 79.0327 8.00934 78.906 7.88035C78.7792 7.75136 78.6073 7.67875 78.4279 7.67847H77.4888C77.3999 7.67847 77.3119 7.69627 77.2298 7.73086C77.1477 7.76545 77.0732 7.81614 77.0104 7.88004C76.9476 7.94394 76.8978 8.01979 76.8639 8.10325C76.83 8.18672 76.8126 8.27615 76.8127 8.36645V9.65978H72.0307V8.36645C72.0308 8.27615 72.0134 8.18672 71.9795 8.10325C71.9456 8.01979 71.8958 7.94394 71.833 7.88004C71.7703 7.81614 71.6957 7.76545 71.6136 7.73086C71.5315 7.69627 71.4435 7.67847 71.3546 7.67847H70.4155C70.2361 7.67875 70.0642 7.75136 69.9374 7.88035C69.8107 8.00934 69.7395 8.18417 69.7395 8.36645V9.65978H68.3092V10.4111C68.3092 10.5933 68.3804 10.768 68.5072 10.8968C68.634 11.0256 68.806 11.098 68.9853 11.098H69.7437V15.345Z" fill="#EE0033"/>
<path d="M67.3142 14.1816C67.7441 13.8317 67.8033 13.338 67.8033 12.9086C67.8033 11.8418 67.5487 10.79 66.335 10.1696C65.3747 9.67587 64.1166 9.63293 62.9061 9.63293C61.9269 9.63293 60.1596 9.63293 59.0272 10.4293C57.8948 11.2257 57.7892 12.3784 57.7892 13.9594C57.7892 15.0735 57.8483 16.2359 58.5286 17.0323C59.3906 18.0197 60.6413 18.0991 61.6976 18.0991H66.786C66.8748 18.0993 66.9628 18.0816 67.0449 18.0471C67.127 18.0126 67.2016 17.962 67.2644 17.8982C67.3272 17.8344 67.377 17.7586 67.4109 17.6752C67.4448 17.5918 67.4622 17.5024 67.4621 17.4122V16.6609H62.3917C61.5466 16.6609 60.5895 16.5654 60.2959 15.6574C60.2045 15.2769 60.1584 14.8866 60.1586 14.495H66.1924C66.6033 14.495 66.9952 14.4317 67.3089 14.173L67.3142 14.1816ZM64.9195 13.0675H61.6596C60.8314 13.0675 60.1596 13.4528 60.1596 13.9261V13.0675C60.1786 12.5104 60.1596 12.0479 60.6297 11.6185C61.2561 11.0454 62.1973 11.0615 62.8036 11.0615C63.4501 11.0615 64.1948 11.0937 64.7631 11.4436C64.9595 11.5589 65.1237 11.7232 65.2402 11.921C65.3566 12.1187 65.4215 12.3434 65.4286 12.5738C65.4286 12.797 65.3705 13.0675 64.9195 13.0675Z" fill="#EE0033"/>
<path d="M86.4888 18.099H91.5719C91.6607 18.0992 91.7487 18.0815 91.8307 18.047C91.9128 18.0126 91.9874 17.962 92.0502 17.8982C92.113 17.8343 92.1628 17.7586 92.1967 17.6752C92.2307 17.5918 92.2481 17.5024 92.2479 17.4121V16.6608H87.1733C86.3282 16.6608 85.3712 16.5653 85.0775 15.6573C84.9867 15.2767 84.9406 14.8865 84.9402 14.4949H90.9761C91.387 14.4949 91.7789 14.4316 92.0926 14.1729C92.5236 13.823 92.5828 13.3293 92.5828 12.9C92.5828 11.8331 92.3282 10.7813 91.1134 10.1609C90.1532 9.6672 88.8951 9.62427 87.6845 9.62427C86.7053 9.62427 84.9381 9.62427 83.8057 10.4207C82.6733 11.217 82.5708 12.3784 82.5708 13.9593C82.5708 15.0734 82.63 16.2358 83.3155 17.0322C84.1775 18.0196 85.4282 18.099 86.4845 18.099H86.4888ZM84.9412 13.0674C84.9613 12.5104 84.9412 12.0478 85.4113 11.6185C86.0388 11.0453 86.9789 11.0614 87.5863 11.0614C88.2328 11.0614 88.9764 11.0936 89.5447 11.4435C89.7413 11.5587 89.9057 11.7229 90.0224 11.9207C90.139 12.1185 90.204 12.3432 90.2113 12.5737C90.2113 12.7969 90.1521 13.0674 89.7011 13.0674H86.4412C85.6131 13.0674 84.9412 13.4527 84.9412 13.926V13.0674Z" fill="#EE0033"/>
<path d="M55.3501 8.86333H55.8191C55.9987 8.86333 56.1709 8.79085 56.2979 8.66183C56.4249 8.5328 56.4962 8.35781 56.4962 8.17535V7.98537C56.4962 7.89508 56.4787 7.80567 56.4447 7.72226C56.4106 7.63885 56.3607 7.56307 56.2978 7.49927C56.235 7.43548 56.1603 7.3849 56.0782 7.35044C55.996 7.31599 55.908 7.29832 55.8191 7.29846H54.8811C54.7922 7.29832 54.7042 7.31599 54.622 7.35044C54.5399 7.3849 54.4653 7.43548 54.4024 7.49927C54.3395 7.56307 54.2896 7.63885 54.2555 7.72226C54.2215 7.80567 54.204 7.89508 54.204 7.98537V9.65972H54.2156C54.28 9.27011 54.7163 8.86333 55.3522 8.86333" fill="#EE0033"/>
<path d="M42.7817 30.9572V23.9443C42.7817 22.9876 43.3588 22.5093 44.5131 22.5093H53.3377C54.5934 22.5093 55.5673 22.7272 56.2596 23.1629C56.9518 23.5987 57.2983 24.3425 57.299 25.3943V29.6585C57.2962 30.0066 57.1576 30.3393 56.9136 30.5836C56.6696 30.8279 56.3401 30.9638 55.9976 30.9615H55.0469V25.888C55.0469 25.2304 54.8803 24.7417 54.5472 24.4219C54.2141 24.1021 53.6691 23.9428 52.912 23.9443H51.1648V29.6972C51.1623 30.0337 51.0284 30.3555 50.7925 30.5918C50.5566 30.8281 50.238 30.9595 49.9067 30.9572H48.9148V23.9443H45.6085C45.224 23.9443 45.0317 24.1035 45.0317 24.4219V29.695C45.0306 29.862 44.9971 30.0271 44.9332 30.1809C44.8693 30.3347 44.7761 30.4742 44.6591 30.5915C44.542 30.7087 44.4034 30.8013 44.2511 30.8641C44.0988 30.9268 43.9359 30.9585 43.7715 30.9572H42.7817Z" fill="black"/>
<path d="M70.1536 30.9572V23.9443C70.1536 22.9876 70.7303 22.5093 71.8838 22.5093H75.4595C76.7152 22.5093 77.6895 22.7272 78.3824 23.1629C79.0754 23.5987 79.4215 24.3425 79.4208 25.3943V30.9572H77.1708V25.888C77.1708 25.2304 77.0043 24.7417 76.6712 24.4219C76.3381 24.1021 75.7934 23.9428 75.037 23.9443H72.9803C72.5944 23.9443 72.4018 24.1035 72.4025 24.4219V30.9572H70.1536Z" fill="black"/>
<path d="M101.837 22.5092L95.7623 33.6833H93.4743L95.0314 30.926L90.4944 22.5092H91.6162C91.9762 22.5079 92.3296 22.6073 92.6376 22.7967C92.9457 22.986 93.1964 23.2579 93.3623 23.5825L96.0888 28.9941L99.0402 23.4612C99.1962 23.1713 99.4264 22.9295 99.7063 22.7614C99.9863 22.5933 100.306 22.5051 100.631 22.506L101.837 22.5092Z" fill="black"/>
<path d="M69.148 26.781C69.148 28.4181 68.7219 29.5497 67.8698 30.1758C67.0177 30.8019 65.6353 31.1153 63.7226 31.116C61.8127 31.116 60.4318 30.8026 59.5797 30.1758C58.7275 29.549 58.3022 28.4174 58.3036 26.781C58.3036 25.1653 58.7332 24.0441 59.5923 23.4173C60.4515 22.7905 61.8282 22.4771 63.7226 22.4771C65.6198 22.4771 66.998 22.7905 67.8571 23.4173C68.7163 24.0441 69.1455 25.1653 69.1448 26.781H69.148ZM60.6275 26.781C60.6275 27.8328 60.8582 28.5791 61.3194 29.0199C61.7807 29.4606 62.5818 29.6814 63.7226 29.6821C64.8635 29.6821 65.6645 29.4614 66.1258 29.0199C66.587 28.5784 66.818 27.8321 66.8187 26.781C66.8187 25.7392 66.5877 25.0004 66.1258 24.5646C65.6638 24.1289 64.8627 23.911 63.7226 23.911C62.5818 23.911 61.7807 24.1289 61.3194 24.5646C60.8582 25.0004 60.6275 25.7392 60.6275 26.781Z" fill="black"/>
<path d="M84.467 30.8884H89.4973C89.5852 30.8886 89.6722 30.8711 89.7535 30.837C89.8347 30.803 89.9085 30.7529 89.9707 30.6898C90.033 30.6267 90.0823 30.5518 90.116 30.4693C90.1496 30.3868 90.167 30.2984 90.167 30.209V29.4706H85.1451C84.3117 29.4706 83.362 29.3762 83.0715 28.4778C82.9812 28.1015 82.9354 27.7156 82.9353 27.3283H88.9047C89.3124 27.3283 89.7001 27.265 90.0096 27.0128C90.4321 26.6661 90.4944 26.1777 90.4944 25.7527C90.4944 24.6977 90.242 23.6576 89.0409 23.0426C88.0902 22.5554 86.8501 22.506 85.649 22.506C84.6793 22.506 82.9353 22.506 81.8113 23.2927C80.6874 24.0794 80.5902 25.2311 80.5902 26.7906C80.5902 27.8929 80.6483 29.0445 81.3296 29.8312C82.1821 30.8079 83.4223 30.8863 84.4691 30.8863L84.467 30.8884ZM82.9374 25.9083C82.9575 25.3567 82.9374 24.9005 83.4022 24.4744C84.0233 23.9077 84.9529 23.9238 85.5539 23.9238C86.193 23.9238 86.9272 23.9549 87.4923 24.3016C87.6867 24.4157 87.8492 24.5783 87.9646 24.774C88.0799 24.9697 88.1442 25.192 88.1515 25.42C88.1515 25.64 88.0934 25.9083 87.6476 25.9083H84.4205C83.6008 25.9083 82.9353 26.2894 82.9353 26.7595L82.9374 25.9083Z" fill="black"/>
</g>
<g clip-path="url(#clip1_931_12027)">
<path d="M20.1761 37.6728C29.5105 37.6728 37.0775 29.9843 37.0775 20.5C37.0775 11.0158 29.5105 3.32727 20.1761 3.32727C10.8417 3.32727 3.27466 11.0158 3.27466 20.5C3.27466 29.9843 10.8417 37.6728 20.1761 37.6728Z" fill="#EE0033"/>
<path d="M18.3336 9.74072H16.0491C15.4701 9.74072 14.9149 9.97441 14.5055 10.3904C14.0961 10.8063 13.8661 11.3705 13.8661 11.9588V29.0456C13.8661 29.3369 13.9226 29.6253 14.0323 29.8944C14.142 30.1635 14.3028 30.408 14.5055 30.614C14.7082 30.82 14.9488 30.9833 15.2137 31.0948C15.4786 31.2063 15.7624 31.2636 16.0491 31.2636H18.3336C18.4053 31.2636 18.4763 31.2493 18.5425 31.2214C18.6087 31.1936 18.6689 31.1527 18.7196 31.1012C18.7702 31.0497 18.8104 30.9886 18.8379 30.9213C18.8653 30.8541 18.8794 30.782 18.8794 30.7091V29.0499C18.8794 28.9028 18.8219 28.7618 18.7196 28.6578C18.6172 28.5538 18.4784 28.4954 18.3336 28.4954H14.7873V12.5058H18.3336C18.4782 12.5046 18.6164 12.4453 18.7179 12.3407C18.8195 12.2361 18.876 12.0949 18.8752 11.948V10.2952C18.8752 10.1489 18.8183 10.0085 18.7168 9.90465C18.6154 9.80078 18.4777 9.74186 18.3336 9.74072Z" fill="#F4F4F4"/>
<path d="M24.3031 9.74073H22.0186C21.874 9.74101 21.7355 9.79956 21.6333 9.90352C21.5312 10.0075 21.4739 10.1484 21.4739 10.2952V11.948C21.4739 12.0949 21.5312 12.2358 21.6333 12.3398C21.7355 12.4437 21.874 12.5023 22.0186 12.5026H25.566V28.4975H22.0186C21.874 28.4978 21.7355 28.5564 21.6333 28.6603C21.5312 28.7643 21.4739 28.9052 21.4739 29.052V30.7081C21.4739 30.8549 21.5312 30.9958 21.6333 31.0998C21.7355 31.2037 21.874 31.2623 22.0186 31.2626H24.3031C24.5903 31.2631 24.8748 31.2061 25.1403 31.0948C25.4058 30.9834 25.647 30.8199 25.8502 30.6137C26.0534 30.4074 26.2145 30.1625 26.3244 29.8928C26.4342 29.6232 26.4906 29.3342 26.4904 29.0424V11.9588C26.4904 11.6671 26.4338 11.3784 26.3238 11.109C26.2138 10.8396 26.0526 10.5949 25.8495 10.3889C25.6463 10.1828 25.4052 10.0195 25.1398 9.90833C24.8745 9.79712 24.5901 9.74016 24.3031 9.74073Z" fill="#F4F4F4"/>
</g>
<defs>
<clipPath id="clip0_931_12027">
<rect width="59.0493" height="34.3456" fill="white" transform="translate(42.7817 3.32727)"/>
</clipPath>
<clipPath id="clip1_931_12027">
<rect width="33.8028" height="34.3456" fill="white" transform="translate(3.27466 3.32727)"/>
</clipPath>
</defs>
</svg>
