<svg width="24" height="25" viewBox="0 0 24 25" fill="none" xmlns="http://www.w3.org/2000/svg">
<path d="M2.25057 20H16.0068C16.6946 20 17.2574 19.4375 17.2574 18.75C17.2574 18.0625 16.6946 17.5 16.0068 17.5H2.25057C1.56276 17.5 1 18.0625 1 18.75C1 19.4375 1.56276 20 2.25057 20ZM2.25057 13.75H12.2551C12.9429 13.75 13.5057 13.1875 13.5057 12.5C13.5057 11.8125 12.9429 11.25 12.2551 11.25H2.25057C1.56276 11.25 1 11.8125 1 12.5C1 13.1875 1.56276 13.75 2.25057 13.75ZM1 6.25C1 6.9375 1.56276 7.5 2.25057 7.5H16.0068C16.6946 7.5 17.2574 6.9375 17.2574 6.25C17.2574 5.5625 16.6946 5 16.0068 5H2.25057C1.56276 5 1 5.5625 1 6.25ZM22.6348 16.1L19.0332 12.5L22.6348 8.9C22.7506 8.78427 22.8424 8.64688 22.9051 8.49568C22.9677 8.34447 23 8.18241 23 8.01875C23 7.85509 22.9677 7.69303 22.9051 7.54182C22.8424 7.39062 22.7506 7.25323 22.6348 7.1375C22.519 7.02177 22.3816 6.92997 22.2303 6.86734C22.079 6.80471 21.9169 6.77247 21.7532 6.77247C21.5894 6.77247 21.4273 6.80471 21.276 6.86734C21.1247 6.92997 20.9873 7.02177 20.8715 7.1375L16.382 11.625C16.266 11.7406 16.1741 11.878 16.1113 12.0292C16.0486 12.1804 16.0163 12.3425 16.0163 12.5063C16.0163 12.67 16.0486 12.8321 16.1113 12.9833C16.1741 13.1345 16.266 13.2719 16.382 13.3875L20.8715 17.875C21.3592 18.3625 22.1471 18.3625 22.6348 17.875C23.11 17.3875 23.1225 16.5875 22.6348 16.1Z" fill="#222222"/>
</svg>
