<svg width="18" height="18" viewBox="0 0 18 18" fill="none" xmlns="http://www.w3.org/2000/svg">
<path d="M16.3125 4.5H1.6875C1.37684 4.5 1.125 4.75184 1.125 5.0625V12.9375C1.125 13.2482 1.37684 13.5 1.6875 13.5H16.3125C16.6232 13.5 16.875 13.2482 16.875 12.9375V5.0625C16.875 4.75184 16.6232 4.5 16.3125 4.5Z" stroke="black" stroke-linecap="round" stroke-linejoin="round"/>
<path d="M9 11.25C10.2426 11.25 11.25 10.2426 11.25 9C11.25 7.75736 10.2426 6.75 9 6.75C7.75736 6.75 6.75 7.75736 6.75 9C6.75 10.2426 7.75736 11.25 9 11.25Z" stroke="black" stroke-linecap="round" stroke-linejoin="round"/>
<path d="M12.375 4.5L16.875 8.4375" stroke="black" stroke-linecap="round" stroke-linejoin="round"/>
<path d="M12.375 13.5L16.875 9.5625" stroke="black" stroke-linecap="round" stroke-linejoin="round"/>
<path d="M5.625 4.5L1.125 8.4375" stroke="black" stroke-linecap="round" stroke-linejoin="round"/>
<path d="M5.625 13.5L1.125 9.5625" stroke="black" stroke-linecap="round" stroke-linejoin="round"/>
</svg>
