<svg width="83" height="80" viewBox="0 0 83 80" fill="none" xmlns="http://www.w3.org/2000/svg">
<path fill-rule="evenodd" clip-rule="evenodd" d="M71 40C71 57.1208 57.1208 71 40 71C27.5116 71 16.7479 63.6154 11.8375 52.9746L28.6364 35.9091L37.2727 53.6364L57.2727 34.5454L53.1818 56.8182L69.3597 30.0235C70.4232 33.1542 71 36.5098 71 40ZM65.207 21.9514L40.9091 40.9091L25.4545 21.8182L10.0356 47.9754C9.36 45.4306 9 42.7574 9 40C9 22.8792 22.8792 9 40 9C50.3875 9 59.5818 14.109 65.207 21.9514ZM72.3077 16.4112C65.0312 6.46213 53.2703 0 40 0C17.9086 0 0 17.9086 0 40C0 46.4223 1.51356 52.4911 4.20343 57.8692L0 65L5.19326 59.7243C12.0694 71.8322 25.0808 80 40 80C62.0914 80 80 62.0914 80 40C80 32.9819 78.1926 26.3859 75.0179 20.6522L82.2727 8.63635L72.3077 16.4112Z" fill="url(#paint0_linear_181_6770)"/>
<defs>
<linearGradient id="paint0_linear_181_6770" x1="41.1364" y1="0" x2="41.1364" y2="80" gradientUnits="userSpaceOnUse">
<stop stop-color="#FCD707"/>
<stop offset="1" stop-color="#F8A414"/>
</linearGradient>
</defs>
</svg>
