<svg width="24" height="24" viewBox="0 0 24 24" fill="none" xmlns="http://www.w3.org/2000/svg">
<path d="M18.4357 18.5704C18.4354 18.8166 18.3375 19.0527 18.1635 19.2269C17.9895 19.4012 17.7536 19.4994 17.5073 19.5H14.4395C14.3938 19.5 14.3499 19.4819 14.3176 19.4495C14.2853 19.4172 14.2671 19.3733 14.2671 19.3276V15.1364C14.2671 14.8557 14.1556 14.5865 13.9571 14.388C13.7586 14.1895 13.4894 14.078 13.2087 14.078H9.72706C9.44636 14.078 9.17714 14.1895 8.97865 14.388C8.78016 14.5865 8.66865 14.8557 8.66865 15.1364V19.3276C8.66865 19.3733 8.65048 19.4172 8.61815 19.4495C8.58581 19.4819 8.54195 19.5 8.49622 19.5H5.42843C5.18242 19.4993 4.94669 19.4013 4.77273 19.2273C4.59877 19.0533 4.50072 18.8176 4.5 18.5716V11.4691C4.5 11.1153 4.63719 10.7754 4.88273 10.5207L10.1449 5.06287C10.3188 4.88398 10.527 4.74194 10.7571 4.64524C10.9871 4.54854 11.2342 4.49914 11.4838 4.50001C11.7333 4.50088 11.9801 4.55198 12.2095 4.65028C12.4388 4.74858 12.646 4.89206 12.8187 5.07216L18.0365 10.5035C18.2863 10.7635 18.426 11.11 18.4265 11.4706L18.4357 18.5704Z" fill="#222222"/>
</svg>
