<svg width="16" height="16" viewBox="0 0 16 16" fill="none" xmlns="http://www.w3.org/2000/svg">
<path d="M6.31859 2H4.83325C4.43543 2 4.0539 2.15804 3.77259 2.43934C3.49129 2.72064 3.33325 3.10218 3.33325 3.5V12.5C3.33325 12.8978 3.49129 13.2794 3.77259 13.5607C4.0539 13.842 4.43543 14 4.83325 14H10.8333C11.2311 14 11.6126 13.842 11.8939 13.5607C12.1752 13.2794 12.3333 12.8978 12.3333 12.5V8M6.31859 2C7.14725 2 7.83325 2.67133 7.83325 3.5V5C7.83325 5.39782 7.99129 5.77936 8.27259 6.06066C8.5539 6.34196 8.93543 6.5 9.33325 6.5H10.8333C11.2311 6.5 11.6126 6.65804 11.8939 6.93934C12.1752 7.22064 12.3333 7.60218 12.3333 8M6.31859 2C8.77859 2 12.3333 5.57333 12.3333 8M5.99992 11H9.99992M5.99992 9H8.66659" stroke="#242424" stroke-width="1.125" stroke-linecap="round" stroke-linejoin="round"/>
</svg>
