<svg width="20" height="20" viewBox="0 0 20 20" fill="none" xmlns="http://www.w3.org/2000/svg">
<mask id="path-1-inside-1_286_10233" fill="white">
<path d="M10.525 1.66699C15.1333 1.66699 18.8667 5.41699 18.8667 10.0003C18.8667 14.5837 15.1333 18.3337 10.525 18.3337C7.6 18.3337 5.04167 16.817 3.55 14.5253L4.86667 13.4837C6.04167 15.392 8.13333 16.667 10.5333 16.667C12.3014 16.667 13.9971 15.9646 15.2474 14.7144C16.4976 13.4641 17.2 11.7684 17.2 10.0003C17.2 8.23222 16.4976 6.53652 15.2474 5.28628C13.9971 4.03604 12.3014 3.33366 10.5333 3.33366C7.13333 3.33366 4.33333 5.88366 3.925 9.16699H6.225L3.10833 12.2753L0 9.16699H2.24167C2.65833 4.95866 6.20833 1.66699 10.525 1.66699ZM12.9917 8.53366C13.4083 8.54199 13.75 8.87533 13.75 9.30033V13.142C13.75 13.5587 13.4083 13.9087 12.9833 13.9087H8.375C7.95 13.9087 7.60833 13.5587 7.60833 13.142V9.30033C7.60833 8.87533 7.95 8.54199 8.36667 8.53366V7.69199C8.36667 6.41699 9.40833 5.38366 10.675 5.38366C11.95 5.38366 12.9917 6.41699 12.9917 7.69199V8.53366ZM10.675 6.55033C10.05 6.55033 9.53333 7.05866 9.53333 7.69199V8.53366H11.825V7.69199C11.825 7.05866 11.3083 6.55033 10.675 6.55033Z"/>
</mask>
<path d="M10.525 1.66699C15.1333 1.66699 18.8667 5.41699 18.8667 10.0003C18.8667 14.5837 15.1333 18.3337 10.525 18.3337C7.6 18.3337 5.04167 16.817 3.55 14.5253L4.86667 13.4837C6.04167 15.392 8.13333 16.667 10.5333 16.667C12.3014 16.667 13.9971 15.9646 15.2474 14.7144C16.4976 13.4641 17.2 11.7684 17.2 10.0003C17.2 8.23222 16.4976 6.53652 15.2474 5.28628C13.9971 4.03604 12.3014 3.33366 10.5333 3.33366C7.13333 3.33366 4.33333 5.88366 3.925 9.16699H6.225L3.10833 12.2753L0 9.16699H2.24167C2.65833 4.95866 6.20833 1.66699 10.525 1.66699ZM12.9917 8.53366C13.4083 8.54199 13.75 8.87533 13.75 9.30033V13.142C13.75 13.5587 13.4083 13.9087 12.9833 13.9087H8.375C7.95 13.9087 7.60833 13.5587 7.60833 13.142V9.30033C7.60833 8.87533 7.95 8.54199 8.36667 8.53366V7.69199C8.36667 6.41699 9.40833 5.38366 10.675 5.38366C11.95 5.38366 12.9917 6.41699 12.9917 7.69199V8.53366ZM10.675 6.55033C10.05 6.55033 9.53333 7.05866 9.53333 7.69199V8.53366H11.825V7.69199C11.825 7.05866 11.3083 6.55033 10.675 6.55033Z" fill="#E67E22"/>
<path d="M3.55 14.5253L3.42591 14.3685L3.28291 14.4816L3.38238 14.6344L3.55 14.5253ZM4.86667 13.4837L5.03697 13.3788L4.91902 13.1872L4.74258 13.3268L4.86667 13.4837ZM10.5333 16.667V16.867V16.667ZM17.2 10.0003H17.4H17.2ZM3.925 9.16699L3.72653 9.14231L3.69859 9.36699H3.925V9.16699ZM6.225 9.16699L6.36623 9.3086L6.70876 8.96699H6.225V9.16699ZM3.10833 12.2753L2.96691 12.4167L3.10814 12.558L3.24956 12.4169L3.10833 12.2753ZM0 9.16699V8.96699H-0.482843L-0.141421 9.30841L0 9.16699ZM2.24167 9.16699V9.36699H2.42284L2.44069 9.1867L2.24167 9.16699ZM12.9917 8.53366H12.7917V8.7297L12.9877 8.73362L12.9917 8.53366ZM8.36667 8.53366L8.37066 8.73362L8.56667 8.7297V8.53366H8.36667ZM9.53333 8.53366H9.33333V8.73366H9.53333V8.53366ZM11.825 8.53366V8.73366H12.025V8.53366H11.825ZM10.525 1.86699C15.0227 1.86699 18.6667 5.52732 18.6667 10.0003H19.0667C19.0667 5.30667 15.2439 1.46699 10.525 1.46699V1.86699ZM18.6667 10.0003C18.6667 14.4733 15.0227 18.1337 10.525 18.1337V18.5337C15.2439 18.5337 19.0667 14.694 19.0667 10.0003H18.6667ZM10.525 18.1337C7.6714 18.1337 5.17447 16.6544 3.71762 14.4162L3.38238 14.6344C4.90886 16.9796 7.5286 18.5337 10.525 18.5337V18.1337ZM3.67409 14.6822L4.99076 13.6405L4.74258 13.3268L3.42591 14.3685L3.67409 14.6822ZM4.69636 13.5885C5.9058 15.5528 8.06024 16.867 10.5333 16.867V16.467C8.20643 16.467 6.17753 15.2312 5.03697 13.3788L4.69636 13.5885ZM10.5333 16.867C12.3545 16.867 14.101 16.1435 15.3888 14.8558L15.106 14.5729C13.8932 15.7857 12.2484 16.467 10.5333 16.467V16.867ZM15.3888 14.8558C16.6765 13.568 17.4 11.8215 17.4 10.0003H17C17 11.7154 16.3187 13.3602 15.106 14.5729L15.3888 14.8558ZM17.4 10.0003C17.4 8.17917 16.6765 6.43261 15.3888 5.14486L15.106 5.4277C16.3187 6.64044 17 8.28526 17 10.0003H17.4ZM15.3888 5.14486C14.101 3.85711 12.3545 3.13366 10.5333 3.13366V3.53366C12.2484 3.53366 13.8932 4.21497 15.106 5.4277L15.3888 5.14486ZM10.5333 3.13366C7.03089 3.13366 4.14713 5.76036 3.72653 9.14231L4.12347 9.19168C4.51954 6.00695 7.23578 3.53366 10.5333 3.53366V3.13366ZM3.925 9.36699H6.225V8.96699H3.925V9.36699ZM6.08377 9.02538L2.9671 12.1337L3.24956 12.4169L6.36623 9.3086L6.08377 9.02538ZM3.24975 12.1339L0.141421 9.02557L-0.141421 9.30841L2.96691 12.4167L3.24975 12.1339ZM0 9.36699H2.24167V8.96699H0V9.36699ZM2.44069 9.1867C2.84735 5.07949 6.31236 1.86699 10.525 1.86699V1.46699C6.10431 1.46699 2.46932 4.83782 2.04264 9.14729L2.44069 9.1867ZM12.9877 8.73362C13.2992 8.73985 13.55 8.98794 13.55 9.30033H13.95C13.95 8.76271 13.5175 8.34413 12.9957 8.3337L12.9877 8.73362ZM13.55 9.30033V13.142H13.95V9.30033H13.55ZM13.55 13.142C13.55 13.4496 13.2965 13.7087 12.9833 13.7087V14.1087C13.5202 14.1087 13.95 13.6677 13.95 13.142H13.55ZM12.9833 13.7087H8.375V14.1087H12.9833V13.7087ZM8.375 13.7087C8.06187 13.7087 7.80833 13.4496 7.80833 13.142H7.40833C7.40833 13.6677 7.83813 14.1087 8.375 14.1087V13.7087ZM7.80833 13.142V9.30033H7.40833V13.142H7.80833ZM7.80833 9.30033C7.80833 8.98794 8.05912 8.73985 8.37066 8.73362L8.36267 8.3337C7.84088 8.34413 7.40833 8.76271 7.40833 9.30033H7.80833ZM8.56667 8.53366V7.69199H8.16667V8.53366H8.56667ZM8.56667 7.69199C8.56667 6.52792 9.51832 5.58366 10.675 5.58366V5.18366C9.29835 5.18366 8.16667 6.30607 8.16667 7.69199H8.56667ZM10.675 5.58366C11.8405 5.58366 12.7917 6.52839 12.7917 7.69199H13.1917C13.1917 6.3056 12.0595 5.18366 10.675 5.18366V5.58366ZM12.7917 7.69199V8.53366H13.1917V7.69199H12.7917ZM10.675 6.35033C9.94049 6.35033 9.33333 6.94725 9.33333 7.69199H9.73333C9.73333 7.17006 10.1595 6.75033 10.675 6.75033V6.35033ZM9.33333 7.69199V8.53366H9.73333V7.69199H9.33333ZM9.53333 8.73366H11.825V8.33366H9.53333V8.73366ZM12.025 8.53366V7.69199H11.625V8.53366H12.025ZM12.025 7.69199C12.025 6.94631 11.4169 6.35033 10.675 6.35033V6.75033C11.1998 6.75033 11.625 7.17101 11.625 7.69199H12.025Z" fill="white" mask="url(#path-1-inside-1_286_10233)"/>
</svg>
