
<svg width="14" height="14" viewBox="0 0 14 14" fill="none" xmlns="http://www.w3.org/2000/svg">
<path d="M9.99993 0.792969L7.73943 3.05347L4.36943 4.01747C4.04438 4.1049 3.74616 4.27176 3.50161 4.50305C3.25705 4.73434 3.07383 5.02279 2.96843 5.34247L0.929932 11.637L1.64693 12.354L2.36393 13.071L8.66043 11.031C8.97845 10.9257 9.26545 10.7433 9.49578 10.5C9.72612 10.2568 9.89262 9.96025 9.98043 9.63697L10.9449 6.26297L13.2069 3.99997L9.99993 0.792969ZM9.99993 2.20697L11.7929 3.99997L10.4999 5.29297L8.70693 3.49997L9.99993 2.20697ZM7.85493 4.06247L9.93743 6.14447L9.01643 9.36947C8.97229 9.53379 8.8882 9.68464 8.77165 9.8086C8.65511 9.93256 8.50972 10.0258 8.34843 10.08L2.84493 11.8625L5.74243 8.96497C5.82638 8.98779 5.91294 8.99955 5.99993 8.99997C6.26515 8.99997 6.5195 8.89461 6.70704 8.70708C6.89457 8.51954 6.99993 8.26518 6.99993 7.99997C6.99993 7.73475 6.89457 7.4804 6.70704 7.29286C6.5195 7.10533 6.26515 6.99997 5.99993 6.99997C5.84671 7.00014 5.69558 7.03552 5.55821 7.10338C5.42083 7.17124 5.30089 7.26975 5.20763 7.39132C5.11438 7.5129 5.0503 7.65427 5.02036 7.80453C4.99042 7.9548 4.9954 8.10994 5.03493 8.25797L2.13743 11.155L3.91893 5.65497C3.97334 5.49181 4.06751 5.34477 4.19294 5.2271C4.31838 5.10943 4.47113 5.02485 4.63743 4.98097L7.85543 4.06197L7.85493 4.06247Z" fill="#242424"/>
</svg>
