<svg width="14" height="14" viewBox="0 0 14 14" fill="none" xmlns="http://www.w3.org/2000/svg">
<path d="M7 12.25C9.8995 12.25 12.25 9.8995 12.25 7C12.25 4.10051 9.8995 1.75 7 1.75C4.10051 1.75 1.75 4.10051 1.75 7C1.75 9.8995 4.10051 12.25 7 12.25Z" fill="white" stroke="#747475" stroke-linecap="round" stroke-linejoin="round"/>
<path d="M7 8.3125V7.875C7.34612 7.875 7.68446 7.77237 7.97225 7.58007C8.26003 7.38778 8.48434 7.11447 8.61679 6.7947C8.74924 6.47493 8.7839 6.12306 8.71637 5.78359C8.64885 5.44413 8.48218 5.13231 8.23744 4.88756C7.99269 4.64282 7.68087 4.47615 7.34141 4.40863C7.00194 4.3411 6.65007 4.37576 6.3303 4.50821C6.01053 4.64066 5.73722 4.86497 5.54493 5.15275C5.35264 5.44054 5.25 5.77888 5.25 6.125" stroke="#747475" stroke-linecap="round" stroke-linejoin="round"/>
<path d="M7 10.7188C7.36244 10.7188 7.65625 10.4249 7.65625 10.0625C7.65625 9.70006 7.36244 9.40625 7 9.40625C6.63756 9.40625 6.34375 9.70006 6.34375 10.0625C6.34375 10.4249 6.63756 10.7188 7 10.7188Z" fill="#747475"/>
</svg>
