<svg xmlns="http://www.w3.org/2000/svg" width="15" height="11" viewBox="0 0 15 11" fill="none">
<path fill-rule="evenodd" clip-rule="evenodd" d="M3.08321 1.71731C4.30071 0.888069 5.73546 0.435689 7.20837 0.416626C8.68137 0.435689 10.1161 0.888069 11.3336 1.71731C12.551 2.54657 13.4974 3.71595 14.0545 5.07963C14.0736 5.1201 14.0834 5.16422 14.0834 5.20895C14.0834 5.25367 14.0736 5.29779 14.0545 5.33826C13.4974 6.70194 12.551 7.87135 11.3336 8.70057C10.1161 9.52979 8.68137 9.98217 7.20837 10.0013C5.73546 9.98217 4.30071 9.52979 3.08321 8.70057C1.86571 7.87135 0.919361 6.70194 0.362219 5.33826C0.343225 5.29779 0.333374 5.25367 0.333374 5.20895C0.333374 5.16422 0.343225 5.1201 0.362219 5.07963C0.919361 3.71595 1.86571 2.54657 3.08321 1.71731ZM5.03585 7.37865C5.60629 7.92771 6.37124 8.22803 7.16281 8.21373C7.95445 8.22803 8.7194 7.92771 9.28984 7.37865C9.86028 6.82959 10.1896 6.07674 10.2056 5.28509C10.1986 4.89288 10.1144 4.50584 9.95764 4.14619C9.80087 3.78654 9.57464 3.46142 9.29197 3.18933C9.0093 2.91727 8.67574 2.70366 8.31038 2.56075C7.94502 2.41783 7.55509 2.34842 7.16281 2.35649C6.7706 2.34842 6.3806 2.41783 6.01524 2.56075C5.6499 2.70366 5.31633 2.91727 5.03367 3.18933C4.751 3.46142 4.52481 3.78654 4.36804 4.14619C4.21127 4.50584 4.12701 4.89288 4.12009 5.28509C4.13608 6.07674 4.46542 6.82959 5.03585 7.37865ZM5.57368 3.72941C6.00147 3.32304 6.57297 3.10286 7.16281 3.11717C7.75272 3.10286 8.32422 3.32304 8.75196 3.72941C9.17977 4.13585 9.42897 4.69526 9.44487 5.28509C9.42897 5.87493 9.17977 6.43441 8.75196 6.84085C8.32422 7.2472 7.75272 7.46742 7.16281 7.45305C6.57297 7.46742 6.00147 7.2472 5.57368 6.84085C5.14589 6.43441 4.89671 5.87493 4.88078 5.28509C4.89671 4.69526 5.14589 4.13585 5.57368 3.72941Z" fill="#EE0033"/>
</svg>