<svg width="16" height="16" viewBox="0 0 16 16" fill="none" xmlns="http://www.w3.org/2000/svg">
<path d="M9.38611 1C9.49197 1 9.59509 1.0336 9.68063 1.09596C9.76617 1.15832 9.82972 1.24622 9.86211 1.347L10.4121 3.056C10.6431 3.169 10.8641 3.296 11.0751 3.439L12.8311 3.061C12.9346 3.03889 13.0425 3.05022 13.1392 3.09335C13.2359 3.13648 13.3164 3.20919 13.3691 3.301L14.7551 5.7C14.808 5.79176 14.8305 5.89795 14.8191 6.00327C14.8078 6.10859 14.7633 6.20759 14.6921 6.286L13.4871 7.616C13.5047 7.87103 13.5047 8.12697 13.4871 8.382L14.6921 9.714C14.7633 9.79241 14.8078 9.89141 14.8191 9.99673C14.8305 10.102 14.808 10.2082 14.7551 10.3L13.3691 12.7C13.3162 12.7916 13.2357 12.8641 13.139 12.9071C13.0423 12.95 12.9345 12.9612 12.8311 12.939L11.0751 12.561C10.8651 12.703 10.6431 12.831 10.4131 12.944L9.86211 14.653C9.82972 14.7538 9.76617 14.8417 9.68063 14.904C9.59509 14.9664 9.49197 15 9.38611 15H6.61411C6.50825 15 6.40513 14.9664 6.31958 14.904C6.23404 14.8417 6.1705 14.7538 6.13811 14.653L5.58911 12.945C5.35874 12.8323 5.13653 12.7037 4.92411 12.56L3.16911 12.939C3.06557 12.9611 2.95769 12.9498 2.86101 12.9066C2.76433 12.8635 2.68383 12.7908 2.63111 12.699L1.24511 10.3C1.19218 10.2082 1.16977 10.102 1.18109 9.99673C1.19241 9.89141 1.23689 9.79241 1.30811 9.714L2.51311 8.382C2.49565 8.12763 2.49565 7.87237 2.51311 7.618L1.30811 6.286C1.23689 6.20759 1.19241 6.10859 1.18109 6.00327C1.16977 5.89795 1.19218 5.79176 1.24511 5.7L2.63111 3.3C2.68397 3.20837 2.76453 3.13587 2.86121 3.09293C2.95788 3.04998 3.06568 3.0388 3.16911 3.061L4.92411 3.44C5.13611 3.297 5.35811 3.168 5.58911 3.055L6.13911 1.347C6.1714 1.24654 6.23464 1.15888 6.31978 1.09655C6.40492 1.03422 6.50759 1.00043 6.61311 1H9.38511H9.38611ZM9.02011 2H6.98011L6.41211 3.767L6.02911 3.954C5.84082 4.04613 5.65907 4.15104 5.48511 4.268L5.13111 4.508L3.31511 4.116L2.29511 5.884L3.54011 7.262L3.51011 7.686C3.49573 7.89509 3.49573 8.10491 3.51011 8.314L3.54011 8.738L2.29311 10.116L3.31411 11.884L5.13011 11.493L5.48411 11.732C5.65807 11.849 5.83982 11.9539 6.02811 12.046L6.41111 12.233L6.98011 14H9.02211L9.59211 12.232L9.97411 12.046C10.1622 11.9541 10.3436 11.8492 10.5171 11.732L10.8701 11.493L12.6871 11.884L13.7071 10.116L12.4611 8.738L12.4911 8.314C12.5055 8.10458 12.5055 7.89442 12.4911 7.685L12.4611 7.261L13.7081 5.884L12.6871 4.116L10.8701 4.506L10.5171 4.268C10.3436 4.15083 10.1622 4.04591 9.97411 3.954L9.59211 3.768L9.02111 2H9.02011ZM8.00011 5C8.79576 5 9.55882 5.31607 10.1214 5.87868C10.684 6.44129 11.0001 7.20435 11.0001 8C11.0001 8.79565 10.684 9.55871 10.1214 10.1213C9.55882 10.6839 8.79576 11 8.00011 11C7.20446 11 6.4414 10.6839 5.87879 10.1213C5.31618 9.55871 5.00011 8.79565 5.00011 8C5.00011 7.20435 5.31618 6.44129 5.87879 5.87868C6.4414 5.31607 7.20446 5 8.00011 5ZM8.00011 6C7.46968 6 6.96097 6.21071 6.5859 6.58579C6.21082 6.96086 6.00011 7.46957 6.00011 8C6.00011 8.53043 6.21082 9.03914 6.5859 9.41421C6.96097 9.78929 7.46968 10 8.00011 10C8.53054 10 9.03925 9.78929 9.41432 9.41421C9.7894 9.03914 10.0001 8.53043 10.0001 8C10.0001 7.46957 9.7894 6.96086 9.41432 6.58579C9.03925 6.21071 8.53054 6 8.00011 6Z" fill="#242424"/>
</svg>
