<svg width="24" height="24" viewBox="0 0 24 24" fill="none" xmlns="http://www.w3.org/2000/svg">
<g clip-path="url(#clip0_1716_2563)">
<path d="M19.3181 13.6705C19.1433 13.5223 19.0036 13.3413 18.908 13.1393C18.8124 12.9374 18.763 12.7189 18.763 12.4979C18.763 12.2769 18.8124 12.0584 18.908 11.8564C19.0036 11.6544 19.1433 11.4735 19.3181 11.3253L19.4447 11.2189C19.7026 10.9996 19.8817 10.7109 19.9577 10.3924C20.0336 10.0738 20.0026 9.74106 19.869 9.43968C19.7353 9.1383 19.5055 8.88306 19.2111 8.70896C18.9166 8.53486 18.5719 8.45043 18.2243 8.46722L18.0576 8.47975C17.8218 8.4908 17.5862 8.45529 17.366 8.37552C17.1458 8.29575 16.9459 8.17349 16.7793 8.01667C16.6127 7.85984 16.4831 7.67195 16.3989 7.46516C16.3147 7.25838 16.2777 7.03731 16.2904 6.81627L16.2973 6.65992C16.3148 6.33406 16.2243 6.01111 16.0383 5.7354C15.8522 5.45968 15.5797 5.24472 15.2582 5.12001C14.9367 4.9953 14.5819 4.96695 14.2425 5.03887C13.9031 5.11079 13.5958 5.27944 13.3627 5.52168L13.2494 5.64047C13.0913 5.8044 12.8984 5.93544 12.683 6.02513C12.4677 6.11481 12.2346 6.16115 11.9989 6.16115C11.7633 6.16115 11.5302 6.11481 11.3149 6.02513C11.0995 5.93544 10.9066 5.8044 10.7485 5.64047L10.6352 5.52168C10.4022 5.27946 10.0948 5.11083 9.75549 5.03893C9.41613 4.96703 9.06135 4.99538 8.73986 5.12009C8.41837 5.2448 8.14592 5.45976 7.95992 5.73547C7.77391 6.01117 7.68347 6.33409 7.701 6.65992L7.70784 6.81627C7.72047 7.03732 7.68345 7.25839 7.59919 7.46517C7.51492 7.67195 7.38527 7.85983 7.21865 8.01664C7.05203 8.17346 6.85214 8.29571 6.63193 8.37549C6.41173 8.45526 6.1761 8.49078 5.94033 8.47975L5.77361 8.46722C5.42585 8.45022 5.08103 8.53472 4.7866 8.70908C4.49217 8.88343 4.26261 9.13908 4.12953 9.44083C3.99645 9.74257 3.96638 10.0756 4.04347 10.394C4.12056 10.7124 4.30101 11.0006 4.55999 11.2189L4.68015 11.3253C4.85493 11.4735 4.99464 11.6544 5.09025 11.8564C5.18587 12.0584 5.23527 12.2769 5.23527 12.4979C5.23527 12.7189 5.18587 12.9374 5.09025 13.1393C4.99464 13.3413 4.85493 13.5223 4.68015 13.6705L4.55999 13.7767C4.30045 13.9948 4.11948 14.283 4.04206 14.6016C3.96465 14.9203 3.99459 15.2535 4.12778 15.5555C4.26096 15.8575 4.49081 16.1133 4.78561 16.2875C5.08041 16.4618 5.42562 16.546 5.77361 16.5284L5.94033 16.5222C6.17572 16.5104 6.41112 16.5453 6.63122 16.6244C6.85132 16.7035 7.05121 16.8252 7.2179 16.9815C7.38459 17.1378 7.51436 17.3252 7.59876 17.5316C7.68317 17.738 7.72033 17.9587 7.70784 18.1795L7.701 18.3421C7.68417 18.6676 7.77504 18.9901 7.96117 19.2654C8.14729 19.5406 8.41958 19.7552 8.74077 19.8798C9.06195 20.0044 9.41636 20.0329 9.75547 19.9614C10.0946 19.8899 10.4019 19.7219 10.6352 19.4803L10.7485 19.3614C10.9066 19.1975 11.0995 19.0665 11.3149 18.9768C11.5303 18.8871 11.7633 18.8408 11.9989 18.8408C12.2346 18.8408 12.4676 18.8871 12.683 18.9768C12.8984 19.0665 13.0913 19.1975 13.2494 19.3614L13.3627 19.4803C13.5961 19.7219 13.9034 19.8899 14.2425 19.9614C14.5816 20.033 14.9361 20.0045 15.2573 19.8799C15.5785 19.7553 15.8508 19.5407 16.037 19.2654C16.2231 18.9901 16.314 18.6676 16.2972 18.3421L16.2904 18.1795C16.2778 17.9587 16.3149 17.738 16.3993 17.5316C16.4837 17.3252 16.6134 17.1378 16.7801 16.9815C16.9467 16.8252 17.1466 16.7035 17.3667 16.6244C17.5868 16.5452 17.8222 16.5104 18.0576 16.5222L18.2243 16.5284C18.5722 16.5458 18.9172 16.4617 19.212 16.2876C19.5068 16.1136 19.737 15.8583 19.8707 15.5567C20.0045 15.2551 20.0354 14.922 19.9591 14.6033C19.8828 14.2845 19.7031 13.9958 19.4447 13.7767L19.3181 13.6705ZM12.0025 15.9405C11.277 15.9406 10.5678 15.7389 9.96451 15.3609C9.36124 14.983 8.89105 14.4458 8.61337 13.8173C8.3357 13.1888 8.26302 12.4972 8.40453 11.83C8.54604 11.1627 8.89538 10.5498 9.40838 10.0688C9.92137 9.58771 10.575 9.2601 11.2865 9.12736C11.9981 8.99463 12.7357 9.06274 13.4059 9.32307C14.0762 9.58341 14.6491 10.0243 15.0522 10.5899C15.4553 11.1556 15.6704 11.8206 15.6704 12.5009C15.6707 12.9527 15.576 13.4001 15.3918 13.8175C15.2076 14.2349 14.9374 14.6142 14.5968 14.9336C14.2561 15.2531 13.8517 15.5064 13.4065 15.6792C12.9614 15.852 12.4843 15.9408 12.0025 15.9405L12.0025 15.9405Z" fill="#222222"/>
</g>
<defs>
<clipPath id="clip0_1716_2563">
<rect width="24" height="24" fill="white"/>
</clipPath>
</defs>
</svg>
