
<svg width="16" height="16" viewBox="0 0 16 16" fill="none" xmlns="http://www.w3.org/2000/svg">
<path d="M8.99999 4.74989C8.99999 4.55098 9.07901 4.36021 9.21966 4.21956C9.36031 4.07891 9.55108 3.99989 9.74999 3.99989H13.75C13.8982 4.00002 14.0431 4.04408 14.1663 4.1265C14.2895 4.20892 14.3856 4.326 14.4423 4.46297C14.499 4.59993 14.5138 4.75063 14.485 4.89603C14.4561 5.04142 14.3847 5.175 14.28 5.27989L12.39 7.17189C12.702 7.24789 12.994 7.35189 13.257 7.49089C13.999 7.88189 14.501 8.55389 14.501 9.49589C14.501 10.1489 14.27 10.7039 13.872 11.1229C13.486 11.5309 12.978 11.7759 12.464 11.8999C11.454 12.1429 10.239 11.9629 9.33999 11.3729C9.18626 11.2586 9.08199 11.09 9.0485 10.9014C9.01501 10.7128 9.05484 10.5186 9.15984 10.3584C9.26485 10.1982 9.42708 10.0842 9.61337 10.0397C9.79965 9.99515 9.99591 10.0235 10.162 10.1189C10.696 10.4689 11.482 10.5929 12.113 10.4409C12.419 10.3679 12.643 10.2399 12.783 10.0919C12.912 9.95589 13.001 9.77189 13.001 9.49589C13.001 9.18789 12.878 8.98689 12.557 8.81789C12.184 8.62089 11.577 8.49989 10.751 8.49989C10.6028 8.49976 10.4579 8.4557 10.3347 8.37328C10.2114 8.29086 10.1154 8.17378 10.0587 8.03681C10.002 7.89985 9.98714 7.74915 10.016 7.60375C10.0449 7.45835 10.1162 7.32478 10.221 7.21989L11.941 5.49989H9.74999C9.55108 5.49989 9.36031 5.42087 9.21966 5.28022C9.07901 5.13957 8.99999 4.9488 8.99999 4.74989ZM5.41299 10.5129C5.06299 10.4629 4.64299 10.6259 4.42999 11.0849C4.38982 11.1763 4.33183 11.2587 4.25939 11.3274C4.18696 11.396 4.10155 11.4495 4.00817 11.4848C3.91479 11.52 3.81532 11.5362 3.71558 11.5325C3.61585 11.5288 3.51785 11.5053 3.42734 11.4632C3.33683 11.4211 3.25562 11.3614 3.18848 11.2876C3.12134 11.2137 3.06962 11.1272 3.03633 11.0331C3.00305 10.9391 2.98889 10.8393 2.99467 10.7396C3.00045 10.64 3.02605 10.5425 3.06999 10.4529C3.57799 9.35889 4.65899 8.88789 5.62799 9.02789C6.62799 9.17289 7.49999 9.97289 7.49999 11.2499C7.49999 12.6829 6.41199 13.4419 5.70999 13.9309C5.40199 14.1469 5.13899 14.3279 4.93799 14.5039H6.99999C7.1989 14.5039 7.38967 14.5829 7.53032 14.7236C7.67097 14.8642 7.74999 15.055 7.74999 15.2539C7.74999 15.4528 7.67097 15.6436 7.53032 15.7842C7.38967 15.9249 7.1989 16.0039 6.99999 16.0039H3.74999C3.55108 16.0039 3.36031 15.9249 3.21966 15.7842C3.07901 15.6436 2.99999 15.4528 2.99999 15.2539C2.99999 14.5639 3.29999 14.0429 3.66999 13.6439C4.01799 13.2719 4.46999 12.9679 4.81999 12.7239C5.61999 12.1639 5.99999 11.8199 5.99999 11.2499C5.99999 10.7769 5.73299 10.5599 5.41299 10.5129ZM5.60399 0.088889C5.72362 0.152937 5.82363 0.248241 5.89337 0.364646C5.96311 0.48105 5.99996 0.614194 5.99999 0.749889V5.51989H6.71099C6.9099 5.51989 7.10067 5.59891 7.24132 5.73956C7.38197 5.88021 7.46099 6.07098 7.46099 6.26989C7.46099 6.4688 7.38197 6.65957 7.24132 6.80022C7.10067 6.94087 6.9099 7.01989 6.71099 7.01989H3.75899C3.56008 7.01989 3.36931 6.94087 3.22866 6.80022C3.08801 6.65957 3.00899 6.4688 3.00899 6.26989C3.00899 6.07098 3.08801 5.88021 3.22866 5.73956C3.36931 5.59891 3.56008 5.51989 3.75899 5.51989H4.49999V2.14989L4.16599 2.37289C4.00048 2.48062 3.79916 2.51872 3.60572 2.47893C3.41229 2.43914 3.24236 2.32466 3.13281 2.16034C3.02327 1.99602 2.98295 1.79513 3.02062 1.60127C3.05828 1.40741 3.17089 1.23623 3.33399 1.12489L4.83399 0.124889C4.94697 0.0496072 5.07827 0.00640416 5.21387 -0.000112028C5.34948 -0.00662822 5.48431 0.0237868 5.60399 0.087889V0.088889Z" fill="#242424"/>
</svg>
