<svg width="18" height="18" viewBox="0 0 18 18" fill="none" xmlns="http://www.w3.org/2000/svg">
<path d="M6.75 3.9375V14.0625" stroke="black" stroke-linecap="round" stroke-linejoin="round"/>
<path d="M1.6875 11.7556C1.68748 11.626 1.73226 11.5004 1.81426 11.4C1.89627 11.2997 2.01044 11.2308 2.13744 11.205C2.64562 11.1012 3.10234 10.825 3.43034 10.4232C3.75835 10.0214 3.9375 9.51868 3.9375 9C3.9375 8.48132 3.75835 7.97857 3.43034 7.57678C3.10234 7.17498 2.64562 6.89882 2.13744 6.795C2.01044 6.76922 1.89627 6.70032 1.81426 6.59998C1.73226 6.49963 1.68748 6.37402 1.6875 6.24444V4.5C1.6875 4.35082 1.74676 4.20774 1.85225 4.10225C1.95774 3.99676 2.10082 3.9375 2.25 3.9375H15.75C15.8992 3.9375 16.0423 3.99676 16.1477 4.10225C16.2532 4.20774 16.3125 4.35082 16.3125 4.5V6.24444C16.3125 6.37402 16.2677 6.49964 16.1857 6.59998C16.1037 6.70032 15.9896 6.76922 15.8626 6.795C15.3544 6.89882 14.8977 7.17499 14.5697 7.57678C14.2417 7.97857 14.0625 8.48133 14.0625 9C14.0625 9.51868 14.2417 10.0214 14.5697 10.4232C14.8977 10.825 15.3544 11.1012 15.8626 11.205C15.9896 11.2308 16.1037 11.2997 16.1857 11.4C16.2677 11.5004 16.3125 11.626 16.3125 11.7556V13.5C16.3125 13.6492 16.2532 13.7923 16.1477 13.8977C16.0423 14.0032 15.8992 14.0625 15.75 14.0625H2.25C2.10082 14.0625 1.95774 14.0032 1.85225 13.8977C1.74676 13.7923 1.6875 13.6492 1.6875 13.5V11.7556Z" stroke="black" stroke-linecap="round" stroke-linejoin="round"/>
</svg>
