<?xml version="1.0" encoding="iso-8859-1"?>
<!-- Uploaded to: SVG Repo, www.svgrepo.com, Generator: SVG Repo Mixer Tools -->
<!DOCTYPE svg PUBLIC "-//W3C//DTD SVG 1.1//EN" "http://www.w3.org/Graphics/SVG/1.1/DTD/svg11.dtd">
<svg fill="#000000" height="800px" width="800px" version="1.1" id="Capa_1" xmlns="http://www.w3.org/2000/svg" xmlns:xlink="http://www.w3.org/1999/xlink" 
	 viewBox="0 0 297 297" xml:space="preserve">
<g>
	<path d="M291.219,78.753L153.176,9.732c-2.943-1.473-6.409-1.473-9.353,0L5.781,78.753C2.238,80.525,0,84.145,0,88.107v189.808
		c0,5.775,4.682,10.458,10.458,10.458h34.511c5.775,0,10.458-4.682,10.458-10.458V115.82h186.148v162.095
		c0,5.775,4.682,10.458,10.458,10.458h34.511c5.775,0,10.458-4.682,10.458-10.458V88.107C297,84.145,294.762,80.525,291.219,78.753z
		 M276.085,267.457h-13.595V105.362c0-5.775-4.682-10.458-10.458-10.458H44.968c-5.775,0-10.458,4.682-10.458,10.458v162.095H20.915
		V94.57L148.5,30.778L276.085,94.57V267.457z"/>
	<path d="M217.521,132.552H148.5c-4.043,0-7.32,3.277-7.32,7.32v61.701H79.479c-4.043,0-7.32,3.277-7.32,7.32v69.021
		c0,4.043,3.277,7.32,7.32,7.32h138.042c4.043,0,7.32-3.277,7.32-7.32V139.873C224.842,135.829,221.564,132.552,217.521,132.552z
		 M155.82,226.568l16.837,16.837l-16.837,16.837V226.568z M141.18,260.241l-16.837-16.837l16.837-16.837V260.241z M166.174,216.214
		h33.673l-16.837,16.837L166.174,216.214z M166.174,201.573l16.837-16.837l16.837,16.837H166.174z M210.201,191.22l-16.836-16.837
		l16.836-16.837V191.22z M183.011,164.03l-16.837-16.837h33.673L183.011,164.03z M172.657,174.383L155.82,191.22v-33.673
		L172.657,174.383z M113.989,233.051l-16.837-16.837h33.673L113.989,233.051z M103.636,243.404l-16.837,16.837v-33.673
		L103.636,243.404z M113.989,253.758l16.837,16.837H97.153L113.989,253.758z M183.01,253.758l16.837,16.837h-33.673L183.01,253.758z
		 M193.364,243.404l16.837-16.837v33.673L193.364,243.404z"/>
</g>
</svg>