<svg xmlns="http://www.w3.org/2000/svg" width="14" height="14" viewBox="0 0 14 14" fill="none">
  <path fill-rule="evenodd" clip-rule="evenodd" d="M12.25 3.9375V9.625H11.375V3.9375H9.625C9.2769 3.9375 8.94306 3.79922 8.69692 3.55308C8.45078 3.30694 8.3125 2.9731 8.3125 2.625V0.875H3.5C3.26794 0.875 3.04538 0.967187 2.88128 1.13128C2.71719 1.29538 2.625 1.51794 2.625 1.75V9.625H1.75V1.75C1.75 1.28587 1.93437 0.840752 2.26256 0.512563C2.59075 0.184374 3.03587 0 3.5 0L8.3125 0L12.25 3.9375ZM6.8775 12.9859C6.88251 13.1237 6.91631 13.259 6.97674 13.3831C7.03717 13.5071 7.12289 13.6171 7.22837 13.706C7.34212 13.8005 7.48212 13.874 7.6475 13.9265C7.81375 13.9799 8.00712 14.0061 8.22937 14.0061C8.52512 14.0061 8.77537 13.9598 8.98012 13.8679C9.1875 13.776 9.34412 13.6474 9.45263 13.4829C9.56297 13.312 9.61993 13.1122 9.61625 12.9089C9.61625 12.7129 9.57687 12.5501 9.49812 12.4189C9.418 12.2878 9.30485 12.1801 9.17 12.1065C9.01528 12.021 8.84865 11.959 8.67562 11.9228L8.13225 11.7968C8.00386 11.7733 7.88259 11.7206 7.77787 11.6427C7.73811 11.6119 7.7061 11.5721 7.68438 11.5267C7.66266 11.4813 7.65183 11.4315 7.65275 11.3811C7.65275 11.2446 7.70612 11.1326 7.81375 11.0451C7.92312 10.9567 8.07275 10.9121 8.26262 10.9121C8.38775 10.9121 8.49537 10.9323 8.58637 10.9716C8.66982 11.0059 8.74347 11.0603 8.80075 11.13C8.8546 11.195 8.89077 11.2727 8.90575 11.3558H9.562C9.55129 11.1777 9.49098 11.0061 9.38787 10.8605C9.27728 10.7034 9.12605 10.5794 8.95037 10.5017C8.73551 10.4075 8.50241 10.3621 8.26787 10.3688C8.0115 10.3688 7.78487 10.4125 7.588 10.5C7.392 10.5866 7.238 10.71 7.12687 10.8684C7.01575 11.0276 6.96062 11.214 6.96062 11.4275C6.96062 11.6034 6.99562 11.7565 7.06825 11.886C7.14 12.0164 7.24237 12.1223 7.37537 12.2071C7.50925 12.2902 7.66587 12.3532 7.84787 12.3935L8.38862 12.5195C8.56975 12.5624 8.70362 12.6184 8.79287 12.6884C8.83664 12.7215 8.87169 12.7648 8.89501 12.8145C8.91833 12.8642 8.92923 12.9188 8.92675 12.9736C8.92805 13.0638 8.90213 13.1522 8.85237 13.2274C8.79607 13.3042 8.71851 13.3629 8.62925 13.3963C8.53212 13.4374 8.4105 13.4575 8.26787 13.4575C8.1655 13.4575 8.07187 13.4461 7.98787 13.4225C7.91021 13.4012 7.8366 13.3672 7.77 13.3219C7.71175 13.2842 7.66188 13.2349 7.62349 13.1771C7.58511 13.1193 7.55903 13.0542 7.54687 12.9859H6.8775ZM3.61725 10.4405H4.39862L3.28387 12.1966L4.38112 13.9396H3.58662L2.84288 12.7015H2.81225L2.06587 13.9396H1.3125L2.3975 12.1756L1.323 10.4405H2.13763L2.86563 11.6987H2.89713L3.61725 10.4405ZM5.29987 13.3499H6.78475V13.9396H4.60775V10.4405H5.29987V13.3499ZM11.9814 10.4405H12.7627L11.648 12.1966L12.7452 13.9396H11.9507L11.207 12.7015H11.1764L10.43 13.9396H9.67662L10.7616 12.1756L9.68712 10.4405H10.5017L11.2297 11.6987H11.2612L11.9814 10.4405Z" fill="#213660"/>
</svg>